<svg width="64" height="47" viewBox="0 0 64 47" fill="none" xmlns="http://www.w3.org/2000/svg">
<path d="M15.8669 5.45128L17.4669 4.93928C18.9175 4.93928 19.6429 6.85928 19.6429 10.6993L21.6269 25.4833L21.8829 25.7393L29.2429 23.0513C30.2242 23.0513 30.7575 23.798 30.8429 25.2913C30.8429 26.4006 28.1335 27.7446 22.7149 29.3233L22.4589 29.4513V29.7073C22.4589 30.6033 23.8669 35.2753 26.6829 43.7233V43.8513C26.6829 44.662 26.0215 45.3446 24.6989 45.8993C23.4615 45.8993 22.6509 44.4273 22.2669 41.4833C21.2855 39.35 20.0909 35.83 18.6829 30.9233H18.4269C12.8375 32.0753 10.0429 33.0566 10.0429 33.8673C6.97087 40.5233 4.64553 43.8513 3.06687 43.8513C2.17087 43.8513 1.63753 43.2753 1.46687 42.1233C1.46687 41.0993 2.59753 39.094 4.85887 36.1073L5.88287 33.8673H4.28287L3.06687 34.1233C1.4882 33.7393 0.698867 32.9286 0.698867 31.6913C1.33887 30.198 2.27753 29.4513 3.51487 29.4513L5.11487 30.0913C7.5042 30.0913 8.69887 29.2166 8.69887 27.4673C10.8749 22.3473 13.2642 15.0086 15.8669 5.45128ZM16.4429 17.0993L12.6669 28.4913C16.1655 27.8086 17.9149 27.1473 17.9149 26.5073C17.2749 20.2353 16.7842 17.0993 16.4429 17.0993ZM51.1104 3.40328C53.2864 3.40328 54.5664 4.19262 54.9504 5.77128C54.9504 6.41128 54.3317 7.09395 53.0944 7.81928L50.9824 7.24328H50.7264C48.337 7.24328 45.6064 10.6353 42.5344 17.4193C42.1077 19.0833 41.8944 20.6833 41.8944 22.2193V24.8433H42.1504C47.3557 23.606 50.6837 22.9873 52.1344 22.9873C54.0117 23.3286 54.9504 24.0753 54.9504 25.2273C54.5664 26.422 53.9477 27.0193 53.0944 27.0193L51.9424 26.8273C47.5904 27.2113 44.3904 27.8726 42.3424 28.8113V29.2593L43.1104 39.6273C43.1104 44.534 42.129 46.9873 40.1664 46.9873C39.4837 46.9873 38.865 46.454 38.3104 45.3873C38.993 43.638 39.3344 41.4406 39.3344 38.7953C39.3344 36.1073 39.0784 33.0566 38.5664 29.6433L35.4944 30.0273C32.721 29.7713 31.3344 28.8966 31.3344 27.4033C31.761 26.2086 32.4437 25.6113 33.3824 25.6113L34.9824 26.0593H36.1344L38.1824 25.8033V22.2193C38.1824 15.606 41.105 9.80328 46.9504 4.81128C48.273 3.87262 49.6597 3.40328 51.1104 3.40328ZM58.5489 0.0112839C59.7009 0.480616 60.2769 1.16328 60.2769 2.05928C60.6182 14.1766 61.1089 22.9233 61.7489 28.2993C61.3222 29.366 60.7035 29.8993 59.8929 29.8993C58.3142 29.8993 57.5249 27.3606 57.5249 22.2833C57.1409 20.4059 56.8209 13.6006 56.5649 1.86728C56.5649 0.800617 57.2262 0.181951 58.5489 0.0112839ZM58.9329 44.0433C59.3169 42.7206 59.9995 42.0593 60.9809 42.0593C62.0049 42.0593 62.7089 42.7206 63.0929 44.0433C62.6235 45.2806 61.9622 45.8993 61.1089 45.8993H60.9169C60.0635 45.8993 59.4022 45.2806 58.9329 44.0433Z" fill="#FFE071"/>
</svg>
