<svg width="146" height="145" viewBox="0 0 146 145" fill="none" xmlns="http://www.w3.org/2000/svg">
<path d="M61.468 31.0039C67.5299 32.1078 94.254 38.1106 101.458 40.8412C105.301 42.2974 106.706 44.8035 106.033 48.3637C103.971 59.2747 93.03 103.339 90.3159 111.34C89.4308 113.95 87.0611 114.613 84.8673 114.21C79.4512 113.217 49.6852 105.788 44.3698 104.103C40.2868 102.809 39.3988 100.92 40.0489 97.2889C41.4973 89.1872 52.3422 44.0007 55.362 35.0727C56.545 31.5744 59.3409 30.6199 61.468 31.0039Z" fill="#961BA9"/>
<path d="M99.0641 49.852C99.2666 48.8994 99.2116 47.9457 97.6458 47.4903C87.9113 44.6628 70.352 40.395 63.5097 39.4731C62.2606 39.3082 61.2962 39.9267 60.7098 41.7851C58.9912 47.2353 48.0914 89.1844 47.5879 95.2243C47.4014 97.4424 48.506 99.0957 50.0866 99.5769C58.4619 102.125 73.9823 106.123 82.3163 107.474C83.6501 107.691 84.2323 106.947 84.7285 105.279C87.6603 95.424 95.1877 68.0289 99.0641 49.852Z" stroke="#6A1577" stroke-miterlimit="10"/>
<path d="M97.7758 56.1859C98.3781 56.3472 98.8604 56.7598 98.783 57.3111C98.5978 58.6271 96.4921 67.0642 96.2411 67.7903C95.9902 68.5163 95.8217 68.9766 94.5877 68.6686C93.8453 68.4833 93.1373 68.1597 93.2549 67.4033C93.3724 66.6469 95.4796 57.8481 95.8304 56.7894C96.1164 55.9289 97.0392 55.9888 97.7758 56.1859Z" fill="#961BA9" stroke="#6A1577" stroke-miterlimit="10"/>
<path d="M85.3769 101.916C84.7822 101.73 84.3174 101.298 84.4193 100.751C84.6576 99.4433 87.222 90.6983 87.5066 89.9844C87.7913 89.2704 88.5683 89.4261 89.0772 89.5759C89.8116 89.7908 90.5064 90.1404 90.3579 90.8943C90.2094 91.6481 87.7437 100.351 87.3491 101.393C87.0246 102.241 86.1049 102.142 85.3769 101.916Z" fill="#961BA9" stroke="#6A1577" stroke-miterlimit="10"/>
<path d="M84.6444 67.2904C83.1738 72.9384 78.1276 75.9125 73.1477 74.1952C67.5763 72.2738 64.8852 68.0296 66.243 62.6979C67.5417 57.6004 71.576 54.2555 77.7402 55.7939C82.8211 57.062 86.0652 61.8356 84.6444 67.2904Z" fill="#6A1577"/>
<path d="M84.3615 66.7076C82.9042 72.3052 77.9026 75.2537 72.9661 73.551C67.4439 71.647 64.7746 67.4391 66.1226 62.1556C67.4095 57.1021 71.4091 53.7875 77.518 55.3122C82.5547 56.5692 85.7666 61.301 84.3615 66.7076Z" fill="#485160"/>
<path d="M79.0507 70.7698C82.5503 68.6681 83.6835 64.1275 81.5819 60.6279C79.4802 57.1283 74.9396 55.9951 71.44 58.0967C67.9405 60.1984 66.8072 64.7391 68.9089 68.2386C71.0105 71.7382 75.5512 72.8714 79.0507 70.7698Z" fill="#A7ACB3"/>
<path d="M74.4019 67.7964C76.2601 68.2602 78.1423 67.1298 78.6061 65.2716C79.0698 63.4135 77.9394 61.5312 76.0813 61.0675C74.2231 60.6037 72.3409 61.7341 71.8771 63.5923C71.4134 65.4504 72.5437 67.3327 74.4019 67.7964Z" fill="#485160"/>
<path d="M76.8447 58.2614C76.8497 58.3961 76.8423 58.5309 76.8227 58.6642C76.8038 58.7956 76.7772 58.9258 76.743 59.0541C76.7115 59.1806 76.673 59.3025 76.6303 59.4233C76.5882 59.5462 76.5363 59.6657 76.4751 59.7804C76.4669 59.7953 76.4558 59.8084 76.4425 59.819C76.4291 59.8296 76.4138 59.8374 76.3974 59.8421C76.381 59.8467 76.3639 59.8481 76.347 59.8461C76.3301 59.8441 76.3137 59.8387 76.2989 59.8304C76.2804 59.8199 76.2647 59.8052 76.2531 59.7873C76.2416 59.7695 76.2346 59.7491 76.2327 59.7279C76.2246 59.5935 76.2321 59.4586 76.2551 59.326C76.2769 59.196 76.3075 59.0678 76.3466 58.942C76.3835 58.8175 76.423 58.6974 76.4646 58.5778C76.5062 58.4582 76.5475 58.3371 76.6003 58.2166C76.612 58.1906 76.6321 58.1692 76.6573 58.1559C76.6826 58.1426 76.7116 58.1382 76.7397 58.1434C76.7677 58.1485 76.7933 58.1629 76.8122 58.1843C76.8311 58.2057 76.8423 58.2328 76.844 58.2612L76.8447 58.2614Z" fill="#485160"/>
<path d="M72.9523 58.4645C73.021 58.5778 73.0775 58.6926 73.1349 58.8038C73.1924 58.9151 73.2439 59.0322 73.2972 59.1483C73.3504 59.2644 73.4001 59.3833 73.4428 59.5063C73.4882 59.631 73.521 59.76 73.5406 59.8913C73.5452 59.9252 73.5363 59.9595 73.5157 59.9868C73.4952 60.0142 73.4646 60.0323 73.4308 60.0372C73.4093 60.0398 73.3875 60.0372 73.3673 60.0294C73.347 60.0217 73.329 60.0091 73.3148 59.9928C73.2306 59.8911 73.1558 59.782 73.0914 59.6668C73.0269 59.5521 72.9694 59.4335 72.9193 59.3118C72.8672 59.1886 72.8238 59.0619 72.7892 58.9327C72.7533 58.8034 72.7293 58.671 72.7175 58.5373C72.715 58.5036 72.7259 58.4702 72.7479 58.4445C72.7698 58.4187 72.8011 58.4027 72.8348 58.3999C72.8583 58.3981 72.8818 58.4029 72.9027 58.4137C72.9236 58.4245 72.9411 58.4409 72.9532 58.461L72.9523 58.4645Z" fill="#485160"/>
<path d="M69.9165 60.8955C70.0387 60.9415 70.1576 60.9957 70.2725 61.0577C70.3869 61.1171 70.4967 61.1805 70.6061 61.2453C70.7155 61.31 70.8246 61.3791 70.9304 61.4555C71.039 61.53 71.1409 61.6139 71.235 61.7062C71.2548 61.7265 71.2674 61.7528 71.2708 61.781C71.2741 61.8092 71.2681 61.8377 71.2537 61.8621C71.2392 61.8865 71.2171 61.9055 71.1908 61.916C71.1644 61.9266 71.1354 61.9282 71.108 61.9206C70.9805 61.8858 70.8564 61.8398 70.737 61.7832C70.6168 61.729 70.5003 61.667 70.3882 61.5977C70.2747 61.529 70.1659 61.4527 70.0625 61.3696C69.9575 61.2873 69.8602 61.1956 69.7717 61.0958C69.7496 61.0701 69.7385 61.0368 69.7409 61.003C69.7433 60.9692 69.7589 60.9377 69.7845 60.9154C69.8018 60.9005 69.8227 60.8904 69.8452 60.8862C69.8676 60.882 69.8908 60.8838 69.9123 60.8915L69.9165 60.8955Z" fill="#485160"/>
<path d="M68.8935 64.6483C69.0203 64.618 69.1486 64.5949 69.278 64.579C69.4044 64.5607 69.5292 64.5463 69.6564 64.534C69.7836 64.5217 69.9118 64.5111 70.0421 64.5098C70.1744 64.5063 70.3067 64.5147 70.4374 64.535C70.4654 64.5394 70.4911 64.5529 70.5106 64.5734C70.5301 64.5939 70.5423 64.6203 70.5452 64.6484C70.5482 64.6765 70.5417 64.7048 70.5269 64.7289C70.5121 64.753 70.4897 64.7716 70.4633 64.7816C70.3402 64.8285 70.2132 64.8646 70.0839 64.8896C69.9552 64.917 69.8251 64.9365 69.6941 64.948C69.5608 64.9601 69.4269 64.9627 69.2933 64.9559C69.1591 64.9505 69.0258 64.9317 68.8953 64.8999C68.8677 64.8932 68.843 64.8773 68.8254 64.8549C68.8078 64.8325 68.7982 64.8049 68.7981 64.7764C68.798 64.7478 68.8075 64.7201 68.825 64.6977C68.8425 64.6752 68.8671 64.6592 68.8947 64.6523L68.8935 64.6483Z" fill="#485160"/>
<path d="M70.2702 68.2842C70.3542 68.1855 70.4441 68.092 70.5392 68.004C70.6309 67.916 70.7243 67.8299 70.8181 67.7483C70.9119 67.6667 71.0082 67.5754 71.1156 67.5009C71.2199 67.4188 71.3311 67.3461 71.4482 67.2835C71.4632 67.2758 71.4795 67.2712 71.4963 67.2698C71.5131 67.2684 71.53 67.2704 71.546 67.2755C71.562 67.2807 71.5769 67.289 71.5897 67.2999C71.6026 67.3108 71.6131 67.3241 71.6208 67.3391C71.6314 67.3591 71.6365 67.3815 71.6355 67.4041C71.6345 67.4267 71.6275 67.4487 71.6152 67.4677C71.5427 67.5761 71.4618 67.6786 71.3734 67.7745C71.286 67.8733 71.1928 67.9667 71.0942 68.0544C70.9936 68.1435 70.8861 68.2247 70.7729 68.2973C70.6608 68.3715 70.5411 68.4337 70.416 68.4828C70.3896 68.4929 70.3606 68.494 70.3336 68.4859C70.3065 68.4779 70.2829 68.4611 70.2663 68.4382C70.2498 68.4153 70.2412 68.3876 70.242 68.3594C70.2428 68.3312 70.2529 68.304 70.2707 68.2821L70.2702 68.2842Z" fill="#485160"/>
<path d="M73.5208 70.4314C73.5132 70.2976 73.5201 70.1634 73.5414 70.0311C73.5628 69.9014 73.5919 69.7731 73.6285 69.6468C73.6641 69.522 73.7025 69.4002 73.7454 69.2787C73.7869 69.1553 73.8351 69.0342 73.8895 68.9159C73.9019 68.8901 73.9227 68.8691 73.9484 68.8566C73.9742 68.844 74.0034 68.8404 74.0314 68.8465C74.0594 68.8525 74.0846 68.8678 74.1028 68.8899C74.1211 68.9121 74.1313 68.9397 74.1319 68.9683C74.134 69.1018 74.1253 69.2351 74.1058 69.3672C74.0866 69.4973 74.0608 69.6264 74.0284 69.7539C73.9968 69.8804 73.9618 70.0031 73.9204 70.125C73.8787 70.2488 73.8268 70.369 73.7653 70.4843C73.7484 70.5141 73.7205 70.5361 73.6875 70.5455C73.6545 70.5548 73.6192 70.5508 73.5891 70.5343C73.5703 70.5239 73.5542 70.5092 73.5423 70.4912C73.5304 70.4733 73.523 70.4528 73.5208 70.4314Z" fill="#485160"/>
<path d="M77.417 70.2501C77.3306 70.1496 77.2533 70.0416 77.1861 69.9274C77.116 69.8135 77.0552 69.6942 77.0042 69.5706C76.9521 69.4464 76.9104 69.3181 76.8796 69.187C76.8463 69.0568 76.8259 68.9235 76.8188 68.7893C76.8174 68.7607 76.8256 68.7324 76.8421 68.709C76.8586 68.6856 76.8824 68.6684 76.9098 68.6602C76.9372 68.6519 76.9666 68.653 76.9933 68.6634C77.02 68.6737 77.0424 68.6927 77.0571 68.7173C77.1228 68.8294 77.1819 68.9451 77.2342 69.064C77.2876 69.1795 77.3367 69.2945 77.386 69.4089C77.4353 69.5233 77.4855 69.6401 77.53 69.7621C77.5781 69.8852 77.6157 70.0123 77.6423 70.1418C77.6476 70.1696 77.6437 70.1983 77.631 70.2236C77.6184 70.2489 77.5977 70.2693 77.5723 70.2816C77.5468 70.2939 77.518 70.2975 77.4904 70.2918C77.4627 70.286 77.4377 70.2713 77.4192 70.2499L77.417 70.2501Z" fill="#485160"/>
<path d="M80.4589 67.8097C80.3305 67.7763 80.2052 67.7325 80.084 67.6787C79.9614 67.6267 79.8425 67.5666 79.7279 67.4988C79.6116 67.4317 79.501 67.355 79.3974 67.2694C79.2926 67.1836 79.198 67.086 79.1153 66.9787C79.0979 66.9565 79.0884 66.9291 79.0882 66.9009C79.088 66.8727 79.0971 66.8451 79.1141 66.8226C79.1311 66.8001 79.155 66.7838 79.1822 66.7763C79.2094 66.7687 79.2383 66.7704 79.2645 66.781C79.3841 66.8305 79.5003 66.8877 79.6124 66.9523C79.7243 67.0132 79.8309 67.0802 79.9393 67.1433C80.0477 67.2063 80.1559 67.2759 80.2624 67.3494C80.3719 67.422 80.4763 67.5021 80.5749 67.589C80.5999 67.612 80.6148 67.644 80.6164 67.6779C80.6179 67.7119 80.606 67.745 80.5833 67.7703C80.568 67.7874 80.5484 67.8002 80.5265 67.8071C80.5046 67.8141 80.4812 67.815 80.4589 67.8097Z" fill="#485160"/>
<path d="M81.4725 64.0496C81.3455 64.0825 81.2167 64.1075 81.0866 64.1244C80.9589 64.1447 80.8323 64.1579 80.7077 64.1716C80.5831 64.1853 80.4519 64.1929 80.3223 64.1944C80.19 64.198 80.0577 64.1895 79.9269 64.1691C79.8994 64.1642 79.8741 64.1505 79.855 64.13C79.8359 64.1096 79.824 64.0834 79.8211 64.0556C79.8182 64.0277 79.8244 63.9997 79.8388 63.9757C79.8533 63.9517 79.8751 63.933 79.9011 63.9225C80.0244 63.8743 80.1521 63.8378 80.2823 63.8135C80.4113 63.789 80.5417 63.7725 80.6728 63.7641C80.805 63.7544 80.9376 63.7524 81.0701 63.7583C81.203 63.7632 81.3354 63.779 81.4658 63.8056C81.4822 63.809 81.4978 63.8157 81.5117 63.8252C81.5255 63.8346 81.5374 63.8468 81.5465 63.8609C81.5556 63.875 81.5618 63.8907 81.5648 63.9073C81.5678 63.9238 81.5675 63.9407 81.5638 63.9571C81.5589 63.9799 81.5478 64.0009 81.5318 64.0179C81.5158 64.0349 81.4955 64.0471 81.473 64.0534L81.4725 64.0496Z" fill="#485160"/>
<path d="M80.0855 60.4133C79.9959 60.5106 79.9009 60.5971 79.8069 60.6823C79.7129 60.7675 79.6181 60.8504 79.524 60.9333C79.4298 61.0163 79.3357 61.0993 79.2351 61.1785C79.1347 61.2608 79.0288 61.3362 78.9181 61.4041C78.9036 61.413 78.8875 61.4188 78.8708 61.4214C78.854 61.4239 78.8369 61.4231 78.8204 61.419C78.804 61.4149 78.7885 61.4076 78.7749 61.3974C78.7613 61.3873 78.7498 61.3746 78.7412 61.36C78.73 61.3414 78.7236 61.3203 78.7226 61.2987C78.7216 61.277 78.726 61.2554 78.7354 61.2359C78.7989 61.1163 78.8761 61.0044 78.9655 60.9026C79.0542 60.8008 79.1514 60.7067 79.256 60.6212C79.3595 60.5343 79.4697 60.4558 79.5856 60.3862C79.7002 60.3153 79.8214 60.2556 79.9474 60.2077C79.9743 60.1977 80.0038 60.1971 80.0311 60.2059C80.0584 60.2147 80.0819 60.2325 80.0979 60.2563C80.1138 60.2802 80.1213 60.3087 80.119 60.3374C80.1167 60.366 80.1049 60.393 80.0854 60.414L80.0855 60.4133Z" fill="#485160"/>
<path d="M76.275 54.4546C76.4226 54.2931 78.9065 54.9388 78.9614 55.125C79.0162 55.3113 76.9883 57.7756 76.8563 57.728C76.7242 57.6803 76.1358 54.6093 76.275 54.4546Z" fill="#EEEAE9"/>
<path d="M51.2275 57.4695L51.4482 56.2438C51.5215 55.8355 51.6087 55.4299 51.6891 55.0225C51.7695 54.6152 51.8566 54.2103 51.9444 53.8056C52.0322 53.4008 52.1203 52.9947 52.215 52.5917L52.4933 51.3826L52.7872 50.1753C52.8835 49.7719 52.9879 49.3713 53.0881 48.9697C53.1884 48.5681 53.2888 48.1657 53.3952 47.7656C54.2348 44.5605 55.1368 41.376 56.1221 38.208C56.2458 37.8122 56.3747 37.4163 56.5045 37.0198L56.7075 36.4213C56.7444 36.3204 56.7871 36.2143 56.8268 36.1111L56.8884 35.9553C56.9074 35.9026 56.9294 35.851 56.9542 35.8007C57.0463 35.5925 57.1492 35.3892 57.2626 35.1918L57.3484 35.0421L57.3919 34.9677C57.4069 34.9429 57.4245 34.9193 57.4409 34.8948L57.6415 34.6063C57.9319 34.2171 58.2862 33.88 58.6893 33.6092C59.1039 33.3391 59.5671 33.1522 60.053 33.0588C60.1715 33.034 60.2906 33.0219 60.411 33.0012C60.5315 32.9806 60.6479 32.9789 60.7644 32.9771C60.9928 32.9682 61.2215 32.975 61.4489 32.9974L61.7828 33.0249L62.1011 33.0676L62.4192 33.111C62.524 33.1269 62.6271 33.146 62.7315 33.1633C62.9382 33.2002 63.1475 33.2326 63.3526 33.2727L63.9678 33.391C64.3769 33.4733 64.7849 33.5568 65.191 33.6449C65.5972 33.7331 66.0021 33.826 66.4056 33.9216C67.2143 34.1083 68.0197 34.3051 68.8218 34.5121C69.2226 34.6158 69.6246 34.7176 70.0247 34.8241L71.2235 35.149C72.0221 35.3684 72.8179 35.5966 73.6111 35.8337C73.697 35.8594 73.7698 35.9171 73.8142 35.995C73.8586 36.0729 73.8713 36.165 73.8496 36.252C73.8279 36.339 73.7734 36.4143 73.6976 36.4622C73.6218 36.5101 73.5304 36.5269 73.4425 36.5091C71.8224 36.1833 70.206 35.8482 68.5914 35.5121L67.3794 35.2662C66.9764 35.1832 66.5725 35.1008 66.1685 35.0219C65.7644 34.9431 65.3614 34.8661 64.9579 34.7881C64.5543 34.7102 64.1513 34.636 63.7487 34.5634L63.1443 34.4603C62.9432 34.4248 62.7432 34.3992 62.5426 34.3674C62.4427 34.3528 62.3418 34.3364 62.2429 34.3235L61.9459 34.2868L61.6497 34.2496L61.3657 34.2279C61.1818 34.2107 60.997 34.2063 60.8124 34.2147C60.7219 34.2156 60.6365 34.2281 60.5484 34.234C60.4603 34.2399 60.3761 34.2563 60.2935 34.2754C59.9656 34.3396 59.6535 34.4675 59.3749 34.6519C59.092 34.8443 58.8425 35.0817 58.6362 35.3547L58.4836 35.5751C58.471 35.5932 58.457 35.611 58.4456 35.6302L58.4109 35.6898L58.3423 35.8086C58.2492 35.969 58.1646 36.1341 58.0888 36.3034C58.0675 36.3466 58.0486 36.3909 58.0322 36.4362L57.9797 36.5699C57.945 36.6589 57.909 36.7447 57.8748 36.8375L57.677 37.4123C57.5484 37.801 57.4196 38.1904 57.2954 38.5823C56.7944 40.1502 56.3063 41.7245 55.831 43.3051C55.3582 44.8849 54.8831 46.4649 54.4349 48.0516C53.5248 51.2215 52.655 54.4037 51.9086 57.6093L51.9074 57.6142C51.8872 57.703 51.8331 57.7803 51.7565 57.8297C51.68 57.879 51.5871 57.8963 51.498 57.8779C51.4088 57.8595 51.3304 57.8068 51.2796 57.7312C51.2288 57.6556 51.2098 57.5631 51.2265 57.4736L51.2275 57.4695Z" fill="#EE8069"/>
<path d="M72.5301 63.7636C72.5488 63.5654 72.6014 63.3718 72.6854 63.1914C72.7677 63.0127 72.8711 62.8444 72.9933 62.6903C73.2378 62.3848 73.5389 62.1293 73.8802 61.9379C74.0495 61.841 74.2279 61.7608 74.4128 61.6985C74.5985 61.6348 74.7906 61.5914 74.9856 61.569C75.3767 61.5208 75.7737 61.5758 76.1369 61.7286C76.1635 61.7421 76.1843 61.7647 76.1956 61.7923C76.2069 61.8199 76.208 61.8506 76.1986 61.8789C76.1893 61.9072 76.1701 61.9311 76.1445 61.9465C76.119 61.9619 76.0888 61.9676 76.0594 61.9626C75.725 61.8808 75.377 61.871 75.0385 61.934C74.8707 61.9647 74.7062 62.0106 74.5467 62.0712C74.3869 62.1328 74.2321 62.2069 74.0839 62.2927C73.7873 62.4656 73.5191 62.6829 73.2886 62.9373C73.0557 63.1856 72.8803 63.4819 72.7745 63.8055L72.7736 63.8089C72.7643 63.838 72.7447 63.8626 72.7185 63.8782C72.6923 63.8938 72.6613 63.8992 72.6313 63.8934C72.6014 63.8877 72.5745 63.8711 72.556 63.847C72.5374 63.8228 72.5283 63.7926 72.5305 63.7622L72.5301 63.7636Z" fill="#646D7D"/>
<path d="M75.1095 86.2744C74.1379 89.4466 71.6416 90.4597 69.0844 89.8927C65.8482 89.1746 64.657 86.4474 65.4654 83.8675C66.3316 81.1177 68.678 79.6368 71.4914 80.2486C74.3882 80.8791 75.9136 83.6501 75.1095 86.2744Z" fill="#6A1577"/>
<path d="M74.839 85.7683C73.8915 88.8614 71.4594 89.8501 68.9651 89.2959C65.8094 88.5964 64.6442 85.9359 65.4375 83.4219C66.2822 80.7409 68.5702 79.2969 71.3115 79.8944C74.1353 80.5081 75.6223 83.2093 74.839 85.7683Z" fill="#485160"/>
<path d="M73.2752 85.3787C72.8841 87.2961 71.1071 88.0841 69.3587 87.7308C67.5234 87.3608 66.4296 85.7734 67.006 83.8141C67.5064 82.1031 69.2336 80.8878 70.9232 81.4622C72.8627 82.121 73.6315 83.6303 73.2752 85.3787Z" fill="#A7ACB3"/>
<path d="M70.6125 82.6889C70.8807 82.7499 71.0202 83.171 70.9649 83.3922C70.9097 83.6134 70.6915 84.0172 70.6192 84.2451C70.5468 84.4731 70.5975 84.9205 70.5214 85.1695C70.4453 85.4186 70.2658 85.6785 70.2203 85.8463C70.1747 86.0142 70.2745 86.1617 70.195 86.4774C70.1154 86.7932 69.7668 86.9632 69.5647 86.9018C69.3627 86.8403 69.1496 86.467 69.2002 86.2644C69.2637 86.01 69.4979 85.8805 69.5298 85.6645C69.5617 85.4485 69.4592 85.2797 69.5706 84.9124C69.6821 84.5452 69.8642 84.3248 69.9159 84.1174C69.9677 83.91 69.9143 83.5354 70.0089 83.1565C70.1034 82.7777 70.4374 82.6488 70.6125 82.6889Z" fill="#485160"/>
<path d="M66.1609 83.3501C66.1937 83.0756 66.2715 82.8085 66.3913 82.5594C66.5105 82.3125 66.658 82.0802 66.8306 81.8671C67.1753 81.4434 67.5965 81.0882 68.0723 80.82C68.3092 80.6839 68.5587 80.5711 68.8173 80.4831C69.0755 80.3933 69.3425 80.3314 69.6139 80.2985C70.1585 80.2274 70.7122 80.2964 71.2228 80.4989C71.2386 80.5043 71.2533 80.5127 71.2659 80.5238C71.2784 80.5349 71.2887 80.5483 71.2961 80.5633C71.3035 80.5784 71.3079 80.5947 71.309 80.6115C71.31 80.6282 71.3078 80.645 71.3024 80.6608C71.297 80.6767 71.2885 80.6913 71.2774 80.7039C71.2664 80.7165 71.2529 80.7268 71.2379 80.7342C71.2229 80.7416 71.2065 80.746 71.1898 80.747C71.1731 80.7481 71.1563 80.7459 71.1404 80.7405C70.6608 80.6106 70.1585 80.588 69.6691 80.6744C69.4258 80.7171 69.1868 80.7821 68.9554 80.8685C68.7235 80.956 68.4991 81.0621 68.2843 81.1857C67.8537 81.4348 67.4654 81.7509 67.1342 82.1221C66.7997 82.4856 66.5534 82.921 66.4141 83.3949C66.4065 83.4268 66.387 83.4546 66.3595 83.4725C66.332 83.4904 66.2986 83.497 66.2664 83.4909C66.2342 83.4848 66.2055 83.4666 66.1864 83.4399C66.1672 83.4133 66.1591 83.3803 66.1637 83.3478L66.1609 83.3501Z" fill="#646D7D"/>
<path d="M86.194 97.8024C86.3441 97.201 86.5099 96.613 86.675 96.022L87.1803 94.2534L87.6944 92.4879L87.96 91.6061C88.0519 91.3111 88.1398 91.0209 88.243 90.7221C88.267 90.6523 88.3178 90.595 88.3841 90.5626C88.4505 90.5303 88.5269 90.5256 88.5967 90.5497C88.6664 90.5737 88.7238 90.6245 88.7561 90.6908C88.7884 90.7571 88.7931 90.8336 88.7691 90.9033C88.7691 90.9033 88.7679 90.9082 88.7674 90.9102L88.7663 90.9144C88.6622 91.1902 88.5649 91.4832 88.466 91.7706L88.1755 92.6403L87.6091 94.3862L87.0606 96.1395C86.8796 96.7236 86.6951 97.3099 86.5327 97.8928C86.5209 97.9374 86.4919 97.9754 86.452 97.9986C86.4121 98.0218 86.3647 98.0282 86.3201 98.0163C86.2755 98.0045 86.2375 97.9755 86.2143 97.9356C86.1911 97.8958 86.1848 97.8483 86.1966 97.8038L86.194 97.8024Z" fill="#EE8069"/>
<path d="M94.4459 66.3199C94.6044 65.5612 94.7768 64.8148 94.9479 64.0644L95.4697 61.8176L96.0028 59.5728L96.2776 58.4511L96.4177 57.8897L96.4881 57.6077L96.5694 57.3203C96.5917 57.2519 96.6396 57.1948 96.7031 57.1609C96.7666 57.1271 96.8407 57.1191 96.9099 57.1386C96.9792 57.1582 97.0381 57.2038 97.0745 57.2658C97.1109 57.3279 97.1219 57.4017 97.1051 57.4716L97.1003 57.491L97.0192 57.7571L96.9405 58.0312L96.7873 58.5805L96.4884 59.6926L95.905 61.9211L95.3333 64.1533C95.1475 64.8978 94.9552 65.6444 94.7831 66.3872C94.7732 66.4322 94.7458 66.4715 94.707 66.4964C94.6681 66.5212 94.621 66.5297 94.5759 66.5198C94.5309 66.5099 94.4916 66.4825 94.4667 66.4437C94.4419 66.4048 94.4334 66.3577 94.4433 66.3126L94.4459 66.3199Z" fill="#EE8069"/>
<path d="M59.8475 51.6441C60.1905 50.1935 60.5251 48.7407 60.8795 47.2885C61.0605 46.5634 61.2383 45.836 61.439 45.1113C61.5382 44.7491 61.6426 44.3867 61.7545 44.0239C61.8121 43.843 61.8704 43.6622 61.934 43.4812L62.0299 43.2115C62.0638 43.12 62.0993 43.0276 62.1385 42.9353C62.2166 42.7433 62.3089 42.5575 62.4146 42.3793C62.5298 42.1835 62.6731 42.0057 62.84 41.8517C63.0176 41.6927 63.223 41.568 63.4459 41.4837C63.655 41.4071 63.8729 41.3574 64.0945 41.3357C64.2994 41.3153 64.5055 41.3095 64.7113 41.3185C64.8106 41.3235 64.9072 41.3307 65.0056 41.3369C65.1039 41.3431 65.1979 41.3548 65.2928 41.3631C65.6747 41.404 66.0499 41.4543 66.4228 41.5136C67.9065 41.755 69.3767 42.0729 70.8276 42.4661C70.8632 42.474 70.8969 42.4889 70.9268 42.5099C70.9567 42.5308 70.9822 42.5575 71.0018 42.5883C71.0214 42.6191 71.0347 42.6534 71.041 42.6894C71.0473 42.7253 71.0465 42.7622 71.0385 42.7978C71.0306 42.8334 71.0157 42.8671 70.9948 42.897C70.9738 42.9269 70.9472 42.9524 70.9164 42.972C70.8856 42.9916 70.8512 43.0049 70.8153 43.0112C70.7793 43.0175 70.7425 43.0167 70.7068 43.0087L70.702 43.0075L69.607 42.8077C69.2414 42.7429 68.8741 42.6843 68.5081 42.6238C68.1421 42.5632 67.7749 42.5046 67.4088 42.45C67.0428 42.3954 66.6761 42.3406 66.3097 42.2932C65.9434 42.2458 65.5791 42.2019 65.2183 42.1677C64.8744 42.1311 64.5279 42.1267 64.1832 42.1546C64.0329 42.1698 63.8852 42.204 63.7436 42.2564C63.6158 42.3049 63.4982 42.3769 63.3969 42.4687C63.1941 42.6487 63.0336 42.9354 62.8992 43.2536C62.8653 43.3333 62.8339 43.4151 62.8021 43.4982L62.7098 43.7534C62.6495 43.9242 62.5921 44.0986 62.5355 44.2724C62.4233 44.6219 62.3146 44.9752 62.2119 45.3307C62.0057 46.0422 61.8076 46.7594 61.6105 47.4783C61.2171 48.9164 60.8185 50.3576 60.3812 51.7891C60.3592 51.8573 60.3119 51.9144 60.2489 51.9486C60.1859 51.9828 60.1122 51.9914 60.043 51.9726C59.9739 51.9538 59.9146 51.9091 59.8776 51.8478C59.8405 51.7865 59.8285 51.7132 59.8441 51.6433L59.8475 51.6441Z" fill="#EE8069"/>
<path d="M67.1094 61.1562C67.3491 60.4138 67.6977 59.7111 68.1438 59.0711L68.3129 58.832C68.3676 58.7509 68.4341 58.6787 68.4944 58.6019L68.6796 58.375C68.7419 58.2987 68.8112 58.2301 68.877 58.1577L69.0772 57.944C69.1452 57.8743 69.2193 57.8099 69.2898 57.7423L69.5049 57.5426C69.5783 57.4779 69.6555 57.4186 69.7319 57.3569C70.9526 56.3667 72.4319 55.7478 73.9941 55.5736C74.0102 55.5711 74.0266 55.5717 74.0425 55.5755C74.0583 55.5794 74.0733 55.5863 74.0865 55.5959C74.0997 55.6055 74.1108 55.6176 74.1193 55.6315C74.1278 55.6454 74.1335 55.6609 74.1361 55.677C74.1386 55.6931 74.1379 55.7095 74.1341 55.7254C74.1303 55.7412 74.1234 55.7562 74.1138 55.7694C74.1042 55.7826 74.0921 55.7937 74.0782 55.8022C74.0643 55.8107 74.0488 55.8164 74.0327 55.819C73.2954 55.9624 72.5773 56.1907 71.8926 56.4995C71.2129 56.8088 70.5758 57.204 69.9967 57.6756C69.9263 57.7315 69.8511 57.7913 69.7801 57.8521L69.5742 58.0416C69.507 58.1049 69.4353 58.1656 69.3702 58.2323L69.1731 58.4335C69.1099 58.5015 69.0411 58.5651 68.9814 58.6368L68.7997 58.85C68.6748 58.9884 68.5663 59.1405 68.4522 59.289C68.0058 59.8924 67.6327 60.5467 67.3408 61.2382C67.3294 61.269 67.3062 61.2941 67.2763 61.3078C67.2464 61.3216 67.2123 61.3229 67.1815 61.3115C67.1506 61.3001 67.1256 61.2769 67.1118 61.2471C67.0981 61.2172 67.0968 61.1831 67.1082 61.1522L67.1094 61.1562Z" fill="#646D7D"/>
<path d="M60.0995 22.7539C59.9485 22.4262 59.8181 22.0925 59.6937 21.7582C59.5693 21.4239 59.4541 21.0852 59.344 20.7464C59.234 20.4076 59.1319 20.0663 59.0322 19.7242C58.9326 19.3821 58.8429 19.0381 58.7517 18.6944C58.5712 18.0051 58.4035 17.3129 58.2485 16.6177C58.1717 16.2695 58.0983 15.9193 58.0319 15.5701C57.9656 15.2209 57.901 14.8677 57.8494 14.5126C57.8279 14.366 57.8608 14.2166 57.9419 14.0926C58.0231 13.9686 58.1468 13.8786 58.2898 13.8396C58.4327 13.8006 58.585 13.8153 58.7179 13.881C58.8507 13.9466 58.9549 14.0587 59.0108 14.1959C59.1492 14.5242 59.271 14.863 59.3905 15.199C59.5101 15.5351 59.6263 15.8725 59.7364 16.2114C59.9589 16.8891 60.1663 17.5705 60.3586 18.2554C60.4552 18.5982 60.5502 18.9413 60.6405 19.2855C60.7308 19.6297 60.8141 19.9758 60.8951 20.325C60.9761 20.6742 61.044 21.0231 61.1077 21.3738C61.1715 21.7246 61.2257 22.0781 61.2637 22.4408C61.2788 22.5848 61.2422 22.7294 61.1605 22.8488C61.0787 22.9683 60.9572 23.0548 60.8176 23.0929C60.6779 23.1309 60.5293 23.1181 60.3983 23.0567C60.2672 22.9952 60.1623 22.8892 60.1022 22.7575L60.0995 22.7539Z" fill="#FFE8B6"/>
<path d="M37.8313 45.3534C37.4187 45.1733 37.019 44.9744 36.6211 44.7708C36.2232 44.5673 35.8323 44.3537 35.4404 44.1406C35.0486 43.9275 34.6652 43.7011 34.281 43.4752C33.8968 43.2494 33.5146 43.0152 33.138 42.7824L32.5702 42.4299L32.0067 42.069C31.6288 41.8322 31.2565 41.588 30.8838 41.3423C30.1411 40.8492 29.4025 40.3484 28.6848 39.8139C28.5671 39.7156 28.4885 39.5784 28.4633 39.4271C28.4381 39.2758 28.4679 39.1205 28.5473 38.9894C28.6268 38.8582 28.7506 38.7599 28.8964 38.7122C29.0421 38.6645 29.2001 38.6706 29.3417 38.7294C30.148 39.1179 30.9341 39.5403 31.7155 39.9696C32.1056 40.1866 32.4952 40.4028 32.8798 40.6273L33.4574 40.9609L34.0337 41.3001C34.4172 41.5287 34.8004 41.7587 35.1771 41.9915C35.5537 42.2243 35.9319 42.4656 36.304 42.7134C36.6762 42.9612 37.0456 43.2083 37.4098 43.4674C37.774 43.7265 38.1363 43.9873 38.4868 44.2686C38.6045 44.3669 38.6831 44.5041 38.7084 44.6554C38.7336 44.8066 38.7038 44.9619 38.6243 45.0931C38.5449 45.2243 38.421 45.3226 38.2753 45.3703C38.1296 45.418 37.9715 45.4119 37.8299 45.353L37.8313 45.3534Z" fill="#FFE8B6"/>
<path d="M76.9055 23.9725C76.8707 23.5086 76.859 23.0467 76.8517 22.5844C76.8444 22.1222 76.8494 21.6608 76.8544 21.1994C76.8703 20.2766 76.9145 19.355 76.9708 18.4379L77.0155 17.747L77.0683 17.053C77.0983 16.5942 77.1396 16.1346 77.1809 15.6749C77.2669 14.7564 77.3625 13.8381 77.5007 12.9223C77.5234 12.7739 77.6005 12.6393 77.717 12.5446C77.8335 12.4499 77.981 12.4018 78.1309 12.4099C78.2809 12.4179 78.4224 12.4814 78.5281 12.588C78.6339 12.6946 78.6962 12.8367 78.7029 12.9867C78.7392 13.9122 78.7356 14.8358 78.7227 15.7586C78.7147 16.22 78.7068 16.6814 78.6888 17.1417L78.6632 17.833L78.6332 18.5238C78.5913 19.4452 78.537 20.3658 78.4538 21.285C78.4125 21.7446 78.3655 22.2036 78.3083 22.6623C78.2511 23.1209 78.1903 23.5794 78.1063 24.0365C78.0795 24.1815 78.0009 24.3117 77.8851 24.403C77.7692 24.4942 77.6242 24.5402 77.477 24.5323C77.3297 24.5245 77.1904 24.4633 77.085 24.3602C76.9796 24.2571 76.9153 24.1192 76.9041 23.9722L76.9055 23.9725Z" fill="#FFE8B6"/>
<path d="M95.344 26.4985C95.5447 25.8832 95.7815 25.2802 96.0532 24.6928C96.3165 24.1057 96.6093 23.5325 96.9039 22.9613C97.1985 22.3901 97.5051 21.8233 97.8201 21.2616C98.1351 20.6998 98.4609 20.1445 98.8127 19.6C98.8937 19.4743 99.0183 19.3831 99.1626 19.3438C99.3069 19.3045 99.4605 19.32 99.5941 19.3872C99.7276 19.4544 99.8316 19.5687 99.8859 19.708C99.9403 19.8473 99.9412 20.0017 99.8884 20.1417C99.664 20.7466 99.4061 21.3387 99.1487 21.9287C98.8913 22.5188 98.6128 23.0992 98.3312 23.6773C98.0496 24.2555 97.7626 24.8315 97.4483 25.3935C97.1384 25.961 96.7959 26.51 96.4225 27.0379C96.3376 27.1555 96.2136 27.239 96.0727 27.2734C95.9318 27.3078 95.7833 27.2909 95.6538 27.2256C95.5242 27.1604 95.4222 27.0512 95.3659 26.9175C95.3097 26.7838 95.3029 26.6345 95.3468 26.4963L95.344 26.4985Z" fill="#FFE8B6"/>
<path d="M45.6905 30.3028C44.8827 29.3845 44.1015 28.4456 43.3287 27.4993C42.9404 27.0279 42.5612 26.5492 42.1774 26.0745L41.0401 24.6377L39.9179 23.1908C39.548 22.7041 39.1742 22.2216 38.8098 21.7312C38.076 20.755 37.3516 19.7708 36.6527 18.7695C36.5539 18.6291 36.5129 18.4561 36.538 18.2863C36.5631 18.1165 36.6525 17.9628 36.7876 17.8569C36.9228 17.7511 37.0934 17.7012 37.2643 17.7176C37.4352 17.7339 37.5933 17.8153 37.7059 17.9448C38.5137 18.8631 39.2984 19.8029 40.0677 20.7483C40.4569 21.2192 40.8352 21.6984 41.219 22.1731L42.3556 23.6097L43.4825 25.0556C43.8516 25.5421 44.2254 26.0246 44.5871 26.5143C45.3209 27.4906 46.0455 28.4741 46.7449 29.4762C46.8437 29.6166 46.8847 29.7896 46.8596 29.9594C46.8345 30.1293 46.7451 30.283 46.61 30.3888C46.4748 30.4946 46.3042 30.5445 46.1333 30.5282C45.9624 30.5118 45.8043 30.4305 45.6917 30.3009L45.6905 30.3028Z" fill="#FFE8B6"/>
<path d="M34.2445 60.3959C32.7364 60.0775 31.2439 59.7079 29.7561 59.3197C28.2682 58.9315 26.7854 58.5262 25.3098 58.0977C23.8343 57.6692 22.3616 57.2261 20.8955 56.7625C19.4295 56.2989 17.9693 55.8177 16.5223 55.2863C16.3642 55.2269 16.2342 55.1101 16.1584 54.9591C16.0826 54.8082 16.0665 54.6342 16.1133 54.4719C16.1601 54.3096 16.2664 54.1709 16.411 54.0835C16.5555 53.9961 16.7277 53.9665 16.8932 54.0004C18.4008 54.3209 19.8932 54.6911 21.3811 55.0787C22.8691 55.4662 24.3516 55.8729 25.8286 56.2988C27.3055 56.7247 28.7764 57.1689 30.2427 57.6317C31.7089 58.0946 33.1697 58.5767 34.6166 59.1111C34.7758 59.1696 34.9069 59.2862 34.9835 59.4374C35.0601 59.5887 35.0766 59.7633 35.0296 59.9263C34.9826 60.0892 34.8757 60.2282 34.7302 60.3154C34.5848 60.4026 34.4118 60.4315 34.2459 60.3962L34.2445 60.3959Z" fill="#FFE8B6"/>
<path d="M31.9362 74.3503C30.4867 74.5026 29.0342 74.6233 27.5817 74.7322C26.855 74.7866 26.1291 74.8411 25.4023 74.8874L24.3121 74.9597L23.2216 75.0246C22.4948 75.0679 21.7673 75.1111 21.0402 75.147C20.313 75.1828 19.5848 75.2111 18.8572 75.2403C18.1295 75.2694 17.401 75.2873 16.6724 75.2994C15.9439 75.3114 15.2152 75.3212 14.4849 75.3108C14.3266 75.3045 14.1764 75.2395 14.0635 75.1284C13.9506 75.0173 13.8831 74.8682 13.8742 74.71C13.8654 74.5519 13.9157 74.3961 14.0155 74.2731C14.1153 74.1501 14.2573 74.0686 14.4139 74.0447C15.1386 73.9539 15.8637 73.8822 16.5899 73.8145C17.3162 73.7468 18.0414 73.6892 18.7649 73.6325C19.4884 73.5759 20.2178 73.5281 20.9446 73.4848C21.6714 73.4415 22.3982 73.407 23.1261 73.3683L24.2164 73.3129L25.3078 73.2651C26.036 73.231 26.7635 73.2055 27.4913 73.1786C28.9479 73.1301 30.4039 73.0896 31.8626 73.0828C32.0219 73.0875 32.1736 73.1519 32.2877 73.2631C32.4018 73.3743 32.4701 73.5244 32.4789 73.6835C32.4877 73.8426 32.4365 73.9993 32.3354 74.1224C32.2343 74.2456 32.0907 74.3264 31.9329 74.3487L31.9362 74.3503Z" fill="#FFE8B6"/>
<path d="M42.7297 112.428C42.3116 113.2 41.8562 113.945 41.3882 114.681C40.9202 115.418 40.4362 116.142 39.9369 116.857C39.4376 117.571 38.9291 118.279 38.3949 118.969C37.8607 119.658 37.311 120.337 36.7099 120.98C36.6152 121.081 36.4872 121.144 36.3496 121.159C36.2119 121.173 36.0738 121.137 35.9606 121.057C35.8474 120.977 35.7668 120.86 35.7335 120.725C35.7003 120.591 35.7167 120.449 35.7797 120.326C36.1824 119.545 36.6364 118.797 37.1051 118.061C37.5738 117.324 38.0665 116.607 38.5727 115.896C39.0789 115.186 39.596 114.486 40.1309 113.796C40.6658 113.106 41.2142 112.427 41.7996 111.774C41.8906 111.662 42.0207 111.588 42.1637 111.568C42.3067 111.549 42.4518 111.584 42.5699 111.667C42.688 111.75 42.7701 111.875 42.7998 112.016C42.8294 112.157 42.8044 112.304 42.7297 112.428Z" fill="#FFE8B6"/>
<path d="M29.4591 90.3647C28.3507 90.7659 27.2323 91.1308 26.1096 91.4894L25.268 91.7545L24.4217 92.0118C23.8596 92.1866 23.2946 92.3496 22.7301 92.5164C21.6016 92.8501 20.4683 93.1667 19.3302 93.4663L18.4755 93.6869L17.615 93.8981C17.0425 94.035 16.4696 94.1711 15.8902 94.2886C15.7416 94.3184 15.5873 94.2913 15.4577 94.2126C15.3282 94.1339 15.233 94.0094 15.191 93.8638C15.149 93.7182 15.1632 93.5621 15.2308 93.4265C15.2985 93.2909 15.4146 93.1857 15.5562 93.1317C16.1079 92.922 16.6651 92.7314 17.2223 92.5407L18.0607 92.2623L18.9013 91.9926C20.0242 91.6399 21.1515 91.3021 22.2831 90.9795C22.8488 90.8196 23.414 90.6559 23.9823 90.5032L24.8336 90.27L25.6879 90.0426C26.8269 89.7452 27.9687 89.4574 29.1208 89.2045C29.2709 89.1702 29.4284 89.1947 29.561 89.2728C29.6936 89.351 29.7913 89.4769 29.8341 89.6248C29.8768 89.7726 29.8613 89.9313 29.7908 90.0681C29.7203 90.205 29.6002 90.3097 29.455 90.3607L29.4591 90.3647Z" fill="#FFE8B6"/>
<path d="M88.2428 121.711C88.588 122.356 88.8989 123.013 89.1976 123.676C89.4963 124.339 89.7789 125.007 90.0509 125.68C90.3228 126.353 90.5892 127.028 90.8172 127.718C90.9324 128.062 91.0379 128.41 91.1337 128.762C91.2287 129.114 91.3151 129.468 91.3755 129.835C91.3964 129.966 91.3718 130.1 91.3057 130.215C91.2397 130.33 91.1363 130.419 91.0126 130.467C90.889 130.515 90.7527 130.519 90.6264 130.479C90.5001 130.439 90.3914 130.356 90.3185 130.246C90.1181 129.933 89.9434 129.612 89.777 129.287C89.6107 128.962 89.4562 128.634 89.3101 128.301C89.0154 127.64 88.7642 126.958 88.5104 126.277C88.2566 125.596 88.0218 124.906 87.7962 124.219C87.5706 123.531 87.3619 122.831 87.185 122.122C87.1422 121.984 87.1535 121.834 87.2165 121.704C87.2795 121.574 87.3895 121.473 87.5244 121.421C87.6592 121.369 87.8087 121.37 87.9428 121.424C88.0768 121.478 88.1853 121.581 88.2462 121.712L88.2428 121.711Z" fill="#FFE8B6"/>
<path d="M111.774 35.1536C112.193 34.7164 112.626 34.294 113.059 33.8719L113.713 33.2435L114.372 32.6223C115.256 31.7987 116.151 30.9872 117.057 30.1877C117.511 29.7869 117.962 29.3853 118.42 28.9937L119.105 28.4011L119.797 27.8143C120.719 27.0341 121.653 26.2625 122.603 25.5171C122.737 25.4133 122.906 25.3642 123.075 25.3799C123.244 25.3956 123.401 25.4748 123.514 25.6016C123.627 25.7284 123.688 25.8933 123.684 26.063C123.68 26.2328 123.611 26.3947 123.493 26.5161C122.642 27.3774 121.767 28.2113 120.881 29.0366L120.219 29.6542L119.552 30.2668C119.108 30.6767 118.656 31.078 118.207 31.4822C117.309 32.289 116.399 33.0836 115.477 33.8661L114.783 34.4492L114.084 35.0258C113.614 35.4065 113.144 35.787 112.661 36.1527C112.527 36.2545 112.359 36.3019 112.191 36.2854C112.023 36.2689 111.867 36.1897 111.755 36.0636C111.643 35.9375 111.582 35.7738 111.585 35.605C111.588 35.4363 111.655 35.2749 111.772 35.153L111.774 35.1536Z" fill="#FFE8B6"/>
<path d="M116.984 68.2851C118.123 68.2021 119.262 68.153 120.404 68.1185C121.546 68.084 122.682 68.0651 123.821 68.0557C124.39 68.0508 124.96 68.055 125.529 68.0546L126.381 68.0602C126.666 68.0644 126.951 68.0665 127.235 68.075C128.375 68.0988 129.514 68.1386 130.651 68.2195C130.803 68.2301 130.945 68.2978 131.049 68.4089C131.153 68.52 131.211 68.6663 131.212 68.8186C131.213 68.9708 131.156 69.1177 131.053 69.2299C130.95 69.342 130.808 69.411 130.657 69.4231C129.518 69.5156 128.379 69.5655 127.24 69.5985C126.955 69.609 126.671 69.6142 126.386 69.6204L125.532 69.6377C124.962 69.6424 124.392 69.653 123.823 69.6519C122.684 69.6533 121.547 69.6479 120.406 69.6207C119.264 69.5935 118.127 69.5588 116.988 69.4846C116.841 69.4685 116.704 69.3986 116.605 69.2883C116.506 69.178 116.451 69.035 116.45 68.8866C116.45 68.7382 116.504 68.5948 116.602 68.4839C116.701 68.3729 116.837 68.3021 116.984 68.2851Z" fill="#FFE8B6"/>
<path d="M116.863 52.0502C117.845 51.5338 118.842 51.0519 119.845 50.5817C120.847 50.1114 121.856 49.6562 122.87 49.207C123.375 48.9822 123.885 48.768 124.393 48.5482L125.16 48.2254C125.416 48.1198 125.67 48.0122 125.928 47.9105C126.953 47.4938 127.986 47.0921 129.035 46.7281C129.182 46.6642 129.349 46.6616 129.499 46.7207C129.648 46.7798 129.768 46.8959 129.832 47.0434C129.896 47.1909 129.898 47.3577 129.839 47.5072C129.78 47.6567 129.664 47.7765 129.516 47.8404C128.536 48.3632 127.541 48.8476 126.538 49.317C126.288 49.436 126.039 49.5508 125.784 49.6657L125.029 50.0104C124.523 50.2335 124.019 50.4625 123.511 50.6808C122.495 51.1205 121.476 51.5536 120.449 51.967C119.422 52.3804 118.392 52.7864 117.346 53.1568C117.199 53.2207 117.033 53.2238 116.884 53.1653C116.735 53.1067 116.615 52.9914 116.551 52.8447C116.487 52.6979 116.484 52.5318 116.543 52.3828C116.601 52.2338 116.716 52.1141 116.863 52.0502Z" fill="#FFE8B6"/>
<path d="M113.355 82.6182C114.757 83.021 116.149 83.4543 117.537 83.8991C118.23 84.1212 118.923 84.3465 119.616 84.5751C120.306 84.8069 120.999 85.0327 121.688 85.2693C123.068 85.7371 124.446 86.2104 125.82 86.6985C127.193 87.1866 128.566 87.6775 129.924 88.2002C130.087 88.2611 130.219 88.3826 130.293 88.539C130.368 88.6954 130.379 88.8746 130.324 89.0389C130.269 89.2032 130.152 89.3398 129.998 89.4198C129.845 89.4999 129.666 89.5173 129.5 89.4683C128.098 89.0642 126.706 88.6337 125.316 88.1957C123.926 87.7577 122.54 87.306 121.156 86.8492C120.464 86.6234 119.774 86.3868 119.083 86.1555C118.392 85.9242 117.704 85.6843 117.017 85.4444C115.641 84.9637 114.268 84.4721 112.906 83.9494C112.735 83.8861 112.596 83.7586 112.517 83.5941C112.438 83.4295 112.426 83.2407 112.484 83.0676C112.542 82.8945 112.665 82.7508 112.827 82.6668C112.989 82.5828 113.177 82.5651 113.352 82.6175L113.355 82.6182Z" fill="#FFE8B6"/>
<path d="M101.382 112.699C102.189 113.708 102.965 114.733 103.73 115.769C104.115 116.286 104.489 116.809 104.868 117.33C105.247 117.85 105.614 118.378 105.988 118.902L107.09 120.488L107.635 121.284L107.903 121.682L108.17 122.084C108.886 123.154 109.59 124.232 110.262 125.333C110.341 125.464 110.368 125.62 110.337 125.77C110.305 125.92 110.218 126.052 110.093 126.14C109.968 126.228 109.814 126.265 109.663 126.244C109.511 126.223 109.373 126.145 109.277 126.026C108.468 125.022 107.691 123.994 106.927 122.958L106.64 122.569L106.356 122.178L105.789 121.397L104.671 119.823C104.305 119.291 103.934 118.767 103.569 118.236C103.205 117.705 102.842 117.174 102.486 116.638C101.77 115.567 101.065 114.49 100.392 113.389C100.313 113.258 100.286 113.102 100.317 112.952C100.349 112.803 100.436 112.67 100.561 112.582C100.686 112.494 100.84 112.457 100.992 112.478C101.143 112.5 101.281 112.578 101.377 112.696L101.382 112.699Z" fill="#FFE8B6"/>
<path d="M72.8711 120.837C72.9275 121.814 72.9386 122.791 72.9331 123.766C72.9276 124.741 72.9045 125.717 72.864 126.691C72.8234 127.666 72.7707 128.639 72.6937 129.613C72.6167 130.586 72.5283 131.559 72.3902 132.529C72.3749 132.673 72.3059 132.805 72.197 132.899C72.0882 132.994 71.9476 133.043 71.8035 133.038C71.6595 133.033 71.5227 132.974 71.4207 132.872C71.3187 132.77 71.2591 132.634 71.2539 132.49C71.1845 131.511 71.1617 130.535 71.1564 129.558C71.1512 128.581 71.1631 127.607 71.1933 126.63C71.2235 125.653 71.2663 124.681 71.335 123.708C71.4037 122.735 71.478 121.761 71.6027 120.79C71.6293 120.638 71.7102 120.5 71.8304 120.403C71.9506 120.305 72.1021 120.254 72.2569 120.26C72.4116 120.265 72.5592 120.326 72.6723 120.432C72.7855 120.538 72.8565 120.681 72.8723 120.835L72.8711 120.837Z" fill="#FFE8B6"/>
<path d="M110.4 98.721C111.273 99.2781 112.123 99.8662 112.965 100.463C113.387 100.759 113.802 101.066 114.22 101.369C114.638 101.672 115.048 101.985 115.458 102.293L116.687 103.234L117.296 103.713L117.603 103.952L117.904 104.195C118.71 104.841 119.507 105.498 120.28 106.188C120.393 106.289 120.464 106.429 120.479 106.58C120.493 106.731 120.451 106.882 120.359 107.003C120.268 107.125 120.134 107.207 119.985 107.234C119.835 107.261 119.681 107.23 119.553 107.149C118.679 106.593 117.829 106.005 116.989 105.407L116.673 105.182L116.362 104.957L115.735 104.501L114.497 103.576C114.088 103.262 113.677 102.95 113.27 102.633C112.863 102.316 112.456 101.999 112.056 101.669C111.251 101.023 110.453 100.366 109.679 99.6807C109.566 99.5796 109.496 99.4398 109.481 99.289C109.467 99.1382 109.509 98.9874 109.6 98.8666C109.692 98.7457 109.825 98.6636 109.974 98.6364C110.123 98.6092 110.277 98.6391 110.405 98.72L110.4 98.721Z" fill="#FFE8B6"/>
<path d="M57.9022 117.463C57.6299 118.434 57.3263 119.394 57.0136 120.35C56.7009 121.306 56.3729 122.258 56.0391 123.207L55.5283 124.627C55.3509 125.097 55.1803 125.568 54.998 126.037C54.639 126.975 54.2675 127.911 53.8628 128.838C53.8018 128.978 53.6899 129.09 53.5498 129.15C53.4096 129.211 53.2516 129.217 53.1077 129.165C52.9637 129.114 52.8445 129.011 52.774 128.875C52.7036 128.739 52.6872 128.582 52.7282 128.435C52.9979 127.463 53.3001 126.502 53.6135 125.547C53.7676 125.067 53.9332 124.593 54.0927 124.115L54.5948 122.692C54.9338 121.748 55.2787 120.799 55.6407 119.861C56.0026 118.922 56.3705 117.987 56.7717 117.059C56.8328 116.919 56.9446 116.807 57.0848 116.746C57.2249 116.685 57.3829 116.68 57.5269 116.731C57.6709 116.782 57.7901 116.886 57.8605 117.022C57.9309 117.157 57.9473 117.314 57.9063 117.462L57.9022 117.463Z" fill="#FFE8B6"/>
<path d="M31.6591 104.183C30.9274 104.808 30.1777 105.411 29.4182 106.003C28.6588 106.595 27.8934 107.176 27.1227 107.751L25.9601 108.605C25.5676 108.883 25.1796 109.166 24.7843 109.441C23.9972 109.993 23.2029 110.537 22.3878 111.052C22.259 111.134 22.1037 111.165 21.9532 111.137C21.8027 111.109 21.6684 111.026 21.5773 110.903C21.4862 110.78 21.4453 110.627 21.4626 110.475C21.48 110.323 21.5545 110.183 21.671 110.084C22.4015 109.455 23.1532 108.853 23.9105 108.261C24.2874 107.963 24.6723 107.674 25.0525 107.38L26.2081 106.517C26.9825 105.947 27.7598 105.381 28.5487 104.829C29.3377 104.278 30.1301 103.733 30.943 103.216C31.0717 103.139 31.2246 103.112 31.3717 103.142C31.5189 103.171 31.6498 103.254 31.7389 103.375C31.828 103.496 31.8689 103.645 31.8537 103.795C31.8384 103.944 31.7681 104.082 31.6564 104.183L31.6591 104.183Z" fill="#FFE8B6"/>
</svg>
