<svg width="59" height="58" viewBox="0 0 59 58" fill="none" xmlns="http://www.w3.org/2000/svg">
<path d="M11.3067 0.223145C5.528 0.223145 0.875 4.87614 0.875 10.6548V46.922C0.875 52.7007 5.528 57.3537 11.3067 57.3537H30.9632V35.0192H25.0574V26.9781H30.9632V20.1082C30.9632 14.7107 34.4527 9.75502 42.4911 9.75502C45.7457 9.75502 48.1524 10.0675 48.1524 10.0675L47.9631 17.5766C47.9631 17.5766 45.5086 17.5534 42.8303 17.5534C39.9315 17.5534 39.4667 18.889 39.4667 21.1062V26.9781H48.1934L47.8132 35.0193H39.4667V57.3537H47.5739C53.3526 57.3537 58.0056 52.7007 58.0056 46.9221V10.6549C58.0056 4.87619 53.3526 0.223202 47.5739 0.223202H11.3066L11.3067 0.223145Z" fill="#961BA9"/>
</svg>
