<svg width="284" height="53" viewBox="0 0 284 53" fill="none" xmlns="http://www.w3.org/2000/svg">
<path d="M40.3063 22.2635C33.1819 22.2635 26.0682 22.2635 18.9439 22.2635C17.6293 22.2635 17.184 21.8925 17.2688 20.5885C17.4596 17.2807 17.131 13.8776 17.7989 10.6865C18.5322 7.66046 20.2596 4.96797 22.7045 3.04007C25.1495 1.11217 28.1706 0.0603516 31.2842 0.0530084C45.8297 0 60.3752 0 74.9208 0C75.8537 0 76.246 0.233237 76.2036 1.2404C76.0657 3.98623 76.2884 6.78508 75.8855 9.49911C74.8253 16.9203 69.5245 21.7759 61.9231 22.1363C56.9191 22.3696 51.9045 22.2211 46.9005 22.2423H40.3063V22.2635Z" fill="white"/>
<path d="M23.3433 26.9296H43.8363C47.1546 26.9296 46.7306 26.601 46.6776 29.7179C46.7902 32.4289 46.6125 35.1443 46.1475 37.8175C44.5466 44.5284 38.8747 48.9281 31.8246 49.0871C26.2057 49.2038 20.5868 49.2144 14.9785 49.0871C11.0259 49.0928 7.23222 47.5317 4.42839 44.7457C1.62455 41.9598 0.0391827 38.1761 0.01955 34.2236C-0.0440601 32.2835 0.0725584 30.3328 0.01955 28.3927C0.01955 27.2795 0.305795 26.8978 1.47198 26.9084C8.76594 26.9084 16.0705 26.9084 23.3645 26.9084L23.3433 26.9296Z" fill="white"/>
<path d="M118.896 12.7221C120.53 12.6596 122.154 13.0019 123.624 13.7187C124.836 14.3451 125.86 15.2815 126.593 16.4327C127.347 17.6691 127.865 19.0353 128.119 20.4613C128.416 22.102 128.561 23.7663 128.554 25.4335V41.7919H125.034V25.4441C125.032 24.343 124.939 23.2438 124.759 22.1576C124.6 21.1244 124.27 20.1248 123.783 19.1997C123.32 18.3477 122.659 17.6202 121.854 17.0794C120.92 16.5018 119.834 16.2174 118.737 16.2631C117.687 16.2465 116.642 16.4005 115.641 16.7189C114.788 16.9815 113.985 17.3866 113.266 17.9169C112.631 18.3798 112.097 18.9679 111.697 19.645C111.315 20.2904 111.09 21.0168 111.04 21.7653V41.9085H107.52V24.9882C107.52 24.6808 107.52 24.2461 107.457 23.6948C107.397 23.084 107.294 22.4782 107.149 21.882C106.994 21.2043 106.781 20.5411 106.513 19.8994C106.247 19.2479 105.89 18.6375 105.453 18.0865C105.001 17.539 104.446 17.0852 103.82 16.7507C103.107 16.392 102.318 16.2136 101.52 16.2313C100.231 16.1961 98.9465 16.4047 97.7349 16.8462C96.836 17.1897 96.0064 17.6925 95.2859 18.3304C94.7058 18.8275 94.2424 19.4465 93.9289 20.1433C93.6936 20.6313 93.5567 21.1608 93.526 21.7017V41.8449H90.0381V13.2204H93.0702C93.2181 13.3843 93.3333 13.575 93.4094 13.7823C93.4875 14.0255 93.5268 14.2795 93.526 14.535V16.9628C93.7316 16.4983 94.0188 16.0746 94.3742 15.7118C94.8812 15.1745 95.4548 14.7042 96.081 14.3123C96.8424 13.8322 97.6618 13.4511 98.5194 13.178C99.5241 12.8621 100.573 12.7083 101.626 12.7221C102.677 12.7058 103.723 12.8819 104.711 13.2416C105.548 13.5594 106.329 14.0105 107.022 14.5774C107.641 15.1067 108.174 15.729 108.602 16.4221C108.991 17.0667 109.297 17.7577 109.513 18.4788C109.997 17.4932 110.61 16.5768 111.337 15.7542C111.952 15.0589 112.666 14.4586 113.457 13.9731C114.235 13.5165 115.079 13.1839 115.959 12.9871C116.88 12.7974 117.818 12.7086 118.758 12.7221H118.896Z" fill="white"/>
<path d="M131.746 12.9337H133.273C133.945 12.9363 134.604 13.1194 135.181 13.4637C135.757 13.7839 136.194 14.3046 136.411 14.9268L144.977 34.5611C145.112 34.9062 145.222 35.2605 145.306 35.6213C145.369 35.9076 145.411 36.1982 145.433 36.4906C145.454 36.7623 145.454 37.0352 145.433 37.3069L155.229 14.948C155.498 14.342 155.941 13.8293 156.501 13.4744C157.058 13.1172 157.706 12.9294 158.367 12.9337H159.925L143.662 50.0396C143.445 50.6742 143.019 51.2162 142.454 51.5768C141.892 51.9509 141.231 52.1468 140.556 52.1387H138.976L143.938 40.9009L131.746 12.9337Z" fill="white"/>
<path d="M180.788 7.83566C180.364 7.53881 180.004 7.27377 179.728 7.01933C179.398 6.76539 179.042 6.54519 178.668 6.36202C178.273 6.168 177.857 6.02206 177.428 5.92735C176.839 5.79996 176.238 5.74302 175.636 5.75773C174.612 5.75531 173.596 5.93479 172.636 6.28781C171.733 6.62586 170.891 7.10932 170.144 7.71904C169.441 8.30609 168.861 9.02676 168.437 9.83937C168.026 10.6205 167.811 11.4903 167.812 12.3732C167.783 13.2279 167.916 14.0804 168.204 14.8858C168.493 15.5673 168.953 16.1626 169.54 16.6139C170.3 17.1935 171.134 17.6678 172.021 18.0239C173.081 18.4479 174.311 18.925 175.816 19.4551L178.053 20.2714C178.753 20.5259 179.4 20.7909 180.025 21.056C180.616 21.3067 181.193 21.5898 181.753 21.9041C182.294 22.2147 182.808 22.5693 183.29 22.9643C184.515 23.8823 185.45 25.1337 185.983 26.5688C186.515 28.0657 186.777 29.6451 186.757 31.2336C186.781 32.8245 186.437 34.3994 185.75 35.8347C185.09 37.1445 184.162 38.3005 183.025 39.2272C181.834 40.2098 180.467 40.958 178.997 41.4324C177.416 41.9481 175.762 42.2059 174.099 42.1957C170.968 42.297 167.911 41.24 165.511 39.2272C164.923 38.6974 164.381 38.1194 163.889 37.4992C163.504 36.9988 163.149 36.4747 162.829 35.9301L163.243 35.6863C163.758 35.3612 164.351 35.1816 164.96 35.1668C165.383 35.1636 165.804 35.2208 166.211 35.3364C166.61 35.4657 166.974 35.6873 167.271 35.9831C167.893 36.5774 168.571 37.11 169.296 37.5734C169.835 37.9105 170.412 38.1845 171.014 38.3897C171.517 38.5624 172.041 38.6693 172.572 38.7078C173.07 38.7078 173.632 38.7714 174.109 38.7926C175.217 38.8265 176.324 38.7016 177.396 38.4215C178.466 38.1565 179.476 37.6926 180.375 37.0539C181.246 36.422 181.97 35.608 182.495 34.6685C183.073 33.6099 183.362 32.418 183.333 31.2124C183.382 29.9805 183.157 28.7531 182.675 27.6184C182.265 26.7464 181.641 25.9917 180.863 25.4239C180.027 24.8084 179.105 24.3191 178.127 23.9714C177.067 23.5898 175.933 23.1763 174.724 22.6992C173.176 22.0843 171.763 21.5118 170.484 20.9817C169.321 20.4992 168.23 19.8608 167.239 19.084C166.336 18.3732 165.61 17.4623 165.119 16.423C164.573 15.1301 164.316 13.7334 164.366 12.3308C164.36 10.8811 164.725 9.45395 165.427 8.18551C166.078 6.9671 166.96 5.88692 168.024 5.00501C169.1 4.12275 170.319 3.43076 171.628 2.95888C172.916 2.48842 174.276 2.24451 175.647 2.23797C176.723 2.21873 177.797 2.36899 178.827 2.68324C179.693 2.98797 180.524 3.38238 181.308 3.86002C182.068 4.30738 182.778 4.83328 183.428 5.42907C184.054 6.01217 184.637 6.58466 185.156 7.14655L184.319 7.75084C184.09 7.92087 183.836 8.0533 183.566 8.1431C183.225 8.25642 182.865 8.30671 182.506 8.29153C181.902 8.30583 181.306 8.1477 180.788 7.83566Z" fill="white"/>
<path d="M197.836 35.1326C197.839 35.5947 197.918 36.053 198.069 36.4896C198.217 36.9458 198.443 37.3727 198.737 37.7512C199.023 38.1311 199.384 38.4485 199.797 38.6842C200.258 38.9249 200.772 39.0452 201.292 39.034L202.129 38.928C202.759 38.7328 203.411 38.6223 204.07 38.5994C204.615 38.5917 205.147 38.763 205.586 39.0871C206.03 39.4278 206.423 39.8314 206.752 40.285L206.826 40.4017C206.411 40.6726 205.975 40.9101 205.522 41.112C205.024 41.324 204.525 41.5148 204.006 41.6845C203.504 41.8424 202.995 41.9734 202.479 42.0767C201.077 42.3642 199.621 42.2352 198.292 41.7057C197.484 41.3911 196.754 40.9067 196.15 40.285C195.544 39.6342 195.079 38.8655 194.783 38.0269C194.456 37.1083 194.295 36.1392 194.305 35.1644V16.3676H189.132V14.3533C189.132 13.5158 190.245 13.0917 192.482 13.0917H194.305V6.6353C194.284 5.93947 194.392 5.24574 194.624 4.58917C194.775 4.16385 194.963 3.7524 195.185 3.35938H197.804V13.1235H206.391V16.3676H197.804L197.836 35.1326Z" fill="white"/>
<path d="M211.502 17.3229C211.757 17.0154 212.022 16.708 212.319 16.4005C212.615 16.0931 212.849 15.8811 213.167 15.6054C213.462 15.3402 213.782 15.1024 214.121 14.8951C215.222 14.2427 216.392 13.7129 217.609 13.3155C218.981 12.8894 220.413 12.6854 221.849 12.7112C223.18 12.6877 224.504 12.8994 225.761 13.3367C226.82 13.7238 227.801 14.2984 228.656 15.0329C229.465 15.7475 230.143 16.5978 230.659 17.5455C231.195 18.5256 231.614 19.5644 231.91 20.6412C232.222 21.7558 232.442 22.8939 232.568 24.0444C232.694 25.1921 232.757 26.3459 232.759 27.5005V41.7916H229.811C229.668 41.5804 229.544 41.3568 229.44 41.1237C229.29 40.7465 229.222 40.3418 229.239 39.9363V38.5687C228.455 39.2314 227.602 39.8073 226.694 40.2861C225.851 40.7288 224.976 41.1079 224.076 41.4205C223.24 41.6972 222.382 41.8994 221.51 42.0248C220.735 42.1437 219.952 42.2039 219.167 42.205H218.786C217.586 42.181 216.398 41.9663 215.266 41.5689C214.192 41.1997 213.193 40.6394 212.319 39.9151C211.468 39.2163 210.774 38.3457 210.283 37.3601C209.771 36.3222 209.513 35.1776 209.53 34.0205C209.511 32.7599 209.783 31.5118 210.325 30.3736C210.871 29.2479 211.696 28.2807 212.721 27.5641C213.955 26.7301 215.331 26.13 216.782 25.7936C218.67 25.3427 220.608 25.1326 222.549 25.1681C223.196 25.1681 223.896 25.1681 224.669 25.2423L226.737 25.4332C227.373 25.5074 227.924 25.5816 228.401 25.6558L229.302 25.7936C229.198 24.1491 228.884 22.5247 228.369 20.9593C227.996 19.8766 227.413 18.8785 226.652 18.0226C226.035 17.3425 225.254 16.8316 224.383 16.5384C222.607 16.0012 220.711 16.0012 218.934 16.5384C218.076 16.8379 217.257 17.2402 216.496 17.7364L215.594 18.2982C215.208 18.5065 214.772 18.6055 214.333 18.5845C213.534 18.5626 212.766 18.2754 212.149 17.7682L211.502 17.3229ZM218.754 38.7065C219.565 38.7032 220.375 38.6215 221.171 38.4626C222.071 38.2901 222.959 38.0635 223.832 37.7841C224.733 37.4873 225.655 37.1374 226.567 36.724C227.479 36.3105 228.38 35.8652 229.26 35.367V29.1332L228.412 29.0271C227.956 28.9741 227.352 28.9211 226.769 28.8893L224.712 28.7833C223.98 28.7833 223.27 28.7833 222.592 28.7833C221.308 28.7764 220.025 28.8615 218.754 29.0378C217.709 29.1757 216.691 29.4687 215.732 29.9071C214.936 30.2722 214.249 30.8386 213.739 31.5504C213.238 32.3021 212.986 33.1921 213.018 34.0948C213.012 34.7311 213.158 35.3597 213.442 35.9288C213.729 36.5019 214.134 37.0077 214.63 37.4131C215.166 37.8561 215.781 38.1941 216.443 38.4096C217.192 38.6331 217.972 38.7333 218.754 38.7065Z" fill="white"/>
<path d="M236.184 37.7516L237.562 37.0625C237.912 36.8805 238.302 36.7893 238.696 36.7974C239.017 36.8024 239.336 36.8379 239.65 36.9035C240.092 37.033 240.508 37.2374 240.88 37.5077C241.425 37.8888 242.026 38.1821 242.661 38.3771C243.31 38.5806 243.985 38.6843 244.665 38.6845C245.422 38.6837 246.175 38.5766 246.902 38.3665C247.632 38.1642 248.324 37.8417 248.948 37.4123C249.565 36.9921 250.082 36.4421 250.464 35.8009C250.872 35.102 251.091 34.3093 251.1 33.5003C251.073 32.9688 250.969 32.444 250.793 31.9419C250.596 31.4381 250.288 30.9852 249.892 30.6166C249.371 30.1456 248.79 29.7463 248.164 29.4293C247.262 28.9778 246.33 28.5882 245.375 28.2631L244.803 28.0722C243.859 27.7436 242.926 27.3937 241.993 27.0121C241.091 26.6506 240.244 26.1615 239.481 25.5596C238.723 24.9525 238.105 24.1896 237.668 23.3227C237.176 22.2652 236.939 21.1066 236.979 19.9408C236.955 18.9086 237.204 17.8885 237.7 16.9829C238.179 16.1401 238.833 15.4099 239.619 14.8413C240.405 14.2447 241.287 13.7859 242.227 13.4843C243.154 13.1855 244.116 13.0108 245.089 12.9648H245.343C246.235 12.9951 247.116 13.1705 247.951 13.4843C248.693 13.7641 249.403 14.1194 250.072 14.5445C250.651 14.9482 251.194 15.4023 251.694 15.9015C252.16 16.3574 252.531 16.7284 252.828 17.0359L252.309 17.4706C252.017 17.7238 251.701 17.9476 251.365 18.1385C251.043 18.3253 250.677 18.4241 250.305 18.4247C250.071 18.4136 249.841 18.3597 249.627 18.2657C249.398 18.169 249.175 18.0593 248.959 17.937L248.259 17.5342C248.022 17.3839 247.778 17.2459 247.527 17.1207C247.101 16.8858 246.639 16.7211 246.16 16.633C245.81 16.5658 245.456 16.5268 245.1 16.5164C244.372 16.5156 243.651 16.6597 242.979 16.9405C242.452 17.1705 241.967 17.4897 241.548 17.884C241.189 18.1871 240.894 18.5582 240.679 18.976C240.536 19.29 240.453 19.628 240.435 19.9726C240.414 20.6372 240.579 21.2944 240.912 21.8703C241.239 22.3926 241.673 22.8404 242.184 23.1849C242.737 23.5688 243.335 23.8822 243.965 24.1178C244.63 24.3723 245.308 24.6161 246.001 24.8493L246.276 24.9341C247.317 25.2853 248.336 25.6959 249.33 26.1639C250.291 26.6082 251.186 27.1825 251.991 27.8708C252.76 28.5304 253.394 29.3334 253.857 30.235C254.349 31.2519 254.592 32.371 254.567 33.5003C254.571 34.6572 254.31 35.7997 253.804 36.8398C253.289 37.8947 252.568 38.8356 251.683 39.6069C250.75 40.4312 249.671 41.0747 248.503 41.5046C247.261 41.9775 245.941 42.2148 244.612 42.2043C242.947 42.2083 241.306 41.8081 239.831 41.0381C238.357 40.268 237.102 39.1374 236.184 37.7516Z" fill="white"/>
<path d="M262.996 2.65039C263.126 2.74548 263.237 2.86414 263.324 3.00025C263.429 3.15235 263.508 3.32071 263.557 3.49853C263.626 3.73615 263.658 3.98278 263.653 4.23004V17.5458C263.888 16.9967 264.214 16.4913 264.618 16.0509C265.18 15.433 265.83 14.9008 266.547 14.4713C267.446 13.927 268.411 13.5029 269.42 13.2097C270.666 12.8441 271.96 12.6689 273.258 12.6902C274.861 12.6483 276.454 12.9595 277.923 13.6019C279.198 14.1834 280.312 15.0678 281.167 16.1781C282.057 17.3634 282.708 18.7099 283.086 20.1432C283.517 21.8334 283.728 23.5724 283.711 25.3168V41.7918H280.223V25.3486C280.24 24.038 280.112 22.7296 279.842 21.4472C279.63 20.4245 279.216 19.4546 278.622 18.5953C278.085 17.8281 277.353 17.2172 276.502 16.8248C275.499 16.3865 274.416 16.1591 273.322 16.1569H273.014C271.682 16.1335 270.358 16.3638 269.113 16.8354C268.032 17.2336 267.023 17.8027 266.123 18.5211C265.395 19.1204 264.771 19.837 264.278 20.6415C263.897 21.2471 263.678 21.9408 263.642 22.6558V41.7388H260.154V2.65039H262.996Z" fill="white"/>
</svg>
