<svg width="66" height="66" viewBox="0 0 66 66" fill="none" xmlns="http://www.w3.org/2000/svg">
<path d="M32.9189 0.561035C24.158 0.561035 23.0661 0.603339 19.6375 0.748381C16.1948 0.917597 13.8661 1.45143 11.8113 2.24916C9.66076 3.06104 7.71318 4.33216 6.10429 5.97392C4.45795 7.57905 3.18612 9.52771 2.37953 11.6809C1.5818 13.7357 1.04797 16.0644 0.878752 19.5071C0.723638 22.9378 0.691406 24.0276 0.691406 32.7886C0.691406 41.5495 0.73371 42.6413 0.878752 46.07C1.04797 49.5026 1.5818 51.8414 2.37953 53.8962C3.19141 56.0467 4.46253 57.9943 6.10429 59.6032C7.70942 61.2495 9.65809 62.5214 11.8113 63.3279C13.8661 64.1156 16.2049 64.6595 19.6375 64.8287C23.0682 64.9838 24.158 65.0161 32.9189 65.0161C41.6799 65.0161 42.7717 64.9738 46.2003 64.8287C49.633 64.6595 51.9718 64.1136 54.0266 63.3279C56.1771 62.5161 58.1247 61.2449 59.7336 59.6032C61.382 57.9998 62.6542 56.0506 63.4583 53.8962C64.246 51.8414 64.7899 49.5026 64.9591 46.07C65.1142 42.6393 65.1464 41.5495 65.1464 32.7886C65.1464 24.0276 65.1041 22.9358 64.9591 19.5071C64.7899 16.0745 64.244 13.7236 63.4583 11.6809C62.6464 9.53039 61.3753 7.58281 59.7336 5.97392C58.1302 4.32546 56.181 3.0533 54.0266 2.24916C51.9718 1.45143 49.633 0.917597 46.2003 0.748381C42.7697 0.593267 41.6799 0.561035 32.9189 0.561035ZM32.9189 6.36271C41.5227 6.36271 42.5501 6.40502 45.9505 6.55006C49.0871 6.69712 50.7953 7.22088 51.9295 7.66406C53.3316 8.18163 54.6007 9.0054 55.6442 10.0754C56.7123 11.1145 57.533 12.3806 58.0454 13.78C58.4886 14.9141 59.0124 16.6224 59.1594 19.7589C59.3045 23.1594 59.3468 24.1888 59.3468 32.7906C59.3468 41.3924 59.3045 42.4218 59.1473 45.8222C58.9781 48.9587 58.4544 50.667 58.0132 51.8011C57.4028 53.314 56.7219 54.3716 55.5978 55.5158C54.5508 56.5791 53.2826 57.3989 51.8832 57.9171C50.7631 58.3603 49.0307 58.884 45.882 59.0311C42.4635 59.1761 41.4563 59.2184 32.8303 59.2184C24.2043 59.2184 23.1991 59.1761 19.7765 59.019C16.64 58.8498 14.9095 58.326 13.7754 57.8848C12.2444 57.2745 11.1949 56.5936 10.0708 55.4695C8.93664 54.3353 8.21546 53.2556 7.65946 51.7548C7.20822 50.6348 6.69252 48.9023 6.52532 45.7537C6.41049 42.3754 6.3561 41.3279 6.3561 32.7422C6.3561 24.1606 6.41049 23.111 6.52532 19.6905C6.69252 16.5418 7.20822 14.8134 7.65946 13.6893C8.21546 12.1563 8.93865 11.1088 10.0708 9.97466C11.1928 8.8526 12.2444 8.12739 13.7754 7.55931C14.9095 7.11814 16.5977 6.59438 19.7463 6.43725C23.1649 6.31437 24.1721 6.27005 32.786 6.27005L32.9189 6.36271ZM32.9189 16.2477C30.746 16.2469 28.5942 16.6743 26.5865 17.5055C24.5789 18.3367 22.7547 19.5553 21.2182 21.0918C19.6817 22.6283 18.463 24.4525 17.6319 26.4602C16.8007 28.4679 16.3733 30.6197 16.3741 32.7926C16.3733 34.9655 16.8007 37.1173 17.6319 39.125C18.463 41.1326 19.6817 42.9568 21.2182 44.4933C22.7547 46.0298 24.5789 47.2485 26.5865 48.0796C28.5942 48.9108 30.746 49.3382 32.9189 49.3374C35.0919 49.3382 37.2436 48.9108 39.2513 48.0796C41.259 47.2485 43.0832 46.0298 44.6197 44.4933C46.1562 42.9568 47.3748 41.1326 48.206 39.125C49.0372 37.1173 49.4646 34.9655 49.4638 32.7926C49.4646 30.6197 49.0372 28.4679 48.206 26.4602C47.3748 24.4525 46.1562 22.6283 44.6197 21.0918C43.0832 19.5553 41.259 18.3367 39.2513 17.5055C37.2436 16.6743 35.0919 16.2469 32.9189 16.2477ZM32.9189 43.5358C26.9803 43.5358 22.1757 38.7312 22.1757 32.7926C22.1757 26.8539 26.9803 22.0494 32.9189 22.0494C38.8576 22.0494 43.6621 26.8539 43.6621 32.7926C43.6621 38.7312 38.8576 43.5358 32.9189 43.5358ZM53.9984 15.587C53.9973 16.6137 53.5887 17.598 52.8623 18.3236C52.1359 19.0492 51.1512 19.4568 50.1245 19.4568C49.6169 19.4568 49.1142 19.3568 48.6452 19.1625C48.1761 18.9682 47.75 18.6835 47.391 18.3245C47.032 17.9655 46.7473 17.5394 46.553 17.0704C46.3587 16.6014 46.2588 16.0987 46.2588 15.591C46.2588 15.0833 46.3587 14.5807 46.553 14.1116C46.7473 13.6426 47.032 13.2165 47.391 12.8575C47.75 12.4985 48.1761 12.2138 48.6452 12.0195C49.1142 11.8252 49.6169 11.7252 50.1245 11.7252C52.2538 11.7252 53.9984 13.4577 53.9984 15.587Z" fill="#961BA9"/>
</svg>
