<svg width="127" height="111" viewBox="0 0 127 111" fill="none" xmlns="http://www.w3.org/2000/svg">
<mask id="path-1-outside-1_276_3219" maskUnits="userSpaceOnUse" x="-0.102539" y="-0.376465" width="127" height="111" fill="black">
<rect fill="white" x="-0.102539" y="-0.376465" width="127" height="111"/>
<path d="M126.151 83.884C125.413 79.9954 125.704 78.2247 125.032 77.8213C122.47 76.3868 120.702 75.7929 120.669 75.0421C120.49 70.9966 121.564 70.7164 119.751 70.0104C114.638 68.0493 110.185 65.8416 110.162 65.3485C109.737 56.4842 109.58 46.6449 109.58 46.6449C108.909 37.8814 107.41 35.7186 109.401 34.5756C109.755 34.3737 110.053 34.0859 110.267 33.7387C110.481 33.3915 110.604 32.996 110.625 32.5886C110.646 32.1812 110.565 31.775 110.388 31.4075C110.211 31.0399 109.945 30.7227 109.614 30.4852C109.401 30.3395 108.82 29.9473 108.641 29.7904C108.204 29.4206 109.457 28.5465 109.927 28.1879C112.277 29.1404 112.311 28.8827 113.016 28.2551C113.418 27.8965 113.34 27.6275 112.926 27.437C103.438 23.044 81.7534 9.99972 66.5252 6.30159C54.9669 3.48876 44.1472 -0.142134 42.95 0.76559C28.2029 11.4566 7.97319 31.3817 8.71166 32.4911C9.63607 33.8119 10.4375 35.2149 11.1061 36.6823C11.8333 38.1952 10.804 57.3022 10.804 57.7953C10.804 67.5113 11.5537 69.3268 10.4459 69.7302C-0.429762 73.6301 1.12549 71.5905 0.912896 77.5748C0.912896 78.0679 0.700336 84.6124 1.8528 85.2287C1.8528 85.2287 10.8711 93.3983 27.1399 105.4C35.8449 111.81 30.3735 109.883 40.9919 106.599C54.6313 102.375 111.483 87.2123 125.502 84.7469C125.86 84.6684 126.286 84.6348 126.151 83.884ZM76.0134 52.0128C82.2345 52.3826 81.3618 58.8151 81.7646 71.4784C81.7646 72.375 80.7576 72.3413 77.0764 73.5964C76.1701 73.899 76.461 73.3611 75.9575 67.9932C74.626 52.405 74.7603 51.9344 76.0134 52.0128ZM75.9351 72.7111C76.0134 74.2352 73.1379 74.6162 70.9336 75.0869C70.1504 75.255 69.1881 75.3334 69.0091 74.4481C68.6734 72.7672 68.763 70.8845 68.1364 65.6174C67.7556 62.8003 68.0746 59.9327 69.0651 57.2687C70.956 52.7188 74.3015 51.7887 74.3687 52.7861C75.2078 65.3485 75.7449 68.4191 75.9351 72.7111ZM67.9126 58.6695C67.6661 59.8127 67.4831 60.9687 67.3643 62.1322C68.293 75.6472 68.4832 75.58 67.7559 75.7145C64.1531 76.6782 64.8244 77.1377 64.1083 69.0802C61.7139 41.8261 61.8705 49.6258 65.0929 45.2889C66.7937 43.0476 62.7321 41.7028 62.9447 40.9072C63.0006 40.7167 82.8163 36.0547 82.4583 36.6151C82.0331 37.2342 81.6872 37.9044 81.4289 38.6099C80.959 40.3132 82.0443 41.5124 83.7786 41.7925C84.8975 41.9606 84.3045 41.8934 84.8975 48.931C86.8556 73.9775 86.2066 70.5819 83.4989 71.5569C81.7198 72.2069 82.8163 69.0466 82.0331 57.9186C81.3394 48.6172 70.6091 48.2138 67.9126 58.6695ZM48.3655 83.3237C48.1864 81.8893 51.2298 85.3296 47.985 86.2374C44.7402 87.1451 36.4156 89.5993 35.5429 85.677C35.4645 85.3184 36.0463 83.9624 36.5163 84.1865C36.5946 84.1865 36.6505 84.2538 36.6393 84.2762C36.4044 85.4753 37.3555 85.3968 38.0604 85.7106C41.0926 86.8873 45.7137 85.0719 47.8619 84.4331C48.4102 84.3211 48.3766 83.8616 48.3207 83.3797L48.3655 83.3237ZM33.5848 64.9675C33.8645 47.1828 33.5848 49.0767 35.0058 48.1578C35.2743 47.9897 35.6659 48.225 35.4086 48.6732C35.0706 49.2285 34.8918 49.8664 34.8918 50.5167C34.8918 51.1671 35.0706 51.8049 35.4086 52.3602C35.7778 52.9878 37.6464 53.3352 37.6464 54.0412C37.4338 65.92 37.1317 72.812 36.9862 76.8351C36.7736 82.7185 36.7401 82.4384 36.3149 82.6177C33.182 83.9737 32.9582 83.7383 33.0253 83.1219C33.0813 75.5688 33.4729 69.6294 33.54 65.0235L33.5848 64.9675ZM32.8799 64.9675C32.6673 73.9327 32.4323 83.3797 31.9512 83.0323C18.4684 73.406 13.9145 71.2655 12.3481 69.6966C11.3411 68.688 11.4529 64.0261 11.5872 57.3022C11.6991 51.9007 11.6991 45.1769 11.9452 37.9263C12.0236 35.7522 26.4126 45.5803 32.8127 49.7267C33.2267 50.2982 33.003 57.5152 32.8351 65.0235L32.8799 64.9675ZM46.8996 73.4844C47.1346 83.4469 48.6563 83.8616 45.6689 84.5788C43.5465 85.2435 41.3039 85.4309 39.1009 85.1279C37.0198 84.7133 37.031 84.1754 37.7694 65.808C38.5303 47.0371 38.6534 56.0023 40.8576 51.3964C41.036 51.1169 41.3176 50.9195 41.6409 50.8473C44.6843 50.0628 43.9794 51.3404 45.6353 51.2507C46.2507 51.2507 46.3738 51.5309 46.3626 52.0464C46.3626 52.8196 46.3626 53.5929 46.3626 54.3661C46.3066 54.4222 46.8549 73.5292 46.8549 73.5404L46.8996 73.4844ZM44.4157 49.4353C44.4157 49.312 44.7738 48.9422 44.9864 48.875C46.3962 48.4603 46.8102 49.5473 46.8214 48.875C46.8326 48.2026 45.8479 47.7544 44.9416 48.0233C44.3181 48.2583 43.8119 48.7292 43.5318 49.3345C43.4197 49.5946 43.2403 49.82 43.0121 49.9875C42.7839 50.1549 42.5153 50.2583 42.2338 50.287C40.88 50.5447 41.115 49.5361 40.4324 49.1663C40.1447 48.9851 39.8144 48.8829 39.4748 48.87C39.1351 48.8572 38.7981 48.9341 38.4975 49.0931C38.197 49.2522 37.9435 49.4876 37.7627 49.7759C37.5818 50.0642 37.48 50.3951 37.4673 50.7353C37.4673 50.7913 37.6352 51.1947 37.7247 51.0266C38.1499 50.2422 39.4925 48.8414 40.1191 50.3991C40.1976 50.5993 40.2336 50.8136 40.2248 51.0285C40.2159 51.2434 40.1623 51.4541 40.0675 51.6471C39.9728 51.8401 39.8389 52.0111 39.6744 52.1493C39.5099 52.2876 39.3184 52.3899 39.1121 52.4498C36.024 53.3575 35.8673 50.8922 35.7554 50.3879C35.017 48.0121 44.6059 43.664 47.8395 47.2724C50.1445 49.962 45.1542 51.755 44.4157 49.4353ZM47.3584 65.6735C46.7766 47.5863 45.9598 53.3464 48.992 49.2448C50.469 47.2388 46.5864 45.7036 46.6535 45.1993C46.6535 45.0424 51.8452 43.3054 51.4088 44.0002C51.0844 44.4932 49.8536 45.6139 50.234 47.1716C50.6144 48.7293 51.9123 48.8862 53.0089 49.4129C53.1991 49.5138 53.4788 49.7491 53.4788 49.9284C53.5907 61.5831 53.3781 68.2734 54.2061 78.3816C54.2061 78.8747 54.027 78.8747 53.6354 78.9867C45.8255 81.1496 47.9178 84.0185 47.3248 65.6735H47.3584ZM60.8747 43.9665C58.9726 44.3699 60.2482 46.2079 58.2901 46.1294C57.5964 46.1294 56.6789 46.7346 55.5488 45.5579C54.0494 43.989 52.2928 46.5328 52.897 46.9587C53.0872 47.0932 53.4005 46.8914 53.5012 46.7345C54.0382 45.9053 54.4522 45.782 55.1236 46.3199C56.2425 47.194 54.7208 49.4353 52.5389 48.2698C51.8005 47.8776 50.9501 47.519 51.0172 46.4992C51.2522 42.7898 58.0775 42.0166 59.5545 41.7252C60.336 41.533 61.1548 41.5554 61.9247 41.7901C62.6947 42.0248 63.3872 42.4631 63.9293 43.0588C66.279 45.5018 61.7922 48.3034 60.2034 45.3001C60.2034 45.2104 60.4496 44.807 60.5838 44.807C61.0542 44.8274 61.5221 44.8874 61.9824 44.9863C63.2916 45.2329 62.0272 43.7088 60.8411 43.9665H60.8747ZM54.1614 81.7996C55.9068 85.352 64.6454 81.7099 65.3503 80.6229C66.0553 79.5359 66.7266 82.6177 64.8468 83.2565C57.5628 85.7331 53.1767 84.5451 53.2214 82.4271C53.1879 81.934 53.9375 81.2953 54.1725 81.7996H54.1614ZM63.8175 80.8583C61.657 81.9082 59.2814 82.4378 56.8803 82.4048C55.1012 82.4048 55.0677 81.7884 55.0677 80.0178C54.5642 80.0178 53.6802 52.7748 54.2732 49.5362C54.3403 49.1439 55.0788 48.9086 55.3026 48.494C56.6117 45.9725 61.7139 46.7234 61.7923 47.8664C64.2315 83.3237 64.9139 80.3428 63.8286 80.8583H63.8175ZM94.9117 72.543C90.9955 73.955 92.1144 73.9438 87.0794 73.6637C86.0723 73.6637 87.2136 68.6768 85.3115 45.3562C85.0541 42.1623 85.1213 41.8597 85.8374 41.3778C86.2215 41.1964 86.558 40.9276 86.8203 40.593C87.0825 40.2584 87.2631 39.8672 87.3479 39.4503C87.5717 37.9599 92.9424 38.6434 92.9424 39.6968C93.155 41.9381 93.2892 44.2915 93.4459 46.5889C92.9536 46.7009 96.1424 72.106 94.9229 72.5767L94.9117 72.543ZM91.7339 36.6823C92.1032 36.6151 92.7522 37.2315 93.0431 37.1306C93.7592 36.8728 92.9872 35.3824 91.9242 35.8643C89.9885 36.7047 90.4249 37.7133 89.1605 37.9599C87.3143 38.3073 87.2807 38.4642 86.7213 37.9599C86.47 37.701 86.1389 37.5348 85.7815 37.488C85.424 37.4412 85.0613 37.5166 84.752 37.7021C83.1072 38.509 83.7339 40.9968 84.9982 38.6659C85.3675 37.9935 87.3591 39.652 86.1171 40.5373C83.1968 42.7786 76.3155 37.4556 90.3353 34.5307C95.3368 33.4997 95.2697 37.5901 94.0613 38.1168C91.264 39.3047 90.0108 36.9177 91.7451 36.6375L91.7339 36.6823ZM85.815 73.4396C85.7143 74.3137 86.1507 74.6947 86.9339 74.7619C90.3577 75.0645 93.5242 74.8964 96.0417 72.6999C96.2431 72.5206 96.5676 72.4534 96.8026 72.8905C98.1788 75.524 85.9381 78.8075 84.4164 74.9861C83.8122 73.3611 85.9269 72.4534 85.815 73.3947V73.4396ZM93.6473 39.8986C93.6473 38.778 97.4515 37.1194 94.4081 34.0264C93.9046 33.5109 93.9606 33.6342 97.1607 32.7713C97.2099 32.7569 97.2624 32.7582 97.3108 32.7752C97.3592 32.7921 97.4012 32.8238 97.4307 32.8658C97.4603 32.9078 97.476 32.9579 97.4757 33.0093C97.4755 33.0607 97.4592 33.1107 97.4292 33.1523C96.6571 34.1721 96.4445 35.1134 97.0487 35.8867C99.8124 39.4279 99.4991 32.0989 99.9914 62.7822C100.081 68.7553 101.11 67.601 96.1201 69.0578C95.5606 69.2147 93.6473 40.358 93.6473 39.8538V39.8986ZM109.905 69.6294C109.904 69.7834 109.864 69.9347 109.79 70.0697C109.716 70.2047 109.609 70.3191 109.48 70.4026C107.622 71.0526 101.11 71.6913 101.043 70.1112C100.987 68.7104 100.92 66.5028 100.842 65.1132C100.763 63.7236 99.2529 38.128 100.54 37.5677C102.308 36.772 102.464 33.7351 105.731 34.8557C109.189 35.9988 107.813 33.0178 109.894 69.5845L109.905 69.6294ZM110.173 70.8172C110.666 70.6155 110.968 68.5759 111.382 70.1112C112.288 73.4732 104.769 73.843 101.211 73.2267C98.8838 72.8232 99.5327 70.2233 100.159 70.4811C100.786 70.7388 99.9131 71.7249 101.401 71.781C103.192 71.919 104.989 71.9452 106.783 71.8594C107.955 71.6601 109.093 71.2941 110.162 70.7724L110.173 70.8172ZM109.211 31.3929C109.452 31.5558 109.642 31.7829 109.76 32.0484C109.878 32.3139 109.92 32.6073 109.88 32.8953C109.841 33.1834 109.721 33.4546 109.536 33.6782C109.35 33.9019 109.106 34.069 108.831 34.1609C105.866 35.5617 105.799 32.6592 106.324 32.5808C106.85 32.5023 108.126 33.1747 108.081 32.4575C108.081 32.0317 106.962 31.6506 106.638 31.7178C106.129 31.8141 105.662 32.0646 105.299 32.4354C104.937 32.8061 104.697 33.2794 104.612 33.7911C102.14 34.8221 101.647 34.3626 101.256 33.8695C101.03 33.7187 100.77 33.6283 100.5 33.6067C100.23 33.5851 99.9582 33.6331 99.7117 33.7462C99.1187 34.116 98.3354 35.7522 98.7942 35.5393C99.0292 35.4272 99.3537 35.3487 99.4656 35.147C100.775 32.9618 102.442 36.9401 100.417 36.8841C97.3732 36.772 96.3774 33.354 100.081 32.0652C107.141 29.5774 106.862 29.9921 109.2 31.3481L109.211 31.3929ZM108.092 28.8154C90.4696 34.9341 55.1348 41.277 35.5205 47.4181C34.9946 47.5862 35.9792 46.5216 36.3149 46.107C36.6506 45.6923 37.0757 45.9613 37.4338 45.9276C38.1599 45.8264 38.8727 45.646 39.5597 45.3898C61.6691 38.5314 91.3424 32.5696 107.723 27.3249L109.289 27.9973C108.915 28.3075 108.501 28.5675 108.059 28.7705L108.092 28.8154ZM47.7724 34.5531C55.3474 27.5715 70.5308 15.0538 72.1532 13.1039C72.791 12.3307 72.9812 11.8936 73.5071 11.8936C74.7826 11.8936 77.9827 14.4935 94.1396 21.3631C100.663 24.1423 104.758 25.9577 107.387 27.112L42.5584 43.4959C39.2912 44.37 32.0407 49.0431 47.7724 34.5531ZM104.277 23.4811C108.652 25.7224 111.594 27.4594 111.359 27.6948C111.125 27.9301 108.081 26.7422 101.088 23.7949C88.7801 18.6063 82.0667 15.1884 78.296 13.216C75.689 11.8825 74.4806 11.0979 73.3281 11.3333C72.4733 11.5868 71.7135 12.0902 71.1462 12.779C68.4519 15.6102 65.6057 18.2925 62.6202 20.814C62.1167 21.2286 51.2186 30.1266 47.1011 34.2617C31.0785 50.1637 33.7414 49.0431 32.2533 48.0121C30.7651 46.9811 26.6588 49.1327 71.84 8.9015C72.7798 8.07222 93.1102 17.665 104.221 23.4811H104.277ZM43.3639 1.19144C44.0689 0.765595 61.188 5.78609 64.7126 6.58175C70.9225 7.98256 71.6497 8.24032 71.426 8.41963C63.2244 16.0064 56.6453 21.4863 51.8788 25.8345C36.0911 40.2011 36.4268 40.0555 31.8057 45.3898C30.9553 46.3647 32.2645 46.7346 9.83056 32.1101C8.04032 30.911 35.7666 5.74127 43.3639 1.19144ZM10.7257 33.4773C10.8823 33.3204 12.1131 34.1161 12.2921 34.2282C33.484 48.1578 35.8673 49.1663 12.2026 36.5591C11.7663 36.3237 10.4124 33.7911 10.7257 33.4773ZM10.8151 70.4586C12.3928 70.1673 31.94 84.1642 32.4323 84.4891C32.9246 84.8141 34.6701 83.7831 34.9387 84.0857C35.0124 84.1567 35.061 84.2497 35.0772 84.3508C35.0933 84.452 35.0761 84.5556 35.0281 84.646C34.5246 85.4977 34.3904 87.8063 37.3779 88.2881C41.1485 88.9157 53.5571 87.9855 49.3389 82.5168C49.0167 82.2742 48.6763 82.0569 48.3207 81.8668C47.7053 81.3625 54.3851 79.9281 53.9152 80.41C53.1094 81.0365 52.5795 81.9532 52.4382 82.9651C52.4382 87.3692 69.8595 85.8787 66.693 79.6927C66.1111 78.5721 64.5447 78.942 65.0146 77.5748C65.4174 76.4541 67.8231 77.0368 82.2681 72.6887C86.5087 71.4112 85.7814 72.0276 85.6248 72.05C83.5436 72.2965 82.8275 75.8378 84.6625 76.5326C86.7401 77.4385 89.062 77.6161 91.2528 77.0368C93.7703 76.342 99.3201 75.4792 97.362 71.7586C97.1495 71.3552 96.6012 71.1198 96.3438 70.7276C96.1872 70.5034 96.1983 69.8759 96.3438 69.8311C98.7383 68.8561 100.405 68.1949 100.17 69.0466C100.003 69.6742 98.2908 70.3466 98.9957 72.3077C99.1814 72.7851 99.5156 73.1898 99.9488 73.4623C100.382 73.7347 100.891 73.8604 101.401 73.8206C105.966 74.0111 106.201 74.5602 110.912 72.6999C111.404 72.5094 111.684 71.8034 112.12 71.3888C112.758 70.7836 112.825 70.9069 115.902 72.0948C119.337 73.4284 32.3763 92.5017 31.884 92.0983C13.8586 77.3618 7.21231 73.2827 7.21231 71.725C7.08923 71.0974 8.48785 70.9181 10.8487 70.4811L10.8151 70.4586ZM38.7876 100.458C38.4743 100.526 38.452 100.526 38.6982 100.458C37.7695 100.548 36.0687 99.1808 33.9428 97.8921C33.5736 97.6568 114.504 77.4739 114.884 77.3731C117.659 76.7455 119.684 77.4963 120.165 78.5945C120.747 79.9281 42.7374 99.3825 38.6982 100.458H38.7876ZM115.611 76.0506C111.46 76.9135 98.6823 80.7013 84.4164 84.2538C62.4076 89.7449 36.5611 95.8076 33.2379 96.7826C32.6785 96.9507 32.6897 97.0404 32.6113 94.2836C32.533 92.0423 64.9587 85.5426 67.9573 84.9262C94.1955 79.5695 116.193 72.3413 116.204 74.4481C116.227 74.8179 116.495 75.9386 115.622 76.0731L115.611 76.0506ZM31.6938 107.866C31.4365 107.787 26.7819 104.179 25.0476 102.957C24.5664 102.621 8.78993 91.2354 2.56885 84.6684C1.86394 83.94 1.9087 81.7771 1.87513 81.0936C1.87513 76.0843 1.76324 74.4594 2.0094 74.2128C2.25555 73.9663 2.23319 74.2128 2.44578 74.4258C18.0097 88.6019 24.2084 91.7733 26.2112 93.7793C26.575 94.085 26.8388 94.493 26.9684 94.9505C27.0981 95.4081 27.0877 95.8941 26.9385 96.3456C26.7386 97.2769 26.6933 98.2348 26.8042 99.1808C26.8042 99.6067 29.2434 101.153 32.3987 103.506C32.6897 103.731 32.3652 108.112 31.6714 107.888L31.6938 107.866ZM37.0757 107.339C34.5806 108.224 33.0589 108.785 33.1149 108.191C33.596 103.484 33.9988 103.775 32.6785 102.733C25.8196 97.3205 27.8784 100.245 28.2812 94.9448C28.3931 93.4767 -0.00458199 73.7869 3.24023 72.9689C4.53815 72.6551 4.77308 72.1172 5.36609 72.2293C6.48499 72.4534 9.13684 75.2102 24.2308 87.2011C29.2323 91.1794 31.0337 92.6474 31.6043 93.2414C31.6043 93.2414 31.6043 96.962 32.0742 97.668C32.5442 98.374 33.7973 98.7214 37.4114 100.884C37.7806 101.131 37.6016 107.171 37.0533 107.317L37.0757 107.339ZM107.566 88.2881C96.1984 90.9777 79.3813 94.8776 63.9853 99.4274C63.0566 99.6963 45.9598 104.414 38.6982 106.712C38.1275 106.891 38.2842 104.594 38.3625 103.215C38.4856 101.299 38.7205 101.063 40.6003 100.559C62.3069 94.7766 112.355 82.2478 111.852 82.3823C124.484 79.1436 118.688 78.4825 120.915 84.2538C121.183 85.1615 115.734 86.383 107.555 88.3217L107.566 88.2881ZM122.504 84.4891C120.948 84.859 121.832 78.7627 121.385 78.2808C120.296 77.4531 119.108 76.7643 117.849 76.23C116.249 75.0421 118.543 72.4085 116.652 71.6465C113.094 70.2457 113.127 70.7164 112.02 69.0578C111.751 68.6544 111.225 68.4303 110.901 68.0493C108.562 65.0571 112.288 67.9372 118.89 70.4811C120.4 71.0638 119.762 71.187 119.572 75.58C119.572 76.4765 124.193 77.6644 124.451 79.1324C125.245 84.0521 125.514 83.7831 122.493 84.5227L122.504 84.4891Z"/>
</mask>
<path d="M126.151 83.884C125.413 79.9954 125.704 78.2247 125.032 77.8213C122.47 76.3868 120.702 75.7929 120.669 75.0421C120.49 70.9966 121.564 70.7164 119.751 70.0104C114.638 68.0493 110.185 65.8416 110.162 65.3485C109.737 56.4842 109.58 46.6449 109.58 46.6449C108.909 37.8814 107.41 35.7186 109.401 34.5756C109.755 34.3737 110.053 34.0859 110.267 33.7387C110.481 33.3915 110.604 32.996 110.625 32.5886C110.646 32.1812 110.565 31.775 110.388 31.4075C110.211 31.0399 109.945 30.7227 109.614 30.4852C109.401 30.3395 108.82 29.9473 108.641 29.7904C108.204 29.4206 109.457 28.5465 109.927 28.1879C112.277 29.1404 112.311 28.8827 113.016 28.2551C113.418 27.8965 113.34 27.6275 112.926 27.437C103.438 23.044 81.7534 9.99972 66.5252 6.30159C54.9669 3.48876 44.1472 -0.142134 42.95 0.76559C28.2029 11.4566 7.97319 31.3817 8.71166 32.4911C9.63607 33.8119 10.4375 35.2149 11.1061 36.6823C11.8333 38.1952 10.804 57.3022 10.804 57.7953C10.804 67.5113 11.5537 69.3268 10.4459 69.7302C-0.429762 73.6301 1.12549 71.5905 0.912896 77.5748C0.912896 78.0679 0.700336 84.6124 1.8528 85.2287C1.8528 85.2287 10.8711 93.3983 27.1399 105.4C35.8449 111.81 30.3735 109.883 40.9919 106.599C54.6313 102.375 111.483 87.2123 125.502 84.7469C125.86 84.6684 126.286 84.6348 126.151 83.884ZM76.0134 52.0128C82.2345 52.3826 81.3618 58.8151 81.7646 71.4784C81.7646 72.375 80.7576 72.3413 77.0764 73.5964C76.1701 73.899 76.461 73.3611 75.9575 67.9932C74.626 52.405 74.7603 51.9344 76.0134 52.0128ZM75.9351 72.7111C76.0134 74.2352 73.1379 74.6162 70.9336 75.0869C70.1504 75.255 69.1881 75.3334 69.0091 74.4481C68.6734 72.7672 68.763 70.8845 68.1364 65.6174C67.7556 62.8003 68.0746 59.9327 69.0651 57.2687C70.956 52.7188 74.3015 51.7887 74.3687 52.7861C75.2078 65.3485 75.7449 68.4191 75.9351 72.7111ZM67.9126 58.6695C67.6661 59.8127 67.4831 60.9687 67.3643 62.1322C68.293 75.6472 68.4832 75.58 67.7559 75.7145C64.1531 76.6782 64.8244 77.1377 64.1083 69.0802C61.7139 41.8261 61.8705 49.6258 65.0929 45.2889C66.7937 43.0476 62.7321 41.7028 62.9447 40.9072C63.0006 40.7167 82.8163 36.0547 82.4583 36.6151C82.0331 37.2342 81.6872 37.9044 81.4289 38.6099C80.959 40.3132 82.0443 41.5124 83.7786 41.7925C84.8975 41.9606 84.3045 41.8934 84.8975 48.931C86.8556 73.9775 86.2066 70.5819 83.4989 71.5569C81.7198 72.2069 82.8163 69.0466 82.0331 57.9186C81.3394 48.6172 70.6091 48.2138 67.9126 58.6695ZM48.3655 83.3237C48.1864 81.8893 51.2298 85.3296 47.985 86.2374C44.7402 87.1451 36.4156 89.5993 35.5429 85.677C35.4645 85.3184 36.0463 83.9624 36.5163 84.1865C36.5946 84.1865 36.6505 84.2538 36.6393 84.2762C36.4044 85.4753 37.3555 85.3968 38.0604 85.7106C41.0926 86.8873 45.7137 85.0719 47.8619 84.4331C48.4102 84.3211 48.3766 83.8616 48.3207 83.3797L48.3655 83.3237ZM33.5848 64.9675C33.8645 47.1828 33.5848 49.0767 35.0058 48.1578C35.2743 47.9897 35.6659 48.225 35.4086 48.6732C35.0706 49.2285 34.8918 49.8664 34.8918 50.5167C34.8918 51.1671 35.0706 51.8049 35.4086 52.3602C35.7778 52.9878 37.6464 53.3352 37.6464 54.0412C37.4338 65.92 37.1317 72.812 36.9862 76.8351C36.7736 82.7185 36.7401 82.4384 36.3149 82.6177C33.182 83.9737 32.9582 83.7383 33.0253 83.1219C33.0813 75.5688 33.4729 69.6294 33.54 65.0235L33.5848 64.9675ZM32.8799 64.9675C32.6673 73.9327 32.4323 83.3797 31.9512 83.0323C18.4684 73.406 13.9145 71.2655 12.3481 69.6966C11.3411 68.688 11.4529 64.0261 11.5872 57.3022C11.6991 51.9007 11.6991 45.1769 11.9452 37.9263C12.0236 35.7522 26.4126 45.5803 32.8127 49.7267C33.2267 50.2982 33.003 57.5152 32.8351 65.0235L32.8799 64.9675ZM46.8996 73.4844C47.1346 83.4469 48.6563 83.8616 45.6689 84.5788C43.5465 85.2435 41.3039 85.4309 39.1009 85.1279C37.0198 84.7133 37.031 84.1754 37.7694 65.808C38.5303 47.0371 38.6534 56.0023 40.8576 51.3964C41.036 51.1169 41.3176 50.9195 41.6409 50.8473C44.6843 50.0628 43.9794 51.3404 45.6353 51.2507C46.2507 51.2507 46.3738 51.5309 46.3626 52.0464C46.3626 52.8196 46.3626 53.5929 46.3626 54.3661C46.3066 54.4222 46.8549 73.5292 46.8549 73.5404L46.8996 73.4844ZM44.4157 49.4353C44.4157 49.312 44.7738 48.9422 44.9864 48.875C46.3962 48.4603 46.8102 49.5473 46.8214 48.875C46.8326 48.2026 45.8479 47.7544 44.9416 48.0233C44.3181 48.2583 43.8119 48.7292 43.5318 49.3345C43.4197 49.5946 43.2403 49.82 43.0121 49.9875C42.7839 50.1549 42.5153 50.2583 42.2338 50.287C40.88 50.5447 41.115 49.5361 40.4324 49.1663C40.1447 48.9851 39.8144 48.8829 39.4748 48.87C39.1351 48.8572 38.7981 48.9341 38.4975 49.0931C38.197 49.2522 37.9435 49.4876 37.7627 49.7759C37.5818 50.0642 37.48 50.3951 37.4673 50.7353C37.4673 50.7913 37.6352 51.1947 37.7247 51.0266C38.1499 50.2422 39.4925 48.8414 40.1191 50.3991C40.1976 50.5993 40.2336 50.8136 40.2248 51.0285C40.2159 51.2434 40.1623 51.4541 40.0675 51.6471C39.9728 51.8401 39.8389 52.0111 39.6744 52.1493C39.5099 52.2876 39.3184 52.3899 39.1121 52.4498C36.024 53.3575 35.8673 50.8922 35.7554 50.3879C35.017 48.0121 44.6059 43.664 47.8395 47.2724C50.1445 49.962 45.1542 51.755 44.4157 49.4353ZM47.3584 65.6735C46.7766 47.5863 45.9598 53.3464 48.992 49.2448C50.469 47.2388 46.5864 45.7036 46.6535 45.1993C46.6535 45.0424 51.8452 43.3054 51.4088 44.0002C51.0844 44.4932 49.8536 45.6139 50.234 47.1716C50.6144 48.7293 51.9123 48.8862 53.0089 49.4129C53.1991 49.5138 53.4788 49.7491 53.4788 49.9284C53.5907 61.5831 53.3781 68.2734 54.2061 78.3816C54.2061 78.8747 54.027 78.8747 53.6354 78.9867C45.8255 81.1496 47.9178 84.0185 47.3248 65.6735H47.3584ZM60.8747 43.9665C58.9726 44.3699 60.2482 46.2079 58.2901 46.1294C57.5964 46.1294 56.6789 46.7346 55.5488 45.5579C54.0494 43.989 52.2928 46.5328 52.897 46.9587C53.0872 47.0932 53.4005 46.8914 53.5012 46.7345C54.0382 45.9053 54.4522 45.782 55.1236 46.3199C56.2425 47.194 54.7208 49.4353 52.5389 48.2698C51.8005 47.8776 50.9501 47.519 51.0172 46.4992C51.2522 42.7898 58.0775 42.0166 59.5545 41.7252C60.336 41.533 61.1548 41.5554 61.9247 41.7901C62.6947 42.0248 63.3872 42.4631 63.9293 43.0588C66.279 45.5018 61.7922 48.3034 60.2034 45.3001C60.2034 45.2104 60.4496 44.807 60.5838 44.807C61.0542 44.8274 61.5221 44.8874 61.9824 44.9863C63.2916 45.2329 62.0272 43.7088 60.8411 43.9665H60.8747ZM54.1614 81.7996C55.9068 85.352 64.6454 81.7099 65.3503 80.6229C66.0553 79.5359 66.7266 82.6177 64.8468 83.2565C57.5628 85.7331 53.1767 84.5451 53.2214 82.4271C53.1879 81.934 53.9375 81.2953 54.1725 81.7996H54.1614ZM63.8175 80.8583C61.657 81.9082 59.2814 82.4378 56.8803 82.4048C55.1012 82.4048 55.0677 81.7884 55.0677 80.0178C54.5642 80.0178 53.6802 52.7748 54.2732 49.5362C54.3403 49.1439 55.0788 48.9086 55.3026 48.494C56.6117 45.9725 61.7139 46.7234 61.7923 47.8664C64.2315 83.3237 64.9139 80.3428 63.8286 80.8583H63.8175ZM94.9117 72.543C90.9955 73.955 92.1144 73.9438 87.0794 73.6637C86.0723 73.6637 87.2136 68.6768 85.3115 45.3562C85.0541 42.1623 85.1213 41.8597 85.8374 41.3778C86.2215 41.1964 86.558 40.9276 86.8203 40.593C87.0825 40.2584 87.2631 39.8672 87.3479 39.4503C87.5717 37.9599 92.9424 38.6434 92.9424 39.6968C93.155 41.9381 93.2892 44.2915 93.4459 46.5889C92.9536 46.7009 96.1424 72.106 94.9229 72.5767L94.9117 72.543ZM91.7339 36.6823C92.1032 36.6151 92.7522 37.2315 93.0431 37.1306C93.7592 36.8728 92.9872 35.3824 91.9242 35.8643C89.9885 36.7047 90.4249 37.7133 89.1605 37.9599C87.3143 38.3073 87.2807 38.4642 86.7213 37.9599C86.47 37.701 86.1389 37.5348 85.7815 37.488C85.424 37.4412 85.0613 37.5166 84.752 37.7021C83.1072 38.509 83.7339 40.9968 84.9982 38.6659C85.3675 37.9935 87.3591 39.652 86.1171 40.5373C83.1968 42.7786 76.3155 37.4556 90.3353 34.5307C95.3368 33.4997 95.2697 37.5901 94.0613 38.1168C91.264 39.3047 90.0108 36.9177 91.7451 36.6375L91.7339 36.6823ZM85.815 73.4396C85.7143 74.3137 86.1507 74.6947 86.9339 74.7619C90.3577 75.0645 93.5242 74.8964 96.0417 72.6999C96.2431 72.5206 96.5676 72.4534 96.8026 72.8905C98.1788 75.524 85.9381 78.8075 84.4164 74.9861C83.8122 73.3611 85.9269 72.4534 85.815 73.3947V73.4396ZM93.6473 39.8986C93.6473 38.778 97.4515 37.1194 94.4081 34.0264C93.9046 33.5109 93.9606 33.6342 97.1607 32.7713C97.2099 32.7569 97.2624 32.7582 97.3108 32.7752C97.3592 32.7921 97.4012 32.8238 97.4307 32.8658C97.4603 32.9078 97.476 32.9579 97.4757 33.0093C97.4755 33.0607 97.4592 33.1107 97.4292 33.1523C96.6571 34.1721 96.4445 35.1134 97.0487 35.8867C99.8124 39.4279 99.4991 32.0989 99.9914 62.7822C100.081 68.7553 101.11 67.601 96.1201 69.0578C95.5606 69.2147 93.6473 40.358 93.6473 39.8538V39.8986ZM109.905 69.6294C109.904 69.7834 109.864 69.9347 109.79 70.0697C109.716 70.2047 109.609 70.3191 109.48 70.4026C107.622 71.0526 101.11 71.6913 101.043 70.1112C100.987 68.7104 100.92 66.5028 100.842 65.1132C100.763 63.7236 99.2529 38.128 100.54 37.5677C102.308 36.772 102.464 33.7351 105.731 34.8557C109.189 35.9988 107.813 33.0178 109.894 69.5845L109.905 69.6294ZM110.173 70.8172C110.666 70.6155 110.968 68.5759 111.382 70.1112C112.288 73.4732 104.769 73.843 101.211 73.2267C98.8838 72.8232 99.5327 70.2233 100.159 70.4811C100.786 70.7388 99.9131 71.7249 101.401 71.781C103.192 71.919 104.989 71.9452 106.783 71.8594C107.955 71.6601 109.093 71.2941 110.162 70.7724L110.173 70.8172ZM109.211 31.3929C109.452 31.5558 109.642 31.7829 109.76 32.0484C109.878 32.3139 109.92 32.6073 109.88 32.8953C109.841 33.1834 109.721 33.4546 109.536 33.6782C109.35 33.9019 109.106 34.069 108.831 34.1609C105.866 35.5617 105.799 32.6592 106.324 32.5808C106.85 32.5023 108.126 33.1747 108.081 32.4575C108.081 32.0317 106.962 31.6506 106.638 31.7178C106.129 31.8141 105.662 32.0646 105.299 32.4354C104.937 32.8061 104.697 33.2794 104.612 33.7911C102.14 34.8221 101.647 34.3626 101.256 33.8695C101.03 33.7187 100.77 33.6283 100.5 33.6067C100.23 33.5851 99.9582 33.6331 99.7117 33.7462C99.1187 34.116 98.3354 35.7522 98.7942 35.5393C99.0292 35.4272 99.3537 35.3487 99.4656 35.147C100.775 32.9618 102.442 36.9401 100.417 36.8841C97.3732 36.772 96.3774 33.354 100.081 32.0652C107.141 29.5774 106.862 29.9921 109.2 31.3481L109.211 31.3929ZM108.092 28.8154C90.4696 34.9341 55.1348 41.277 35.5205 47.4181C34.9946 47.5862 35.9792 46.5216 36.3149 46.107C36.6506 45.6923 37.0757 45.9613 37.4338 45.9276C38.1599 45.8264 38.8727 45.646 39.5597 45.3898C61.6691 38.5314 91.3424 32.5696 107.723 27.3249L109.289 27.9973C108.915 28.3075 108.501 28.5675 108.059 28.7705L108.092 28.8154ZM47.7724 34.5531C55.3474 27.5715 70.5308 15.0538 72.1532 13.1039C72.791 12.3307 72.9812 11.8936 73.5071 11.8936C74.7826 11.8936 77.9827 14.4935 94.1396 21.3631C100.663 24.1423 104.758 25.9577 107.387 27.112L42.5584 43.4959C39.2912 44.37 32.0407 49.0431 47.7724 34.5531ZM104.277 23.4811C108.652 25.7224 111.594 27.4594 111.359 27.6948C111.125 27.9301 108.081 26.7422 101.088 23.7949C88.7801 18.6063 82.0667 15.1884 78.296 13.216C75.689 11.8825 74.4806 11.0979 73.3281 11.3333C72.4733 11.5868 71.7135 12.0902 71.1462 12.779C68.4519 15.6102 65.6057 18.2925 62.6202 20.814C62.1167 21.2286 51.2186 30.1266 47.1011 34.2617C31.0785 50.1637 33.7414 49.0431 32.2533 48.0121C30.7651 46.9811 26.6588 49.1327 71.84 8.9015C72.7798 8.07222 93.1102 17.665 104.221 23.4811H104.277ZM43.3639 1.19144C44.0689 0.765595 61.188 5.78609 64.7126 6.58175C70.9225 7.98256 71.6497 8.24032 71.426 8.41963C63.2244 16.0064 56.6453 21.4863 51.8788 25.8345C36.0911 40.2011 36.4268 40.0555 31.8057 45.3898C30.9553 46.3647 32.2645 46.7346 9.83056 32.1101C8.04032 30.911 35.7666 5.74127 43.3639 1.19144ZM10.7257 33.4773C10.8823 33.3204 12.1131 34.1161 12.2921 34.2282C33.484 48.1578 35.8673 49.1663 12.2026 36.5591C11.7663 36.3237 10.4124 33.7911 10.7257 33.4773ZM10.8151 70.4586C12.3928 70.1673 31.94 84.1642 32.4323 84.4891C32.9246 84.8141 34.6701 83.7831 34.9387 84.0857C35.0124 84.1567 35.061 84.2497 35.0772 84.3508C35.0933 84.452 35.0761 84.5556 35.0281 84.646C34.5246 85.4977 34.3904 87.8063 37.3779 88.2881C41.1485 88.9157 53.5571 87.9855 49.3389 82.5168C49.0167 82.2742 48.6763 82.0569 48.3207 81.8668C47.7053 81.3625 54.3851 79.9281 53.9152 80.41C53.1094 81.0365 52.5795 81.9532 52.4382 82.9651C52.4382 87.3692 69.8595 85.8787 66.693 79.6927C66.1111 78.5721 64.5447 78.942 65.0146 77.5748C65.4174 76.4541 67.8231 77.0368 82.2681 72.6887C86.5087 71.4112 85.7814 72.0276 85.6248 72.05C83.5436 72.2965 82.8275 75.8378 84.6625 76.5326C86.7401 77.4385 89.062 77.6161 91.2528 77.0368C93.7703 76.342 99.3201 75.4792 97.362 71.7586C97.1495 71.3552 96.6012 71.1198 96.3438 70.7276C96.1872 70.5034 96.1983 69.8759 96.3438 69.8311C98.7383 68.8561 100.405 68.1949 100.17 69.0466C100.003 69.6742 98.2908 70.3466 98.9957 72.3077C99.1814 72.7851 99.5156 73.1898 99.9488 73.4623C100.382 73.7347 100.891 73.8604 101.401 73.8206C105.966 74.0111 106.201 74.5602 110.912 72.6999C111.404 72.5094 111.684 71.8034 112.12 71.3888C112.758 70.7836 112.825 70.9069 115.902 72.0948C119.337 73.4284 32.3763 92.5017 31.884 92.0983C13.8586 77.3618 7.21231 73.2827 7.21231 71.725C7.08923 71.0974 8.48785 70.9181 10.8487 70.4811L10.8151 70.4586ZM38.7876 100.458C38.4743 100.526 38.452 100.526 38.6982 100.458C37.7695 100.548 36.0687 99.1808 33.9428 97.8921C33.5736 97.6568 114.504 77.4739 114.884 77.3731C117.659 76.7455 119.684 77.4963 120.165 78.5945C120.747 79.9281 42.7374 99.3825 38.6982 100.458H38.7876ZM115.611 76.0506C111.46 76.9135 98.6823 80.7013 84.4164 84.2538C62.4076 89.7449 36.5611 95.8076 33.2379 96.7826C32.6785 96.9507 32.6897 97.0404 32.6113 94.2836C32.533 92.0423 64.9587 85.5426 67.9573 84.9262C94.1955 79.5695 116.193 72.3413 116.204 74.4481C116.227 74.8179 116.495 75.9386 115.622 76.0731L115.611 76.0506ZM31.6938 107.866C31.4365 107.787 26.7819 104.179 25.0476 102.957C24.5664 102.621 8.78993 91.2354 2.56885 84.6684C1.86394 83.94 1.9087 81.7771 1.87513 81.0936C1.87513 76.0843 1.76324 74.4594 2.0094 74.2128C2.25555 73.9663 2.23319 74.2128 2.44578 74.4258C18.0097 88.6019 24.2084 91.7733 26.2112 93.7793C26.575 94.085 26.8388 94.493 26.9684 94.9505C27.0981 95.4081 27.0877 95.8941 26.9385 96.3456C26.7386 97.2769 26.6933 98.2348 26.8042 99.1808C26.8042 99.6067 29.2434 101.153 32.3987 103.506C32.6897 103.731 32.3652 108.112 31.6714 107.888L31.6938 107.866ZM37.0757 107.339C34.5806 108.224 33.0589 108.785 33.1149 108.191C33.596 103.484 33.9988 103.775 32.6785 102.733C25.8196 97.3205 27.8784 100.245 28.2812 94.9448C28.3931 93.4767 -0.00458199 73.7869 3.24023 72.9689C4.53815 72.6551 4.77308 72.1172 5.36609 72.2293C6.48499 72.4534 9.13684 75.2102 24.2308 87.2011C29.2323 91.1794 31.0337 92.6474 31.6043 93.2414C31.6043 93.2414 31.6043 96.962 32.0742 97.668C32.5442 98.374 33.7973 98.7214 37.4114 100.884C37.7806 101.131 37.6016 107.171 37.0533 107.317L37.0757 107.339ZM107.566 88.2881C96.1984 90.9777 79.3813 94.8776 63.9853 99.4274C63.0566 99.6963 45.9598 104.414 38.6982 106.712C38.1275 106.891 38.2842 104.594 38.3625 103.215C38.4856 101.299 38.7205 101.063 40.6003 100.559C62.3069 94.7766 112.355 82.2478 111.852 82.3823C124.484 79.1436 118.688 78.4825 120.915 84.2538C121.183 85.1615 115.734 86.383 107.555 88.3217L107.566 88.2881ZM122.504 84.4891C120.948 84.859 121.832 78.7627 121.385 78.2808C120.296 77.4531 119.108 76.7643 117.849 76.23C116.249 75.0421 118.543 72.4085 116.652 71.6465C113.094 70.2457 113.127 70.7164 112.02 69.0578C111.751 68.6544 111.225 68.4303 110.901 68.0493C108.562 65.0571 112.288 67.9372 118.89 70.4811C120.4 71.0638 119.762 71.187 119.572 75.58C119.572 76.4765 124.193 77.6644 124.451 79.1324C125.245 84.0521 125.514 83.7831 122.493 84.5227L122.504 84.4891Z" fill="#FFE071"/>
<path d="M126.151 83.884C125.413 79.9954 125.704 78.2247 125.032 77.8213C122.47 76.3868 120.702 75.7929 120.669 75.0421C120.49 70.9966 121.564 70.7164 119.751 70.0104C114.638 68.0493 110.185 65.8416 110.162 65.3485C109.737 56.4842 109.58 46.6449 109.58 46.6449C108.909 37.8814 107.41 35.7186 109.401 34.5756C109.755 34.3737 110.053 34.0859 110.267 33.7387C110.481 33.3915 110.604 32.996 110.625 32.5886C110.646 32.1812 110.565 31.775 110.388 31.4075C110.211 31.0399 109.945 30.7227 109.614 30.4852C109.401 30.3395 108.82 29.9473 108.641 29.7904C108.204 29.4206 109.457 28.5465 109.927 28.1879C112.277 29.1404 112.311 28.8827 113.016 28.2551C113.418 27.8965 113.34 27.6275 112.926 27.437C103.438 23.044 81.7534 9.99972 66.5252 6.30159C54.9669 3.48876 44.1472 -0.142134 42.95 0.76559C28.2029 11.4566 7.97319 31.3817 8.71166 32.4911C9.63607 33.8119 10.4375 35.2149 11.1061 36.6823C11.8333 38.1952 10.804 57.3022 10.804 57.7953C10.804 67.5113 11.5537 69.3268 10.4459 69.7302C-0.429762 73.6301 1.12549 71.5905 0.912896 77.5748C0.912896 78.0679 0.700336 84.6124 1.8528 85.2287C1.8528 85.2287 10.8711 93.3983 27.1399 105.4C35.8449 111.81 30.3735 109.883 40.9919 106.599C54.6313 102.375 111.483 87.2123 125.502 84.7469C125.86 84.6684 126.286 84.6348 126.151 83.884ZM76.0134 52.0128C82.2345 52.3826 81.3618 58.8151 81.7646 71.4784C81.7646 72.375 80.7576 72.3413 77.0764 73.5964C76.1701 73.899 76.461 73.3611 75.9575 67.9932C74.626 52.405 74.7603 51.9344 76.0134 52.0128ZM75.9351 72.7111C76.0134 74.2352 73.1379 74.6162 70.9336 75.0869C70.1504 75.255 69.1881 75.3334 69.0091 74.4481C68.6734 72.7672 68.763 70.8845 68.1364 65.6174C67.7556 62.8003 68.0746 59.9327 69.0651 57.2687C70.956 52.7188 74.3015 51.7887 74.3687 52.7861C75.2078 65.3485 75.7449 68.4191 75.9351 72.7111ZM67.9126 58.6695C67.6661 59.8127 67.4831 60.9687 67.3643 62.1322C68.293 75.6472 68.4832 75.58 67.7559 75.7145C64.1531 76.6782 64.8244 77.1377 64.1083 69.0802C61.7139 41.8261 61.8705 49.6258 65.0929 45.2889C66.7937 43.0476 62.7321 41.7028 62.9447 40.9072C63.0006 40.7167 82.8163 36.0547 82.4583 36.6151C82.0331 37.2342 81.6872 37.9044 81.4289 38.6099C80.959 40.3132 82.0443 41.5124 83.7786 41.7925C84.8975 41.9606 84.3045 41.8934 84.8975 48.931C86.8556 73.9775 86.2066 70.5819 83.4989 71.5569C81.7198 72.2069 82.8163 69.0466 82.0331 57.9186C81.3394 48.6172 70.6091 48.2138 67.9126 58.6695ZM48.3655 83.3237C48.1864 81.8893 51.2298 85.3296 47.985 86.2374C44.7402 87.1451 36.4156 89.5993 35.5429 85.677C35.4645 85.3184 36.0463 83.9624 36.5163 84.1865C36.5946 84.1865 36.6505 84.2538 36.6393 84.2762C36.4044 85.4753 37.3555 85.3968 38.0604 85.7106C41.0926 86.8873 45.7137 85.0719 47.8619 84.4331C48.4102 84.3211 48.3766 83.8616 48.3207 83.3797L48.3655 83.3237ZM33.5848 64.9675C33.8645 47.1828 33.5848 49.0767 35.0058 48.1578C35.2743 47.9897 35.6659 48.225 35.4086 48.6732C35.0706 49.2285 34.8918 49.8664 34.8918 50.5167C34.8918 51.1671 35.0706 51.8049 35.4086 52.3602C35.7778 52.9878 37.6464 53.3352 37.6464 54.0412C37.4338 65.92 37.1317 72.812 36.9862 76.8351C36.7736 82.7185 36.7401 82.4384 36.3149 82.6177C33.182 83.9737 32.9582 83.7383 33.0253 83.1219C33.0813 75.5688 33.4729 69.6294 33.54 65.0235L33.5848 64.9675ZM32.8799 64.9675C32.6673 73.9327 32.4323 83.3797 31.9512 83.0323C18.4684 73.406 13.9145 71.2655 12.3481 69.6966C11.3411 68.688 11.4529 64.0261 11.5872 57.3022C11.6991 51.9007 11.6991 45.1769 11.9452 37.9263C12.0236 35.7522 26.4126 45.5803 32.8127 49.7267C33.2267 50.2982 33.003 57.5152 32.8351 65.0235L32.8799 64.9675ZM46.8996 73.4844C47.1346 83.4469 48.6563 83.8616 45.6689 84.5788C43.5465 85.2435 41.3039 85.4309 39.1009 85.1279C37.0198 84.7133 37.031 84.1754 37.7694 65.808C38.5303 47.0371 38.6534 56.0023 40.8576 51.3964C41.036 51.1169 41.3176 50.9195 41.6409 50.8473C44.6843 50.0628 43.9794 51.3404 45.6353 51.2507C46.2507 51.2507 46.3738 51.5309 46.3626 52.0464C46.3626 52.8196 46.3626 53.5929 46.3626 54.3661C46.3066 54.4222 46.8549 73.5292 46.8549 73.5404L46.8996 73.4844ZM44.4157 49.4353C44.4157 49.312 44.7738 48.9422 44.9864 48.875C46.3962 48.4603 46.8102 49.5473 46.8214 48.875C46.8326 48.2026 45.8479 47.7544 44.9416 48.0233C44.3181 48.2583 43.8119 48.7292 43.5318 49.3345C43.4197 49.5946 43.2403 49.82 43.0121 49.9875C42.7839 50.1549 42.5153 50.2583 42.2338 50.287C40.88 50.5447 41.115 49.5361 40.4324 49.1663C40.1447 48.9851 39.8144 48.8829 39.4748 48.87C39.1351 48.8572 38.7981 48.9341 38.4975 49.0931C38.197 49.2522 37.9435 49.4876 37.7627 49.7759C37.5818 50.0642 37.48 50.3951 37.4673 50.7353C37.4673 50.7913 37.6352 51.1947 37.7247 51.0266C38.1499 50.2422 39.4925 48.8414 40.1191 50.3991C40.1976 50.5993 40.2336 50.8136 40.2248 51.0285C40.2159 51.2434 40.1623 51.4541 40.0675 51.6471C39.9728 51.8401 39.8389 52.0111 39.6744 52.1493C39.5099 52.2876 39.3184 52.3899 39.1121 52.4498C36.024 53.3575 35.8673 50.8922 35.7554 50.3879C35.017 48.0121 44.6059 43.664 47.8395 47.2724C50.1445 49.962 45.1542 51.755 44.4157 49.4353ZM47.3584 65.6735C46.7766 47.5863 45.9598 53.3464 48.992 49.2448C50.469 47.2388 46.5864 45.7036 46.6535 45.1993C46.6535 45.0424 51.8452 43.3054 51.4088 44.0002C51.0844 44.4932 49.8536 45.6139 50.234 47.1716C50.6144 48.7293 51.9123 48.8862 53.0089 49.4129C53.1991 49.5138 53.4788 49.7491 53.4788 49.9284C53.5907 61.5831 53.3781 68.2734 54.2061 78.3816C54.2061 78.8747 54.027 78.8747 53.6354 78.9867C45.8255 81.1496 47.9178 84.0185 47.3248 65.6735H47.3584ZM60.8747 43.9665C58.9726 44.3699 60.2482 46.2079 58.2901 46.1294C57.5964 46.1294 56.6789 46.7346 55.5488 45.5579C54.0494 43.989 52.2928 46.5328 52.897 46.9587C53.0872 47.0932 53.4005 46.8914 53.5012 46.7345C54.0382 45.9053 54.4522 45.782 55.1236 46.3199C56.2425 47.194 54.7208 49.4353 52.5389 48.2698C51.8005 47.8776 50.9501 47.519 51.0172 46.4992C51.2522 42.7898 58.0775 42.0166 59.5545 41.7252C60.336 41.533 61.1548 41.5554 61.9247 41.7901C62.6947 42.0248 63.3872 42.4631 63.9293 43.0588C66.279 45.5018 61.7922 48.3034 60.2034 45.3001C60.2034 45.2104 60.4496 44.807 60.5838 44.807C61.0542 44.8274 61.5221 44.8874 61.9824 44.9863C63.2916 45.2329 62.0272 43.7088 60.8411 43.9665H60.8747ZM54.1614 81.7996C55.9068 85.352 64.6454 81.7099 65.3503 80.6229C66.0553 79.5359 66.7266 82.6177 64.8468 83.2565C57.5628 85.7331 53.1767 84.5451 53.2214 82.4271C53.1879 81.934 53.9375 81.2953 54.1725 81.7996H54.1614ZM63.8175 80.8583C61.657 81.9082 59.2814 82.4378 56.8803 82.4048C55.1012 82.4048 55.0677 81.7884 55.0677 80.0178C54.5642 80.0178 53.6802 52.7748 54.2732 49.5362C54.3403 49.1439 55.0788 48.9086 55.3026 48.494C56.6117 45.9725 61.7139 46.7234 61.7923 47.8664C64.2315 83.3237 64.9139 80.3428 63.8286 80.8583H63.8175ZM94.9117 72.543C90.9955 73.955 92.1144 73.9438 87.0794 73.6637C86.0723 73.6637 87.2136 68.6768 85.3115 45.3562C85.0541 42.1623 85.1213 41.8597 85.8374 41.3778C86.2215 41.1964 86.558 40.9276 86.8203 40.593C87.0825 40.2584 87.2631 39.8672 87.3479 39.4503C87.5717 37.9599 92.9424 38.6434 92.9424 39.6968C93.155 41.9381 93.2892 44.2915 93.4459 46.5889C92.9536 46.7009 96.1424 72.106 94.9229 72.5767L94.9117 72.543ZM91.7339 36.6823C92.1032 36.6151 92.7522 37.2315 93.0431 37.1306C93.7592 36.8728 92.9872 35.3824 91.9242 35.8643C89.9885 36.7047 90.4249 37.7133 89.1605 37.9599C87.3143 38.3073 87.2807 38.4642 86.7213 37.9599C86.47 37.701 86.1389 37.5348 85.7815 37.488C85.424 37.4412 85.0613 37.5166 84.752 37.7021C83.1072 38.509 83.7339 40.9968 84.9982 38.6659C85.3675 37.9935 87.3591 39.652 86.1171 40.5373C83.1968 42.7786 76.3155 37.4556 90.3353 34.5307C95.3368 33.4997 95.2697 37.5901 94.0613 38.1168C91.264 39.3047 90.0108 36.9177 91.7451 36.6375L91.7339 36.6823ZM85.815 73.4396C85.7143 74.3137 86.1507 74.6947 86.9339 74.7619C90.3577 75.0645 93.5242 74.8964 96.0417 72.6999C96.2431 72.5206 96.5676 72.4534 96.8026 72.8905C98.1788 75.524 85.9381 78.8075 84.4164 74.9861C83.8122 73.3611 85.9269 72.4534 85.815 73.3947V73.4396ZM93.6473 39.8986C93.6473 38.778 97.4515 37.1194 94.4081 34.0264C93.9046 33.5109 93.9606 33.6342 97.1607 32.7713C97.2099 32.7569 97.2624 32.7582 97.3108 32.7752C97.3592 32.7921 97.4012 32.8238 97.4307 32.8658C97.4603 32.9078 97.476 32.9579 97.4757 33.0093C97.4755 33.0607 97.4592 33.1107 97.4292 33.1523C96.6571 34.1721 96.4445 35.1134 97.0487 35.8867C99.8124 39.4279 99.4991 32.0989 99.9914 62.7822C100.081 68.7553 101.11 67.601 96.1201 69.0578C95.5606 69.2147 93.6473 40.358 93.6473 39.8538V39.8986ZM109.905 69.6294C109.904 69.7834 109.864 69.9347 109.79 70.0697C109.716 70.2047 109.609 70.3191 109.48 70.4026C107.622 71.0526 101.11 71.6913 101.043 70.1112C100.987 68.7104 100.92 66.5028 100.842 65.1132C100.763 63.7236 99.2529 38.128 100.54 37.5677C102.308 36.772 102.464 33.7351 105.731 34.8557C109.189 35.9988 107.813 33.0178 109.894 69.5845L109.905 69.6294ZM110.173 70.8172C110.666 70.6155 110.968 68.5759 111.382 70.1112C112.288 73.4732 104.769 73.843 101.211 73.2267C98.8838 72.8232 99.5327 70.2233 100.159 70.4811C100.786 70.7388 99.9131 71.7249 101.401 71.781C103.192 71.919 104.989 71.9452 106.783 71.8594C107.955 71.6601 109.093 71.2941 110.162 70.7724L110.173 70.8172ZM109.211 31.3929C109.452 31.5558 109.642 31.7829 109.76 32.0484C109.878 32.3139 109.92 32.6073 109.88 32.8953C109.841 33.1834 109.721 33.4546 109.536 33.6782C109.35 33.9019 109.106 34.069 108.831 34.1609C105.866 35.5617 105.799 32.6592 106.324 32.5808C106.85 32.5023 108.126 33.1747 108.081 32.4575C108.081 32.0317 106.962 31.6506 106.638 31.7178C106.129 31.8141 105.662 32.0646 105.299 32.4354C104.937 32.8061 104.697 33.2794 104.612 33.7911C102.14 34.8221 101.647 34.3626 101.256 33.8695C101.03 33.7187 100.77 33.6283 100.5 33.6067C100.23 33.5851 99.9582 33.6331 99.7117 33.7462C99.1187 34.116 98.3354 35.7522 98.7942 35.5393C99.0292 35.4272 99.3537 35.3487 99.4656 35.147C100.775 32.9618 102.442 36.9401 100.417 36.8841C97.3732 36.772 96.3774 33.354 100.081 32.0652C107.141 29.5774 106.862 29.9921 109.2 31.3481L109.211 31.3929ZM108.092 28.8154C90.4696 34.9341 55.1348 41.277 35.5205 47.4181C34.9946 47.5862 35.9792 46.5216 36.3149 46.107C36.6506 45.6923 37.0757 45.9613 37.4338 45.9276C38.1599 45.8264 38.8727 45.646 39.5597 45.3898C61.6691 38.5314 91.3424 32.5696 107.723 27.3249L109.289 27.9973C108.915 28.3075 108.501 28.5675 108.059 28.7705L108.092 28.8154ZM47.7724 34.5531C55.3474 27.5715 70.5308 15.0538 72.1532 13.1039C72.791 12.3307 72.9812 11.8936 73.5071 11.8936C74.7826 11.8936 77.9827 14.4935 94.1396 21.3631C100.663 24.1423 104.758 25.9577 107.387 27.112L42.5584 43.4959C39.2912 44.37 32.0407 49.0431 47.7724 34.5531ZM104.277 23.4811C108.652 25.7224 111.594 27.4594 111.359 27.6948C111.125 27.9301 108.081 26.7422 101.088 23.7949C88.7801 18.6063 82.0667 15.1884 78.296 13.216C75.689 11.8825 74.4806 11.0979 73.3281 11.3333C72.4733 11.5868 71.7135 12.0902 71.1462 12.779C68.4519 15.6102 65.6057 18.2925 62.6202 20.814C62.1167 21.2286 51.2186 30.1266 47.1011 34.2617C31.0785 50.1637 33.7414 49.0431 32.2533 48.0121C30.7651 46.9811 26.6588 49.1327 71.84 8.9015C72.7798 8.07222 93.1102 17.665 104.221 23.4811H104.277ZM43.3639 1.19144C44.0689 0.765595 61.188 5.78609 64.7126 6.58175C70.9225 7.98256 71.6497 8.24032 71.426 8.41963C63.2244 16.0064 56.6453 21.4863 51.8788 25.8345C36.0911 40.2011 36.4268 40.0555 31.8057 45.3898C30.9553 46.3647 32.2645 46.7346 9.83056 32.1101C8.04032 30.911 35.7666 5.74127 43.3639 1.19144ZM10.7257 33.4773C10.8823 33.3204 12.1131 34.1161 12.2921 34.2282C33.484 48.1578 35.8673 49.1663 12.2026 36.5591C11.7663 36.3237 10.4124 33.7911 10.7257 33.4773ZM10.8151 70.4586C12.3928 70.1673 31.94 84.1642 32.4323 84.4891C32.9246 84.8141 34.6701 83.7831 34.9387 84.0857C35.0124 84.1567 35.061 84.2497 35.0772 84.3508C35.0933 84.452 35.0761 84.5556 35.0281 84.646C34.5246 85.4977 34.3904 87.8063 37.3779 88.2881C41.1485 88.9157 53.5571 87.9855 49.3389 82.5168C49.0167 82.2742 48.6763 82.0569 48.3207 81.8668C47.7053 81.3625 54.3851 79.9281 53.9152 80.41C53.1094 81.0365 52.5795 81.9532 52.4382 82.9651C52.4382 87.3692 69.8595 85.8787 66.693 79.6927C66.1111 78.5721 64.5447 78.942 65.0146 77.5748C65.4174 76.4541 67.8231 77.0368 82.2681 72.6887C86.5087 71.4112 85.7814 72.0276 85.6248 72.05C83.5436 72.2965 82.8275 75.8378 84.6625 76.5326C86.7401 77.4385 89.062 77.6161 91.2528 77.0368C93.7703 76.342 99.3201 75.4792 97.362 71.7586C97.1495 71.3552 96.6012 71.1198 96.3438 70.7276C96.1872 70.5034 96.1983 69.8759 96.3438 69.8311C98.7383 68.8561 100.405 68.1949 100.17 69.0466C100.003 69.6742 98.2908 70.3466 98.9957 72.3077C99.1814 72.7851 99.5156 73.1898 99.9488 73.4623C100.382 73.7347 100.891 73.8604 101.401 73.8206C105.966 74.0111 106.201 74.5602 110.912 72.6999C111.404 72.5094 111.684 71.8034 112.12 71.3888C112.758 70.7836 112.825 70.9069 115.902 72.0948C119.337 73.4284 32.3763 92.5017 31.884 92.0983C13.8586 77.3618 7.21231 73.2827 7.21231 71.725C7.08923 71.0974 8.48785 70.9181 10.8487 70.4811L10.8151 70.4586ZM38.7876 100.458C38.4743 100.526 38.452 100.526 38.6982 100.458C37.7695 100.548 36.0687 99.1808 33.9428 97.8921C33.5736 97.6568 114.504 77.4739 114.884 77.3731C117.659 76.7455 119.684 77.4963 120.165 78.5945C120.747 79.9281 42.7374 99.3825 38.6982 100.458H38.7876ZM115.611 76.0506C111.46 76.9135 98.6823 80.7013 84.4164 84.2538C62.4076 89.7449 36.5611 95.8076 33.2379 96.7826C32.6785 96.9507 32.6897 97.0404 32.6113 94.2836C32.533 92.0423 64.9587 85.5426 67.9573 84.9262C94.1955 79.5695 116.193 72.3413 116.204 74.4481C116.227 74.8179 116.495 75.9386 115.622 76.0731L115.611 76.0506ZM31.6938 107.866C31.4365 107.787 26.7819 104.179 25.0476 102.957C24.5664 102.621 8.78993 91.2354 2.56885 84.6684C1.86394 83.94 1.9087 81.7771 1.87513 81.0936C1.87513 76.0843 1.76324 74.4594 2.0094 74.2128C2.25555 73.9663 2.23319 74.2128 2.44578 74.4258C18.0097 88.6019 24.2084 91.7733 26.2112 93.7793C26.575 94.085 26.8388 94.493 26.9684 94.9505C27.0981 95.4081 27.0877 95.8941 26.9385 96.3456C26.7386 97.2769 26.6933 98.2348 26.8042 99.1808C26.8042 99.6067 29.2434 101.153 32.3987 103.506C32.6897 103.731 32.3652 108.112 31.6714 107.888L31.6938 107.866ZM37.0757 107.339C34.5806 108.224 33.0589 108.785 33.1149 108.191C33.596 103.484 33.9988 103.775 32.6785 102.733C25.8196 97.3205 27.8784 100.245 28.2812 94.9448C28.3931 93.4767 -0.00458199 73.7869 3.24023 72.9689C4.53815 72.6551 4.77308 72.1172 5.36609 72.2293C6.48499 72.4534 9.13684 75.2102 24.2308 87.2011C29.2323 91.1794 31.0337 92.6474 31.6043 93.2414C31.6043 93.2414 31.6043 96.962 32.0742 97.668C32.5442 98.374 33.7973 98.7214 37.4114 100.884C37.7806 101.131 37.6016 107.171 37.0533 107.317L37.0757 107.339ZM107.566 88.2881C96.1984 90.9777 79.3813 94.8776 63.9853 99.4274C63.0566 99.6963 45.9598 104.414 38.6982 106.712C38.1275 106.891 38.2842 104.594 38.3625 103.215C38.4856 101.299 38.7205 101.063 40.6003 100.559C62.3069 94.7766 112.355 82.2478 111.852 82.3823C124.484 79.1436 118.688 78.4825 120.915 84.2538C121.183 85.1615 115.734 86.383 107.555 88.3217L107.566 88.2881ZM122.504 84.4891C120.948 84.859 121.832 78.7627 121.385 78.2808C120.296 77.4531 119.108 76.7643 117.849 76.23C116.249 75.0421 118.543 72.4085 116.652 71.6465C113.094 70.2457 113.127 70.7164 112.02 69.0578C111.751 68.6544 111.225 68.4303 110.901 68.0493C108.562 65.0571 112.288 67.9372 118.89 70.4811C120.4 71.0638 119.762 71.187 119.572 75.58C119.572 76.4765 124.193 77.6644 124.451 79.1324C125.245 84.0521 125.514 83.7831 122.493 84.5227L122.504 84.4891Z" stroke="#FFE071" mask="url(#path-1-outside-1_276_3219)"/>
<path d="M101.671 39.2342L101.666 39.2467L101.662 39.2595C101.653 39.2934 101.65 39.3309 101.649 39.35C101.647 39.3764 101.645 39.4085 101.644 39.4449C101.641 39.518 101.64 39.6165 101.639 39.7374C101.638 39.9796 101.64 40.3186 101.646 40.7389C101.657 41.5799 101.682 42.751 101.719 44.1345C101.794 46.9016 101.92 50.5213 102.089 54.0554C102.257 57.5883 102.469 61.0403 102.717 63.4699C102.84 64.6814 102.974 65.6516 103.119 66.2518C103.155 66.4027 103.193 66.5353 103.234 66.645C103.273 66.7501 103.321 66.8533 103.385 66.9308C103.448 67.0068 103.58 67.1157 103.76 67.0639C103.901 67.0234 103.981 66.9024 104.025 66.8233L104.06 66.7601L104.055 66.688L102.847 46.109C102.847 43.8824 102.847 41.6625 102.78 39.4309C102.777 39.2985 102.729 39.1712 102.643 39.0704C102.556 38.9692 102.438 38.901 102.307 38.8776C102.176 38.8542 102.041 38.877 101.925 38.9421C101.809 39.0071 101.719 39.1104 101.671 39.2342Z" fill="#FFE071" stroke="#FFE071" stroke-width="0.5"/>
<path d="M105.883 58.1759C105.958 60.4396 106.273 63.4092 106.474 65.2948C106.514 65.6774 106.55 66.0153 106.578 66.2937L106.578 66.2953C106.59 66.4061 106.606 66.4993 106.627 66.5751C106.646 66.6444 106.675 66.7269 106.732 66.7918C106.763 66.8272 106.809 66.8659 106.874 66.8863C106.941 66.9077 107.007 66.9023 107.062 66.8828C107.158 66.849 107.215 66.7758 107.243 66.7374C107.304 66.6495 107.349 66.5318 107.377 66.4361C107.404 66.344 107.428 66.2276 107.424 66.1342C107.283 62.3202 106.906 55.5023 106.52 49.6273C106.327 46.6891 106.131 43.9851 105.963 42.0093C105.878 41.0219 105.801 40.2139 105.733 39.6489C105.699 39.3672 105.667 39.1414 105.637 38.9825C105.623 38.9043 105.607 38.8346 105.59 38.7803C105.582 38.7543 105.57 38.7213 105.553 38.6898C105.545 38.6742 105.531 38.6506 105.509 38.6269C105.489 38.6048 105.446 38.5655 105.379 38.5481L105.316 38.7902L105.381 38.5486C105.283 38.5227 105.181 38.5253 105.083 38.5651C104.989 38.6035 104.917 38.6691 104.862 38.74C104.757 38.8761 104.689 39.0678 104.641 39.2765C104.543 39.7015 104.5 40.3192 104.494 41.0607C104.481 42.5506 104.618 44.6128 104.809 46.8063C104.975 48.7195 105.183 50.7307 105.372 52.5612C105.618 54.9447 105.833 57.0216 105.883 58.1759ZM105.883 58.1759C105.883 58.1754 105.883 58.1749 105.883 58.1745L106.133 58.1662L105.883 58.1772C105.883 58.1767 105.883 58.1763 105.883 58.1759Z" fill="#FFE071" stroke="#FFE071" stroke-width="0.5"/>
<path d="M91.2771 42.8865L91.276 42.8762L91.274 42.8659C91.2494 42.7373 91.1809 42.6211 91.0798 42.5375C90.9789 42.4539 90.852 42.4081 90.7208 42.4081C90.5896 42.4081 90.4627 42.4539 90.3618 42.5375C90.2608 42.621 90.1922 42.7372 90.1675 42.8659L90.1631 42.8892V42.9129C90.1631 43.097 90.5558 49.3905 90.9468 55.6156C91.1426 58.7331 91.3384 61.8397 91.4853 64.167L91.6627 66.9773L91.7124 67.764L91.7255 67.9711L91.7289 68.0242L91.7297 68.0377L91.7299 68.0411L91.73 68.0419C91.73 68.0421 91.73 68.0422 91.9789 68.0264L91.73 68.0422L91.7303 68.0461C91.7793 68.6647 91.8627 69.2799 91.9802 69.8892L91.9833 69.9054L91.9885 69.9211C92.0267 70.0353 92.0998 70.1348 92.1976 70.2052C92.2954 70.2757 92.4128 70.3137 92.5333 70.3137C92.6539 70.3137 92.7713 70.2757 92.8691 70.2052C92.9669 70.1348 93.04 70.0353 93.0782 69.9211L93.0911 69.8825V69.8418C93.0911 69.8178 93.0873 69.7815 93.0845 69.7553C93.081 69.7216 93.0759 69.6768 93.0695 69.6229C93.0568 69.5148 93.0386 69.3668 93.0168 69.1908C93.0017 69.0697 92.9849 68.9352 92.9669 68.791C92.9325 68.5155 92.8937 68.2047 92.8542 67.8838C92.7335 66.9021 92.6092 65.8465 92.5873 65.4365C92.4552 62.5695 92.4339 60.7437 92.4148 59.1022C92.3741 55.611 92.3431 52.9535 91.2771 42.8865Z" fill="#FFE071" stroke="#FFE071" stroke-width="0.5"/>
<path d="M84.935 29.1315C84.9345 29.1254 84.934 29.119 84.9335 29.1126C84.921 28.9528 84.8981 28.7224 84.8677 28.4423C84.8071 27.8829 84.7177 27.1345 84.6254 26.3774C84.5752 25.9656 84.5258 25.5644 84.4793 25.1876C84.4387 24.8584 84.4004 24.5478 84.366 24.2652C84.33 23.9698 84.2996 23.7172 84.2783 23.5305C84.2582 23.355 84.2432 23.2152 84.2432 23.1659C84.2432 23.045 84.2871 22.9338 84.3375 22.8444C84.3893 22.7525 84.4582 22.6655 84.5321 22.5883C84.6774 22.4364 84.8651 22.298 85.0396 22.2207C85.1898 22.1523 85.3501 22.137 85.504 22.1983C85.6495 22.2563 85.7549 22.3695 85.8319 22.4881C85.9828 22.7207 86.0815 23.0638 86.1561 23.4234C86.2324 23.7909 86.2901 24.2115 86.3435 24.6194C86.3503 24.671 86.3569 24.7223 86.3636 24.7733C86.4096 25.1271 86.4537 25.4659 86.5058 25.7593C86.5275 25.7291 86.551 25.6944 86.5763 25.6549C86.7653 25.3597 86.9926 24.897 87.2468 24.3796C87.3257 24.2191 87.4071 24.0534 87.4908 23.8858C87.7652 23.3081 88.0752 22.7109 88.3804 22.2907C88.5314 22.0826 88.6956 21.8975 88.8693 21.7844C89.0488 21.6675 89.2841 21.6032 89.5118 21.7416C89.7179 21.865 89.8668 22.0206 89.9351 22.218C90.003 22.4143 89.977 22.6112 89.9162 22.7886C89.8561 22.9641 89.755 23.1409 89.6448 23.3115C89.5657 23.4339 89.4752 23.563 89.3846 23.6923C89.3492 23.7428 89.3138 23.7933 89.2791 23.8435C89.0237 24.212 88.7873 24.5849 88.6814 24.9745C88.5794 25.3498 88.5977 25.743 88.8669 26.1706L84.935 29.1315ZM84.935 29.1315L84.9139 29.1342L84.9381 29.3768C84.9664 29.6604 84.9991 29.8997 85.0431 30.0963C85.0866 30.2905 85.1449 30.4614 85.2349 30.596C85.3305 30.7391 85.4596 30.8379 85.6254 30.8813C85.7795 30.9217 85.9443 30.9086 86.108 30.8748C86.4477 30.8107 86.6956 30.6729 86.8477 30.4581C86.9973 30.2468 87.0247 30.002 87.0127 29.7863C87.001 29.5767 86.9497 29.3629 86.9081 29.1895L86.9053 29.178C86.8607 28.992 86.8339 28.8708 86.8349 28.7909C86.9031 28.3223 87.0738 27.8751 87.3342 27.481C87.3681 27.5202 87.4106 27.5749 87.4619 27.6484C87.5786 27.8156 87.7045 28.0241 87.8456 28.2576C87.9495 28.4297 88.0616 28.6154 88.1844 28.8082C88.4599 29.2411 88.7814 29.6959 89.1299 29.9781C89.3059 30.1205 89.5071 30.2343 89.729 30.2654C89.9609 30.2979 90.188 30.2363 90.396 30.0773L90.3961 30.0773L90.3977 30.076C90.6408 29.8869 90.8364 29.6858 90.8799 29.4222C90.9233 29.1584 90.8009 28.9118 90.6452 28.6732C90.5318 28.4996 90.3742 28.2928 90.1865 28.0467C90.1107 27.9473 90.03 27.8414 89.9453 27.7287C89.646 27.3303 89.2817 26.827 88.8669 26.1706L84.935 29.1315ZM87.2531 27.4038C87.2531 27.4038 87.2536 27.4041 87.2546 27.4047L87.2531 27.4038Z" fill="#FFE071" stroke="#FFE071" stroke-width="0.5"/>
<path d="M69.6626 35.2118L69.6626 35.2118L69.6632 35.2097C69.9138 34.2558 70.0753 33.5166 70.2011 32.9406C70.2164 32.8702 70.2313 32.8023 70.2457 32.7367C70.38 32.1249 70.472 31.7424 70.5966 31.4733C70.7112 31.2257 70.8506 31.081 71.0987 30.955C71.3674 30.8185 71.7541 30.7086 72.3716 30.5469L72.3718 30.5469L72.373 30.5468C72.374 30.5468 72.3769 30.5469 72.382 30.5481C72.3928 30.5507 72.4125 30.5579 72.4414 30.5765C72.5014 30.6151 72.5771 30.687 72.6652 30.7984C72.8403 31.0199 73.0249 31.3464 73.201 31.7086C73.5404 32.4072 73.823 33.1864 73.9219 33.459C73.9246 33.4663 73.9271 33.4733 73.9295 33.4799C74.0392 33.81 74.2323 34.0348 74.4935 34.1329C74.7472 34.2283 75.0147 34.1849 75.2401 34.0888C75.4671 33.9919 75.6768 33.8317 75.8363 33.649C75.9933 33.4692 76.1208 33.2452 76.1483 33.0127C76.1588 32.9241 76.1403 32.8218 76.1198 32.7345C76.0971 32.6383 76.0625 32.524 76.0192 32.3969C75.9325 32.142 75.8054 31.8188 75.6519 31.4529C75.3446 30.7203 74.9253 29.8018 74.4954 28.8875C73.7552 27.3131 72.9795 25.7424 72.6821 25.1401C72.6361 25.047 72.6015 24.977 72.5803 24.9338C72.4834 24.7089 72.3196 24.5192 72.1109 24.3907C71.9001 24.261 71.6543 24.2003 71.4074 24.2171L71.4074 24.2168L71.3958 24.2181C71.2924 24.23 71.1941 24.2377 71.0918 24.2457C71.0271 24.2507 70.9606 24.2559 70.8903 24.2624C70.7185 24.2781 70.5375 24.3007 70.3643 24.3489C70.0017 24.4498 69.6769 24.6635 69.4916 25.124C69.3295 25.5269 69.135 26.3783 68.8347 27.9366C68.5322 29.5061 68.1178 31.8194 67.5194 35.1692C67.4573 35.5131 67.5233 35.8116 67.763 35.9875C67.9801 36.1469 68.2655 36.1458 68.5014 36.097C68.7474 36.046 69.0007 35.9317 69.2063 35.7863C69.4045 35.6461 69.5982 35.4485 69.6626 35.2118ZM71.7173 28.7217C71.6712 28.8148 71.5118 28.965 70.9377 28.889C70.9342 28.8615 70.9312 28.8271 70.929 28.7854C70.9206 28.619 70.9291 28.3911 70.9451 28.1443C70.9573 27.9568 70.9732 27.7654 70.9879 27.5895C70.9924 27.5355 70.9968 27.4829 71.0009 27.4323C71.0096 27.3261 71.0177 27.222 71.0225 27.1326C71.2053 27.3031 71.432 27.6082 71.5859 27.9327C71.6655 28.1007 71.7207 28.2635 71.7429 28.4062C71.7653 28.5508 71.7509 28.6539 71.7173 28.7217Z" fill="#FFE071" stroke="#FFE071" stroke-width="0.5"/>
<path d="M76.7938 31.3077L76.7938 31.3077L78.1596 32.759L78.2405 32.9956C78.2408 32.9955 78.2411 32.9954 78.2414 32.9953C78.5385 32.8935 78.7498 32.7127 78.8621 32.4189C78.9651 32.1493 78.9758 31.805 78.9461 31.3908C78.9159 30.9707 78.8402 30.4397 78.7438 29.7792C78.7367 29.7306 78.7295 29.6814 78.7221 29.6313C78.6294 28.9971 78.5189 28.2415 78.4078 27.3383L78.4078 27.3383L78.4072 27.334C78.3792 27.1349 78.3902 27.0008 78.4132 26.9237C78.4197 26.9019 78.4259 26.8879 78.4307 26.8793C78.4468 26.8843 78.4769 26.8976 78.5229 26.9331C78.6092 26.9999 78.7199 27.123 78.8421 27.3208C79.3721 28.1817 79.7932 28.9193 80.1454 29.5362L80.16 29.5618C80.5132 30.1803 80.8017 30.6851 81.0598 31.0624C81.3138 31.4338 81.5638 31.7215 81.8539 31.8642C82.1703 32.0198 82.4912 31.9846 82.8256 31.8171C83.1235 31.668 83.3741 31.5016 83.5131 31.1977C83.6448 30.9098 83.6568 30.5386 83.6117 30.0347C83.566 29.5232 83.4551 28.8241 83.3005 27.8525L83.2931 27.8062C83.1389 26.8374 82.9406 25.5913 82.7152 23.9725L82.7152 23.9725L82.7146 23.9686C82.6763 23.722 82.6216 23.3995 82.4848 23.1459C82.414 23.0146 82.3145 22.8882 82.1715 22.8008C82.0255 22.7117 81.8537 22.6751 81.6613 22.6935C81.3862 22.7181 81.1821 22.8616 81.0501 23.076C80.9259 23.2778 80.8689 23.5351 80.8467 23.8036C80.8022 24.3423 80.8911 25.0328 81.0102 25.7036C81.0808 26.1012 81.1664 26.5133 81.2446 26.8898C81.297 27.1424 81.3462 27.3789 81.3852 27.5844C81.4147 27.7395 81.4388 27.8784 81.4561 27.9988C81.3603 27.8615 81.2432 27.6846 81.0994 27.4637C81.014 27.3323 80.9199 27.1867 80.8165 27.0266C80.3363 26.2829 79.6541 25.2267 78.6899 23.8312L78.6899 23.8312L78.6881 23.8288C78.2126 23.1581 77.4082 23.038 76.7779 23.3338C76.1389 23.6337 75.6857 24.3498 75.8429 25.3135L75.8431 25.3146C76.2116 27.5126 76.4539 29.0961 76.6277 30.2322C76.6913 30.6478 76.7457 31.0036 76.7938 31.3077ZM78.4401 26.8665C78.4402 26.8667 78.4393 26.8677 78.4374 26.869C78.439 26.867 78.44 26.8664 78.4401 26.8665ZM81.4782 28.4143C81.4782 28.4142 81.4785 28.4129 81.4793 28.4107C81.4787 28.4132 81.4783 28.4144 81.4782 28.4143Z" fill="#FFE071" stroke="#FFE071" stroke-width="0.5"/>
<path d="M61.3248 37.694L61.3255 37.694C63.7445 37.6297 65.7361 36.1264 66.5694 34.4453C66.987 33.6029 67.1249 32.6919 66.8484 31.8851C66.5689 31.0697 65.8826 30.409 64.7527 30.0453C64.6382 30.0077 64.593 29.9612 64.5706 29.9239C64.5451 29.8812 64.5274 29.8135 64.5318 29.6989C64.5362 29.5836 64.5615 29.4454 64.5997 29.2767C64.6125 29.2204 64.627 29.1593 64.6422 29.0952C64.6701 28.9783 64.7002 28.8517 64.7259 28.7269C64.8073 28.3323 64.8655 27.8693 64.7391 27.3989C64.6103 26.9195 64.2981 26.4619 63.6953 26.0632C62.9602 25.5687 61.8281 25.4313 60.8956 25.6155C60.4254 25.7083 59.981 25.8874 59.6526 26.1677C59.3188 26.4528 59.1064 26.8433 59.122 27.3288C59.122 28.0295 59.1217 28.6216 58.9542 36.1049L58.954 36.1049L58.9541 36.1134C58.9597 36.5913 58.9772 36.9466 59.0383 37.1975C59.0697 37.3262 59.1163 37.4451 59.1922 37.5437C59.2717 37.6471 59.373 37.7148 59.4896 37.7539C59.6001 37.791 59.7188 37.8006 59.8356 37.8C59.9532 37.7995 60.0855 37.7883 60.2275 37.7745C60.2689 37.7704 60.3116 37.7661 60.3558 37.7617C60.6193 37.7351 60.9345 37.7033 61.3248 37.694ZM61.6238 28.2418C61.6437 28.2077 61.6664 28.1738 61.6928 28.1386L61.8733 27.9636C61.8737 27.9632 61.874 27.9629 61.8744 27.9625C61.8818 27.9551 61.8919 27.9451 61.9406 27.9587C62.0032 27.9762 62.0906 28.0268 62.1897 28.1143C62.2856 28.199 62.377 28.3046 62.4486 28.4084C62.5231 28.5162 62.5637 28.6038 62.5756 28.6515L62.5753 28.6516L62.5792 28.6643C62.6168 28.7868 62.5851 28.9826 62.4534 29.2331C62.3269 29.4736 62.1314 29.7191 61.9259 29.9139C61.7254 30.1039 61.5453 30.2174 61.4345 30.2522C61.4345 30.2487 61.4345 30.2451 61.4345 30.2412L61.4346 30.2398C61.4402 29.3526 61.444 28.8922 61.5029 28.5831C61.5306 28.4376 61.5694 28.3347 61.6238 28.2418ZM61.3833 30.2625C61.3833 30.2624 61.384 30.2624 61.3854 30.2626C61.3839 30.2626 61.3832 30.2625 61.3833 30.2625ZM61.4401 30.3023C61.4406 30.3033 61.4407 30.3038 61.4407 30.3039L61.4401 30.3023ZM61.4447 32.5926L61.4537 32.4966C61.5094 32.4412 61.5946 32.377 61.7083 32.3113C61.952 32.1705 62.2924 32.0424 62.6567 31.9792C63.3972 31.8508 64.1057 32.0006 64.407 32.6564C64.5402 33.1165 64.5033 33.6095 64.3029 34.0448L64.3026 34.0447L64.2977 34.0569C64.0409 34.7025 63.6051 35.0697 63.0721 35.3179C62.6221 35.5274 62.1176 35.6469 61.5887 35.7721C61.4944 35.7944 61.3993 35.8169 61.3037 35.8402C61.2994 35.8283 61.2946 35.8134 61.2897 35.7947C61.2527 35.6537 61.2374 35.4181 61.2443 35.0918C61.2556 34.5602 61.323 33.86 61.3969 33.0926C61.4127 32.9287 61.4288 32.7617 61.4447 32.5926Z" fill="#FFE071" stroke="#FFE071" stroke-width="0.5"/>
<path d="M87.4439 43.0018V43.022L87.4472 43.042C87.5532 43.6929 87.6599 45.5546 87.7637 48.0453C87.8671 50.5268 87.9671 53.6108 88.0622 56.6899C88.0883 57.5347 88.114 58.3795 88.1394 59.2118C88.2985 64.4347 88.4424 69.1595 88.5644 70.2393L88.5645 70.2407C88.5861 70.4226 88.6758 70.5787 88.8184 70.6723C88.9605 70.7656 89.1371 70.7839 89.2983 70.7219C89.6292 70.5947 89.7931 70.1992 89.7442 69.6837C89.6481 68.6284 89.5458 65.6958 89.4209 62.1203C89.3578 60.3119 89.2889 58.3391 89.2122 56.3615C89.0982 53.4221 88.967 50.4764 88.8117 48.0567C88.6571 45.6479 88.4774 43.7325 88.2608 42.8734L88.261 42.8734L88.2582 42.8641C88.2027 42.6749 88.1398 42.5013 88.0581 42.3894C88.0183 42.3349 87.9426 42.2506 87.8209 42.2284C87.6847 42.2036 87.5803 42.27 87.5201 42.329C87.4548 42.3911 87.3959 42.4677 87.3713 42.5656C87.3454 42.6681 87.367 42.7549 87.3859 42.8104C87.4009 42.8548 87.4127 42.8832 87.4216 42.9046C87.4372 42.9422 87.4439 42.9584 87.4439 43.0018Z" fill="#FFE071" stroke="#FFE071" stroke-width="0.5"/>
<path d="M60.8797 78.8706L60.8824 78.8792L60.8857 78.8877C60.9317 79.0067 60.9801 79.1107 61.0332 79.1869C61.0593 79.2243 61.097 79.2705 61.1494 79.3057C61.2062 79.3438 61.296 79.378 61.4001 79.3491C61.4949 79.3228 61.551 79.2575 61.5796 79.2148C61.6097 79.17 61.6293 79.121 61.6431 79.0784C61.6709 78.9924 61.6898 78.884 61.7036 78.7644C61.7591 78.2867 61.7565 77.4177 61.7151 76.2974C61.632 74.0455 61.3889 70.7048 61.1022 67.2551C60.8154 63.8041 60.4845 60.2397 60.2253 57.5382C60.0958 56.1874 59.9841 55.0522 59.9048 54.2547C59.8652 53.856 59.8337 53.5416 59.8121 53.327L59.7873 53.0816L59.7809 53.0186L59.7807 53.0166C59.8135 52.4106 59.8359 51.8441 59.7911 51.2745C59.7882 51.0991 59.7163 50.9527 59.5982 50.8526C59.484 50.7558 59.3427 50.715 59.2153 50.7107C59.0888 50.7065 58.9511 50.7372 58.8382 50.8145C58.7195 50.8958 58.6261 51.0332 58.631 51.2123C58.6324 51.3022 58.6651 51.7803 58.7191 52.527C58.7749 53.2986 58.8549 54.3739 58.9515 55.652C59.1447 58.2082 59.4045 61.5764 59.671 64.9505C59.9374 68.3245 60.2105 71.7049 60.4304 74.2855C60.5403 75.5756 60.6369 76.6665 60.7128 77.457C60.7507 77.8521 60.7835 78.1732 60.8103 78.4071C60.8236 78.5238 60.8357 78.6203 60.8462 78.694C60.8557 78.76 60.8664 78.8269 60.8797 78.8706Z" fill="#FFE071" stroke="#FFE071" stroke-width="0.5"/>
<path d="M56.1715 51.8329L56.1684 51.8544L56.1691 51.876L56.874 76.1679C56.8739 76.4087 56.8696 76.6846 56.865 76.9756C56.8544 77.6512 56.8425 78.4081 56.8801 78.9958C56.8937 79.2088 56.914 79.4065 56.9446 79.5753C56.9742 79.7387 57.0171 79.8978 57.0872 80.0185C57.1231 80.0802 57.1748 80.1471 57.2501 80.1946C57.3317 80.2461 57.4273 80.2658 57.5253 80.2484C57.6958 80.2182 57.8311 80.0838 57.9364 79.9491L57.9366 79.9489C57.9638 79.914 57.9767 79.8793 57.9818 79.8646C57.9884 79.8458 57.9929 79.8277 57.9962 79.813C58.0027 79.7834 58.0076 79.75 58.0117 79.7161C58.0199 79.6473 58.0268 79.5563 58.0327 79.4473C58.0446 79.2282 58.0534 78.9204 58.0596 78.5384C58.0719 77.7735 58.0736 76.701 58.0662 75.4225C58.0513 72.865 57.9999 69.4778 57.9237 66.0673C57.8474 62.6569 57.7463 59.2216 57.632 56.5682C57.5749 55.2418 57.5144 54.1088 57.4519 53.2713C57.4207 52.8529 57.3888 52.5056 57.3563 52.2436C57.34 52.1128 57.3232 52.0004 57.3057 51.9097C57.2895 51.8253 57.269 51.7394 57.2393 51.6747L57.2393 51.6747L57.2379 51.6719C57.1861 51.5626 57.1005 51.4729 56.9937 51.416C56.8868 51.3591 56.7645 51.3382 56.645 51.3563C56.5253 51.3744 56.4147 51.4306 56.3294 51.5164C56.2442 51.6022 56.1889 51.7132 56.1715 51.8329Z" fill="#FFE071" stroke="#FFE071" stroke-width="0.5"/>
<path d="M45.4538 82.4051L45.4541 82.4042C45.4756 82.347 45.4854 82.2762 45.4916 82.2168C45.4986 82.1499 45.5036 82.0676 45.507 81.9727C45.514 81.7826 45.5154 81.5294 45.512 81.2224C45.5052 80.6077 45.4794 79.7659 45.4398 78.7575C45.3607 76.74 45.2264 74.0468 45.0781 71.1502C45.0483 70.5671 45.0178 69.9758 44.9872 69.38C44.7138 64.0639 44.4224 58.3974 44.3514 55.0981C44.3673 54.9546 44.3291 54.8098 44.2435 54.6926C44.153 54.5686 44.0169 54.4857 43.8652 54.4621C43.7136 54.4385 43.5588 54.4763 43.435 54.567C43.3152 54.6547 43.2339 54.7849 43.2075 54.9306C43.1974 54.972 43.1948 55.0146 43.1934 55.0398C43.1911 55.0804 43.1903 55.1294 43.1905 55.1835C43.1908 55.2921 43.1951 55.4334 43.2021 55.5944C43.216 55.9171 43.241 56.3292 43.2683 56.7401C43.3013 57.2372 43.3375 57.7288 43.3623 58.0664C43.3787 58.2897 43.3901 58.4457 43.3925 58.4914C43.5724 63.0218 43.6988 67.0051 43.8054 70.3641C43.9008 73.37 43.9803 75.876 44.0681 77.8266C44.161 79.8894 44.2638 81.3561 44.4082 82.1463C44.4444 82.3443 44.4852 82.5117 44.5335 82.6394C44.5576 82.7031 44.5869 82.7658 44.624 82.8199C44.6596 82.8717 44.7162 82.936 44.8024 82.9715C44.9007 83.0119 45.001 83.0003 45.0831 82.9586C45.1555 82.9219 45.2086 82.8652 45.2465 82.8154C45.3226 82.7155 45.3902 82.5722 45.4538 82.4051Z" fill="#FFE071" stroke="#FFE071" stroke-width="0.5"/>
<path d="M40.7107 55.1569L40.7106 55.1567L40.7007 55.16C40.5939 55.1948 40.5469 55.2828 40.5354 55.3042L40.5354 55.3042C40.5163 55.34 40.5033 55.3782 40.494 55.4101C40.4749 55.4757 40.4588 55.56 40.4444 55.655C40.4153 55.8475 40.3884 56.1194 40.3631 56.4561C40.3124 57.1313 40.2671 58.088 40.2274 59.2388C40.1479 61.5415 40.0905 64.6325 40.0584 67.8288C39.9943 74.1999 40.0299 81.0164 40.1926 82.8312L40.1926 82.8371C40.1926 82.9624 40.1926 83.0876 40.2066 83.1808C40.2137 83.2282 40.2286 83.3004 40.2717 83.3658C40.3262 83.4485 40.4182 83.5071 40.5321 83.5071C40.6279 83.5071 40.71 83.467 40.7697 83.4053C40.8208 83.3524 40.8498 83.2898 40.868 83.242C40.9038 83.1476 40.9298 83.0178 40.9566 82.8783L40.9567 82.8783L40.9576 82.8727C41.0364 82.4052 41.0897 81.5705 41.1309 80.3236C41.1722 79.0713 41.2016 77.3881 41.2296 75.214C41.2487 73.7294 41.2671 72.0157 41.2882 70.0529C41.329 66.2643 41.3798 61.5477 41.4645 55.7599L41.4645 55.7599V55.7563C41.4645 55.6009 41.4033 55.4272 41.2798 55.3011C41.1448 55.1633 40.9424 55.0919 40.7107 55.1569ZM40.7038 83.1203C40.7037 83.1203 40.7036 83.1199 40.7034 83.1189L40.7038 83.1203Z" fill="#FFE071" stroke="#FFE071" stroke-width="0.5"/>
</svg>
