<svg width="124" height="95" viewBox="0 0 124 95" fill="none" xmlns="http://www.w3.org/2000/svg">
<path d="M1.71944 79.3664C1.71944 78.9555 2.27288 78.9267 2.39692 79.2803C2.60256 79.9491 2.73688 80.6379 2.79766 81.3351C3.12208 67.7836 1.93891 54.194 2.62592 40.6426C2.95034 34.3352 7.67353 34.2014 12.4253 33.8191C16.3756 33.4942 20.3641 33.4655 24.3239 33.4081C31.4611 33.3125 38.6366 33.2362 45.7356 33.2362C45.796 33.2376 45.8553 33.2199 45.905 33.1855C45.9547 33.1512 45.9923 33.102 46.0124 33.045C42.5678 33.045 39.1327 33.045 35.7072 32.9017C35.6125 32.8989 35.5215 32.8641 35.449 32.8029C35.3765 32.7417 35.3269 32.6578 35.3081 32.5648C35.2893 32.4717 35.3024 32.375 35.3455 32.2904C35.3885 32.2058 35.4588 32.1383 35.545 32.0989H34.5909V32.8826C33.9939 32.7409 33.3818 32.6735 32.7684 32.6819V32.0416C28.4619 31.9396 24.1553 31.9078 19.8488 31.946C15.8508 31.946 4.3339 30.9903 2.10113 35.5966C-1.04766 42.1525 0.698475 52.4356 0.774809 59.4884C0.860685 67.4492 0.660303 75.6202 1.60494 83.5618C1.72123 82.1666 1.75945 80.7659 1.71944 79.3664Z" fill="#FFE071"/>
<path d="M62.3575 91.7806C62.5865 91.7233 62.8251 91.685 63.0636 91.6372C61.432 91.6372 59.8099 91.6373 58.2164 91.6946C50.812 91.6946 43.4171 91.857 36.0127 91.9621C29.1235 92.0481 22.2153 91.9049 15.3261 92.1725C12.5346 92.3849 9.7274 92.2273 6.97706 91.7041C2.68326 90.7484 3.2176 85.1961 2.79776 81.3352C2.73698 80.6381 2.60266 79.9493 2.39702 79.2805C2.27298 78.927 1.69091 78.9557 1.71953 79.3666C1.7733 80.7462 1.751 82.1275 1.65274 83.5046C1.4619 87.1743 1.40468 90.7198 5.07826 92.8318C9.63922 95.4503 17.4826 93.8448 22.4443 93.7875C32.1197 93.7875 41.795 93.5868 51.4703 93.4721C57.0427 93.4148 63.1304 94.0551 68.76 93.3575C66.5996 93.2508 64.4551 92.9307 62.3575 92.4018C62.3042 92.3694 62.2601 92.3238 62.2295 92.2694C62.1989 92.215 62.1828 92.1536 62.1828 92.0911C62.1828 92.0287 62.1989 91.9673 62.2295 91.9129C62.2601 91.8585 62.3042 91.813 62.3575 91.7806Z" fill="#FFE071"/>
<path d="M90.1133 74.3371C90.037 73.3814 89.9702 72.4257 89.9225 71.47C89.9225 74.9869 89.9225 78.5133 89.8462 82.0397C89.6362 88.3854 86.0295 90.163 80.6479 91.09C74.9229 92.0457 68.7017 90.5835 63.0625 91.673C62.824 91.673 62.5855 91.7589 62.3564 91.8162C62.281 91.8381 62.2146 91.884 62.1674 91.9469C62.1202 92.0098 62.0947 92.0865 62.0947 92.1651C62.0947 92.2438 62.1202 92.3204 62.1674 92.3833C62.2146 92.4462 62.281 92.4921 62.3564 92.514C64.454 93.0429 66.5985 93.363 68.7589 93.4696C74.4143 93.7774 80.0796 93.0851 85.4951 91.4245C88.4149 90.4688 89.8652 88.6339 90.6763 85.7573C92.0503 80.9216 91.3824 74.509 90.9721 69.1477C90.9148 70.9061 90.8576 72.655 90.7812 74.4135C90.7711 74.5022 90.7262 74.5833 90.6564 74.6389C90.5866 74.6944 90.4977 74.7199 90.4091 74.7098C90.3205 74.6996 90.2396 74.6546 90.1841 74.5847C90.1287 74.5148 90.1032 74.4258 90.1133 74.3371Z" fill="#FFE071"/>
<path d="M90.2365 60.5086H91.0857C91.0857 56.6191 91.0857 52.739 90.828 48.8398C90.599 44.7782 90.9139 34.2946 86.1812 32.2781C83.8053 31.2651 80.5134 31.4944 78.0039 31.3988C72.9373 31.2077 67.8611 31.3224 62.7944 31.3988C53.7679 31.5804 44.6651 32.3546 35.6673 32.0583C35.6137 32.0475 35.5586 32.0475 35.5051 32.0583C35.4189 32.0978 35.3485 32.1653 35.3055 32.2499C35.2625 32.3345 35.2493 32.4311 35.2681 32.5241C35.2869 32.6172 35.3366 32.7011 35.4091 32.7622C35.4815 32.8234 35.5725 32.8583 35.6673 32.8611C39.0928 33.0235 42.5278 33.0522 45.9723 33.0044C58.3766 32.8611 70.7809 31.8385 83.0802 33.1095C90.4464 33.8741 89.33 47.4446 89.5399 52.9397C89.7689 59.0751 89.5399 65.2487 89.8834 71.3936C89.9311 72.3493 89.9979 73.305 90.0743 74.2606C90.0743 74.3493 90.1094 74.4345 90.172 74.4972C90.2347 74.5599 90.3196 74.5952 90.4082 74.5952C90.4968 74.5952 90.5817 74.5599 90.6444 74.4972C90.707 74.4345 90.7422 74.3493 90.7422 74.2606C90.8185 72.5022 90.8757 70.7534 90.933 68.995C90.9998 66.7969 91.0475 64.6084 91.0761 62.4104H90.2937C90.3387 61.7762 90.3195 61.139 90.2365 60.5086Z" fill="#FFE071"/>
<path d="M34.6375 32.852V32.0684C34.5802 29.9022 34.5325 27.7296 34.4944 25.5507C34.1222 25.4838 33.7405 25.4456 33.3779 25.3596C33.0154 25.2736 33.2062 24.9582 33.4352 24.9582H33.9409L33.4161 16.9497C33.326 16.9459 33.2404 16.9096 33.175 16.8473C33.1097 16.785 33.0692 16.701 33.0611 16.6111C33.0529 16.5211 33.0776 16.4313 33.1307 16.3583C33.1837 16.2852 33.2614 16.2338 33.3493 16.2138C33.7119 16.0992 34.084 15.9941 34.4562 15.8985C34.4562 13.7483 34.5325 11.598 34.647 9.45733C34.9619 3.15949 39.6946 3.01612 44.4368 2.63386C48.3871 2.30893 52.3755 2.28021 56.3354 2.22287C63.4726 2.1273 70.648 2.05092 77.747 2.05092C77.8074 2.05235 77.8667 2.03461 77.9164 2.00029C77.9661 1.96596 78.0036 1.91684 78.0238 1.85983C74.5887 1.85983 71.1537 1.85981 67.7187 1.71646C67.6247 1.71172 67.535 1.67545 67.4641 1.61356C67.3931 1.55167 67.3449 1.4677 67.3273 1.37511C67.3097 1.28253 67.3236 1.18675 67.3669 1.10307C67.4102 1.01938 67.4803 0.952615 67.566 0.913612C62.3435 0.754335 57.1274 0.693865 51.9176 0.732092C47.9101 0.732092 36.4027 -0.271409 34.1604 4.38268C31.0211 10.9386 32.7673 21.2215 32.8341 28.2743C32.8341 29.5263 32.8341 30.7782 32.8341 32.0397V32.6801C33.44 32.6638 34.0455 32.7215 34.6375 32.852Z" fill="#FFE071"/>
<path d="M94.3212 60.5972L95.0369 60.4538C93.7297 60.4538 92.4224 60.4538 91.1247 60.5016H90.2373C90.321 61.1351 90.3402 61.7754 90.2946 62.4128H91.077C94.3074 62.5691 97.5451 62.4796 100.762 62.1452C98.5765 62.0378 96.4066 61.7178 94.283 61.1896C94.2378 61.1531 94.2019 61.1062 94.1786 61.0529C94.1552 60.9996 94.1449 60.9415 94.1487 60.8834C94.1524 60.8253 94.1701 60.769 94.2001 60.7192C94.2301 60.6693 94.2717 60.6275 94.3212 60.5972Z" fill="#FFE071"/>
<path d="M122.755 43.135C122.755 43.2237 122.72 43.3087 122.657 43.3714C122.594 43.4342 122.509 43.4694 122.421 43.4694C122.332 43.4694 122.247 43.4342 122.185 43.3714C122.122 43.3087 122.087 43.2237 122.087 43.135C122.001 42.1793 121.944 41.2236 121.886 40.2679C121.886 43.7944 121.934 47.3113 121.81 50.8377C121.6 57.1738 117.993 58.9609 112.612 59.8879C106.887 60.8436 100.675 59.3814 95.0359 60.4709L94.3203 60.6142C94.2448 60.6361 94.1785 60.682 94.1313 60.7449C94.0841 60.8078 94.0586 60.8844 94.0586 60.963C94.0586 61.0417 94.0841 61.1183 94.1313 61.1812C94.1785 61.2441 94.2448 61.29 94.3203 61.3119C96.4439 61.8401 98.6137 62.1601 100.799 62.2675C106.43 62.5594 112.068 61.864 117.459 60.2128C120.379 59.2571 121.829 57.4222 122.65 54.5456C124.014 49.7099 123.356 43.2975 122.936 37.9362C122.888 39.6373 122.822 41.3956 122.755 43.135Z" fill="#FFE071"/>
<path d="M67.671 1.71691C71.106 1.87937 74.541 1.90807 77.9761 1.86028C90.3803 1.71693 102.785 0.69436 115.093 1.96539C119.912 2.47189 121.095 8.45427 121.4 14.0736H122.002C122.052 14.0672 122.103 14.0813 122.143 14.1126C122.184 14.144 122.21 14.1902 122.216 14.2409C122.223 14.2915 122.209 14.3426 122.177 14.3829C122.146 14.4233 122.1 14.4495 122.049 14.4559L122.402 23.8787C122.456 23.8896 122.505 23.9189 122.54 23.9616C122.574 24.0043 122.593 24.0577 122.593 24.1128C122.593 24.1679 122.574 24.2213 122.54 24.264C122.505 24.3067 122.456 24.336 122.402 24.3469H121.601C121.715 29.6318 121.601 34.9357 121.868 40.2109C121.925 41.1666 121.982 42.1222 122.068 43.0779C122.068 43.1666 122.104 43.2518 122.166 43.3145C122.229 43.3772 122.314 43.4125 122.402 43.4125C122.491 43.4125 122.576 43.3772 122.638 43.3145C122.701 43.2518 122.736 43.1666 122.736 43.0779C122.803 41.3195 122.87 39.5612 122.918 37.8123C123.137 31.0653 123.194 24.3374 122.813 17.5713C122.593 13.5098 122.908 3.02618 118.175 1.00973C115.79 -0.00327365 112.498 0.226043 109.989 0.130477C104.931 -0.0606555 99.8457 0.0540241 94.7886 0.130477C85.7621 0.312053 76.6593 1.08609 67.6519 0.799394C67.6015 0.789353 67.5496 0.789353 67.4992 0.799394C67.3777 0.822206 67.2703 0.892407 67.2005 0.994563C67.1307 1.09672 67.1044 1.22253 67.1271 1.34419C67.1499 1.46585 67.22 1.5734 67.322 1.6433C67.424 1.7132 67.5495 1.73972 67.671 1.71691Z" fill="#FFE071"/>
<path d="M16.0614 68.1266H16.3285C16.5718 66.4492 16.6103 64.7483 16.443 63.0616C16.4099 61.4831 16.2953 59.9074 16.0995 58.3407H15.6416C15.5806 58.329 15.5255 58.2963 15.4859 58.2483C15.4463 58.2003 15.4247 58.1401 15.4247 58.0779C15.4247 58.0156 15.4463 57.9554 15.4859 57.9074C15.5255 57.8595 15.5806 57.8267 15.6416 57.815H16.0327C15.9755 57.3659 15.2027 57.471 15.2409 57.9297C15.3777 59.6686 15.4191 61.4137 15.3649 63.1571C15.3649 64.9156 14.9833 66.7887 15.4412 68.4994C15.4631 68.5771 15.5073 68.6466 15.5684 68.6993C15.6295 68.752 15.7047 68.7854 15.7847 68.7956C15.7033 68.7541 15.6406 68.6835 15.609 68.5977C15.5774 68.5119 15.5792 68.4174 15.6142 68.3329C15.6491 68.2484 15.7145 68.1803 15.7974 68.142C15.8803 68.1038 15.9746 68.0983 16.0614 68.1266Z" fill="#FFE071"/>
<path d="M15.6406 58.2818H16.0985C25.3445 59.1707 34.9053 58.5303 44.1703 58.5016C53.7121 58.5016 63.3684 58.7406 72.9483 58.5016C72.9436 58.4635 72.9436 58.425 72.9483 58.3869C72.9493 58.3102 72.9759 58.2361 73.0239 58.1762C73.0719 58.1164 73.1385 58.0742 73.2131 58.0566C73.2877 58.0391 73.366 58.047 73.4355 58.0792C73.5051 58.1113 73.562 58.1659 73.5971 58.2341C73.6038 58.1907 73.6017 58.1462 73.5907 58.1037C73.5798 58.0611 73.5604 58.0211 73.5336 57.9863C73.5069 57.9514 73.4733 57.9224 73.435 57.9009C73.3967 57.8794 73.3545 57.866 73.3109 57.8613C63.7691 56.7049 53.7598 57.4121 44.1608 57.4981C34.7908 57.5937 25.3826 57.3834 16.0222 57.6988H15.631C15.5928 57.6994 15.5551 57.7076 15.52 57.7229C15.4849 57.7381 15.4532 57.7601 15.4266 57.7876C15.4001 57.8151 15.3791 57.8476 15.3651 57.8832C15.351 57.9188 15.3441 57.9569 15.3448 57.9952C15.3454 58.0334 15.3536 58.0712 15.3688 58.1063C15.384 58.1415 15.4059 58.1732 15.4333 58.1998C15.4608 58.2264 15.4932 58.2474 15.5288 58.2615C15.5643 58.2756 15.6023 58.2824 15.6406 58.2818Z" fill="#FFE071"/>
<path d="M72.6335 68.6895C63.2921 67.5044 53.779 67.7338 44.3708 67.6573C35.1248 67.6 25.5544 67.1508 16.3275 68.1065H16.0604C15.9985 68.1118 15.939 68.133 15.8876 68.1679C15.8362 68.2028 15.7946 68.2504 15.7668 68.306C15.7391 68.3617 15.726 68.4234 15.7289 68.4856C15.7319 68.5477 15.7507 68.6081 15.7836 68.6608C15.8122 68.7085 15.8528 68.7477 15.9014 68.7746C15.95 68.8014 16.0049 68.815 16.0604 68.8138C34.8195 69.6453 53.903 69.1388 72.6908 69.091C72.6908 69.091 72.6908 69.091 72.7671 69.091C72.7458 69.0798 72.7277 69.0634 72.7143 69.0434C72.701 69.0233 72.6929 69.0003 72.6908 68.9763L72.6335 68.6895Z" fill="#FFE071"/>
<path d="M73.6072 58.284C73.5721 58.2158 73.5152 58.1614 73.4456 58.1292C73.3761 58.0971 73.2978 58.0891 73.2232 58.1067C73.1486 58.1243 73.082 58.1663 73.0341 58.2262C72.9861 58.286 72.9595 58.3602 72.9584 58.437C72.9537 58.4751 72.9537 58.5136 72.9584 58.5517C72.7867 60.2718 72.7771 62.0206 72.6912 63.7503C72.4704 65.3888 72.4544 67.0486 72.6436 68.6911L72.7008 68.9587C72.7029 68.9827 72.711 69.0057 72.7243 69.0258C72.7377 69.0458 72.7558 69.0622 72.7771 69.0734C72.8062 69.0928 72.8393 69.1054 72.8739 69.1101C72.9086 69.1148 72.9438 69.1114 72.9769 69.1003C73.0101 69.0892 73.0403 69.0707 73.0652 69.0462C73.0901 69.0216 73.109 68.9917 73.1206 68.9587C73.5271 67.4487 73.7103 65.8871 73.6644 64.3238C73.8123 62.3643 73.8123 60.3965 73.6644 58.437C73.6566 58.3825 73.637 58.3303 73.6072 58.284Z" fill="#FFE071"/>
<path d="M30.5923 79.8635C28.0065 80.2267 25.3348 76.8814 24.4188 80.198C24.0592 79.9239 23.7383 79.6024 23.4646 79.2422C23.4375 79.197 23.4007 79.1584 23.3568 79.1293C23.3129 79.1001 23.263 79.0812 23.2109 79.0739C23.1587 79.0665 23.1056 79.0709 23.0554 79.0868C23.0052 79.1027 22.9592 79.1297 22.9207 79.1657C22.7049 79.5235 22.4106 79.8274 22.0601 80.0543C21.7096 80.2811 21.3122 80.425 20.8979 80.4751L20.4112 79.3091C20.3802 79.2097 20.3127 79.1259 20.2224 79.0744C20.1321 79.023 20.0257 79.0079 19.9246 79.032C18.991 79.2391 18.1424 79.7258 17.4914 80.4274C17.4595 80.4594 17.4341 80.4973 17.4168 80.5391C17.3995 80.581 17.3906 80.6258 17.3906 80.6711C17.3906 80.7164 17.3995 80.7611 17.4168 80.8029C17.4341 80.8448 17.4595 80.8828 17.4914 80.9148C17.5234 80.9468 17.5613 80.9722 17.6031 80.9895C17.6448 81.0068 17.6896 81.0158 17.7348 81.0158C17.7799 81.0158 17.8247 81.0068 17.8664 80.9895C17.9082 80.9722 17.9461 80.9468 17.9781 80.9148C19.3998 79.5576 20.0104 79.7297 20.3158 81.3927C20.3279 81.4382 20.3489 81.4807 20.3777 81.5179C20.4064 81.5551 20.4423 81.5861 20.4831 81.6093C20.524 81.6324 20.5691 81.6472 20.6158 81.6527C20.6624 81.6581 20.7096 81.6543 20.7547 81.6412C21.5636 81.3527 22.2974 80.8855 22.9016 80.2744C23.2928 79.9112 24.0848 80.8861 24.3806 81.1346C24.4258 81.176 24.4808 81.2053 24.5403 81.2197C24.5999 81.2341 24.6621 81.2331 24.7212 81.2169C24.7802 81.2007 24.8342 81.1696 24.8781 81.1268C24.922 81.084 24.9544 81.0308 24.9722 80.9721C25.4111 78.6209 26.6993 79.7583 28.0638 80.3031C28.9178 80.6818 29.8691 80.782 30.7832 80.5898C31.2412 80.4082 31.0789 79.8061 30.5923 79.8635Z" fill="#FFE071"/>
<path d="M49.0637 80.7124C46.1344 79.2407 43.1001 80.7125 40.0849 79.8619C37.8902 79.2503 35.8006 78.3615 33.959 80.1294C33.5773 80.483 34.1498 81.0851 34.5219 80.6933C36.6021 78.7247 38.9971 80.7984 41.2012 80.9895C43.8539 81.2284 46.1153 80.4544 48.7584 81.4101C48.8489 81.4408 48.9476 81.4364 49.0351 81.3978C49.1225 81.3592 49.1923 81.2891 49.2307 81.2015C49.2691 81.1138 49.2732 81.015 49.2423 80.9244C49.2114 80.8339 49.1476 80.7581 49.0637 80.7124Z" fill="#FFE071"/>
<path d="M73.0622 78.2008C71.8409 78.6691 68.5872 79.0513 67.6425 77.981C67.591 77.9284 67.5281 77.8885 67.4586 77.8643C67.3891 77.84 67.315 77.8322 67.242 77.8415C67.169 77.8508 67.0991 77.8768 67.0379 77.9176C66.9766 77.9583 66.9256 78.0129 66.8888 78.0767C66.631 78.5084 66.3507 78.9263 66.0491 79.3285C65.7247 78.8029 65.3716 78.2868 65.0949 77.723C65.067 77.6784 65.0296 77.6407 64.9853 77.6125C64.941 77.5843 64.891 77.5664 64.8389 77.56C64.7868 77.5536 64.7339 77.5589 64.6841 77.5755C64.6343 77.5922 64.5889 77.6197 64.5511 77.6561C63.4799 78.4698 62.5567 79.4622 61.8221 80.5899C61.812 80.6013 61.8068 80.6163 61.8077 80.6315C61.8086 80.6468 61.8155 80.6611 61.8269 80.6712C61.8383 80.6813 61.8532 80.6866 61.8685 80.6857C61.8837 80.6848 61.8979 80.6778 61.908 80.6664C62.8636 79.9757 63.775 79.2256 64.6369 78.4207C64.9041 79.0801 65.343 79.6535 65.5911 80.332C65.6155 80.4175 65.6642 80.4939 65.7313 80.5522C65.7984 80.6105 65.8809 80.648 65.9689 80.6601C66.0568 80.6723 66.1464 80.6586 66.2267 80.6207C66.307 80.5828 66.3746 80.5223 66.4212 80.4466C66.6979 79.9784 67.0223 79.5579 67.3753 79.1279C67.5738 79.3475 67.7945 79.5461 68.0337 79.7204C68.1115 79.7943 68.2108 79.8415 68.3171 79.8552C68.4234 79.8689 68.5313 79.8485 68.6253 79.7968C70.3333 78.8411 71.8599 80.4084 73.3961 78.7838C73.5679 78.5449 73.3484 78.067 73.0622 78.2008Z" fill="#FFE071"/>
<path d="M78.8464 82.8163C79.0171 82.6496 79.2223 82.5223 79.4475 82.4436C79.9437 80.2073 79.1422 77.2446 78.5601 75.0944H78.1211C78.0942 75.0945 78.0679 75.0859 78.0463 75.0697C78.0247 75.0536 78.0089 75.0309 78.0014 75.005C77.9938 74.9791 77.9949 74.9514 78.0045 74.9261C78.014 74.9009 78.0315 74.8794 78.0543 74.865L78.4456 74.6835C78.4261 74.6034 78.3778 74.5333 78.31 74.4867C78.2421 74.4401 78.1595 74.4203 78.0779 74.4309C77.9963 74.4416 77.9215 74.4821 77.8678 74.5445C77.8142 74.607 77.7855 74.6871 77.7872 74.7695C77.8635 76.1743 78.083 77.5696 78.2547 78.9553C78.2866 80.3852 78.4302 81.8103 78.6842 83.2176C78.703 83.275 78.7394 83.325 78.7882 83.3604C78.8371 83.3958 78.8958 83.4149 78.9561 83.4149C79.0164 83.4149 79.0752 83.3958 79.124 83.3604C79.1728 83.325 79.2092 83.275 79.2281 83.2176V83.1604C79.1149 83.144 79.0031 83.1185 78.8941 83.0839C78.8693 83.0734 78.8476 83.0568 78.8308 83.0357C78.814 83.0145 78.8027 82.9895 78.798 82.963C78.7933 82.9364 78.7952 82.9091 78.8037 82.8835C78.8121 82.8579 78.8268 82.8348 78.8464 82.8163Z" fill="#FFE071"/>
<path d="M78.0511 74.8635C78.0283 74.8779 78.0108 74.8994 78.0012 74.9247C77.9917 74.9499 77.9906 74.9776 77.9981 75.0035C78.0057 75.0295 78.0214 75.0522 78.043 75.0683C78.0646 75.0844 78.0909 75.0931 78.1179 75.0929H78.5568C80.5511 75.0929 82.593 75.0261 84.5873 74.9114C84.5919 74.8254 84.5919 74.7393 84.5873 74.6533C84.6105 74.5685 84.6609 74.4937 84.7307 74.4404C84.8006 74.3871 84.8859 74.3583 84.9737 74.3583C85.0615 74.3583 85.1469 74.3871 85.2167 74.4404C85.2865 74.4937 85.3369 74.5685 85.3602 74.6533V74.835C85.4674 74.7822 85.5542 74.6955 85.6073 74.5883C85.6605 74.4812 85.6769 74.3595 85.6541 74.2421C85.6313 74.1247 85.5705 74.018 85.4812 73.9386C85.3919 73.8592 85.2789 73.8114 85.1598 73.8027C82.8607 73.5509 80.5349 73.8524 78.3755 74.682L78.0511 74.8635Z" fill="#FFE071"/>
<path d="M84.6269 74.6717C84.6315 74.7576 84.6315 74.8438 84.6269 74.9297C84.2775 77.282 84.3292 79.6765 84.7796 82.0114H84.8463C84.9505 82.028 85.0473 82.0756 85.124 82.148C85.2008 82.2205 85.2539 82.3144 85.2766 82.4175C85.2992 82.5207 85.2904 82.6283 85.2511 82.7263C85.2118 82.8243 85.1439 82.9083 85.0563 82.9671C85.0971 83.0875 85.1825 83.1876 85.2947 83.2469C85.407 83.3062 85.5377 83.3201 85.6599 83.2858C85.7821 83.2516 85.8866 83.1716 85.9518 83.0625C86.017 82.9535 86.0381 82.8236 86.0105 82.6995C86.0105 81.3806 85.7815 80.0522 85.7052 78.7238C85.6288 77.3954 85.7052 76.1053 85.5048 74.8246V74.643C85.501 74.5264 85.4511 74.4162 85.3661 74.3364C85.2811 74.2567 85.1679 74.214 85.0515 74.2178C84.9351 74.2216 84.825 74.2715 84.7454 74.3566C84.6657 74.4417 84.6231 74.5551 84.6269 74.6717Z" fill="#FFE071"/>
<path d="M84.8082 81.9842H84.7414C83.6441 81.9842 82.5468 82.1085 81.4591 82.1849C80.7794 82.1685 80.1011 82.2522 79.4458 82.4335C79.2206 82.5122 79.0154 82.6395 78.8447 82.8062C78.8277 82.8261 78.8157 82.8498 78.8099 82.8753C78.804 82.9008 78.8043 82.9273 78.8108 82.9527C78.8174 82.978 78.83 83.0015 78.8475 83.0209C78.865 83.0404 78.887 83.0552 78.9115 83.0643C79.0205 83.0989 79.1322 83.1244 79.2454 83.1408C80.1211 83.2268 81.0032 83.2268 81.8789 83.1408C82.901 83.192 83.9256 83.1569 84.9418 83.0356H85.0181C85.1573 83.0077 85.2798 82.9256 85.3585 82.8073C85.4372 82.689 85.4658 82.5442 85.4379 82.4047C85.4101 82.2653 85.3281 82.1427 85.21 82.0638C85.0919 81.9849 84.9474 81.9564 84.8082 81.9842Z" fill="#FFE071"/>
<path d="M40.2393 15.4699C41.9187 15.4699 91.6408 14.8964 91.6408 14.8964L122.05 14.2658V14.4568C122.101 14.4505 122.147 14.4243 122.178 14.3839C122.21 14.3436 122.224 14.2925 122.217 14.2418C122.211 14.1911 122.185 14.145 122.145 14.1136C122.104 14.0823 122.053 14.0682 122.003 14.0745H121.402C106.994 14.1414 92.6046 14.237 78.1965 14.4568L55.0863 14.7913C48.3403 14.8964 40.9645 14.1797 34.4093 15.9C34.0372 15.9955 33.6651 16.1006 33.3025 16.2153C33.2146 16.2353 33.1368 16.2867 33.0838 16.3597C33.0308 16.4328 33.0061 16.5226 33.0142 16.6125C33.0224 16.7025 33.0629 16.7865 33.1282 16.8488C33.1935 16.9111 33.2792 16.9474 33.3693 16.9512V16.6167C35.6341 16.0959 37.9283 15.713 40.2393 15.4699Z" fill="#FFE071"/>
<path d="M53.5488 25.5792C61.9456 25.4836 70.3424 25.3754 78.7391 25.2543C93.0518 25.0536 107.365 25.1587 121.62 24.3846H122.421C122.475 24.3737 122.524 24.3444 122.559 24.3017C122.594 24.259 122.613 24.2056 122.613 24.1505C122.613 24.0954 122.594 24.042 122.559 23.9993C122.524 23.9567 122.475 23.9273 122.421 23.9164V24.1936H114.635L79.0158 24.7191L40.7723 25.5028L33.9309 25.2925V24.9484H33.4442C33.2152 24.9484 33.158 25.3021 33.387 25.3499C33.616 25.3977 34.1313 25.4741 34.5034 25.541C40.5052 26.6208 47.4039 25.6461 53.5488 25.5792Z" fill="#FFE071"/>
<path d="M36.5067 42.9823C36.4218 42.8971 36.3112 42.8426 36.1921 42.827C36.073 42.8114 35.9521 42.8358 35.8483 42.8963C33.7872 43.9284 33.5296 43.7755 31.3636 43.3646C31.1839 43.3213 30.9969 43.3173 30.8154 43.3528C30.634 43.3883 30.4623 43.4626 30.312 43.5705C30.1617 43.6783 30.0364 43.8173 29.9446 43.9781C29.8527 44.1388 29.7965 44.3174 29.7797 44.5019C29.7797 44.7217 28.0526 41.8547 27.232 42.1127C24.3695 42.9919 25.3237 45.6486 23.2627 41.5106C23.2316 41.4571 23.1871 41.4125 23.1335 41.3816C23.0799 41.3507 23.0191 41.3345 22.9573 41.3345C22.8955 41.3345 22.8347 41.3507 22.7811 41.3816C22.7276 41.4125 22.683 41.4571 22.652 41.5106C21.402 43.7087 21.5356 42.1987 19.8467 41.7591C19.7794 41.743 19.7091 41.7441 19.6424 41.7625C19.5756 41.7809 19.5146 41.8159 19.465 41.8642C18.1292 43.4888 17.4422 42.7625 16.0586 42.7625C16.0586 42.7625 14.3793 43.7181 14.4556 43.8328C14.2552 43.4601 13.7304 43.8328 13.9022 44.1577C14.3602 45.1898 16.507 43.7851 17.5185 44.3585C17.5829 44.3936 17.6551 44.412 17.7284 44.412C17.8018 44.412 17.8739 44.3936 17.9383 44.3585C20.0471 42.9154 19.5795 42.1509 21.6692 44.4445C21.7111 44.4867 21.7633 44.5174 21.8206 44.5334C21.8779 44.5493 21.9384 44.5501 21.9961 44.5357C22.0538 44.5212 22.1068 44.492 22.1498 44.4509C22.1929 44.4098 22.2245 44.3581 22.2417 44.3011C23.1004 41.2239 23.9974 44.6165 24.5031 45.4479C24.538 45.5053 24.5871 45.5526 24.6456 45.5855C24.7041 45.6184 24.77 45.6357 24.8371 45.6357C24.9041 45.6357 24.9701 45.6184 25.0286 45.5855C25.087 45.5526 25.1361 45.5053 25.171 45.4479C27.442 42.1318 28.0336 45.3811 30.0278 46.2889C30.1001 46.3308 30.1821 46.3527 30.2656 46.3529C30.3491 46.353 30.4312 46.3312 30.5036 46.2896C30.5761 46.248 30.6364 46.1881 30.6784 46.1158C30.7205 46.0436 30.7429 45.9616 30.7434 45.878C30.7434 43.4888 32.4991 44.8076 33.3674 45.1612C34.2357 45.5148 35.9055 43.8998 36.4876 44.3872C38.1955 45.8398 38.7681 44.6164 41.039 44.5304C43.31 44.4444 45.0752 46.0405 47.1935 46.0405C48.2049 46.0405 48.8442 44.9987 49.1018 44.196C50.056 41.4628 52.8231 46.2029 53.8727 46.4896C54.4133 46.5718 54.9661 46.4923 55.4618 46.2611C55.9574 46.0298 56.3739 45.6572 56.6589 45.1899C58.8154 41.7782 57.0024 42.4472 59.6168 44.4827C59.7288 44.5816 59.8678 44.6444 60.0158 44.6632C60.1638 44.6819 60.3141 44.6557 60.447 44.5878C61.7256 43.8998 61.926 41.998 63.758 43.8328C64.1372 44.1878 64.621 44.4104 65.1369 44.4672C65.6529 44.5241 66.1733 44.4122 66.6205 44.1483C69.0346 42.2369 76.1623 44.1482 78.8913 44.9223C79.0751 44.9571 79.2654 44.9213 79.424 44.822C79.5827 44.7227 79.6982 44.5671 79.7475 44.3864C79.7968 44.2056 79.7764 44.0129 79.6903 43.8466C79.6041 43.6802 79.4585 43.5525 79.2825 43.4888C76.2673 42.6096 69.7407 40.7557 66.8209 42.2369C63.9012 43.7182 64.426 40.7939 62.1646 40.7939C60.2562 40.7939 60.5997 44.3297 58.5673 40.9371C58.5072 40.8362 58.422 40.7526 58.32 40.6945C58.218 40.6364 58.1026 40.6058 57.9852 40.6058C57.8679 40.6058 57.7525 40.6364 57.6505 40.6945C57.5485 40.7526 57.4633 40.8362 57.4032 40.9371C57.0597 41.6443 55.0177 46.8049 53.1475 44.3011C52.4987 43.4123 52.1934 42.3898 51.4682 41.5583C50.743 40.7269 49.8175 41.243 49.0923 41.5583C46.4588 42.686 48.1381 45.5052 43.8634 43.4697C41.5734 42.3802 38.7108 44.7407 36.5067 42.9823Z" fill="#FFE071"/>
<path d="M102.251 47.4352H102.203H102.079C101.059 47.2215 99.9953 47.4076 99.1079 47.9551C98.2205 48.5026 97.5763 49.3698 97.3079 50.3785C97.3079 50.3785 97.3079 50.3786 97.3079 50.4359C96.865 51.3901 96.7156 52.4545 96.8785 53.4939C97.4606 57.0776 100.752 58.2053 103.815 56.7336C107.079 55.1664 107.26 51.4297 104.951 48.9546C104.232 48.1767 103.288 47.6451 102.251 47.4352ZM103.205 55.5295C102.737 55.8484 102.192 56.0362 101.627 56.0737C101.063 56.1111 100.498 55.9968 99.9921 55.7425C99.4862 55.4882 99.0574 55.1031 98.7498 54.6272C98.4423 54.1512 98.2673 53.6016 98.243 53.0353C97.9854 50.7035 99.3403 49.4134 101.106 48.6393C101.607 48.6245 102.106 48.7109 102.573 48.8931C103.04 49.0754 103.466 49.3497 103.825 49.7C104.311 50.0511 104.695 50.5252 104.937 51.0738C105.18 51.6224 105.272 52.2256 105.205 52.8218C105.138 53.4179 104.914 53.9856 104.556 54.4664C104.198 54.9472 103.718 55.3241 103.167 55.5582L103.205 55.5295Z" fill="#FFE071"/>
<path d="M113.063 46.9573H112.939C111.919 46.7436 110.855 46.9297 109.968 47.4773C109.081 48.0248 108.436 48.8921 108.168 49.9008C107.73 50.8599 107.581 51.926 107.739 52.9687C108.33 56.5526 111.613 57.6708 114.675 56.2085C117.939 54.6412 118.129 50.8948 115.811 48.4291C115.073 47.66 114.111 47.1447 113.063 46.9573ZM114.017 55.0521C111.717 56.3136 109.351 55.1572 109.065 52.5577C108.798 50.2162 110.153 48.9356 111.927 48.1615C112.429 48.1457 112.928 48.2314 113.395 48.4137C113.863 48.596 114.288 48.8711 114.647 49.2223C115.127 49.5751 115.506 50.049 115.745 50.5959C115.984 51.1428 116.074 51.7433 116.006 52.3363C115.938 52.9293 115.715 53.4938 115.359 53.9725C115.003 54.4511 114.527 54.8268 113.979 55.0616L114.017 55.0521Z" fill="#FFE071"/>
<path d="M40.7628 25.5134L79.0062 24.7297L114.626 24.2041H122.412V23.927L122.059 14.5043V14.313L91.649 14.9438C91.649 14.9438 41.9269 15.5172 40.2475 15.5172C37.9301 15.7595 35.6295 16.1425 33.3584 16.664V16.9985L33.9404 24.9782V25.3222L40.7628 25.5134Z" fill="#FFE071"/>
</svg>
