<svg width="196" height="36" viewBox="0 0 196 36" fill="none" xmlns="http://www.w3.org/2000/svg">
<path d="M27.7797 15.3439C22.8696 15.3439 17.9669 15.3439 13.0569 15.3439C12.1508 15.3439 11.844 15.0882 11.9024 14.1894C12.0339 11.9098 11.8074 9.56436 12.2677 7.36507C12.7731 5.27954 13.9636 3.4239 15.6487 2.0952C17.3337 0.766499 19.4159 0.0415939 21.5618 0.0365331C31.5864 0 41.6111 0 51.6358 0C52.2788 0 52.5491 0.160746 52.5199 0.854874C52.4249 2.74729 52.5783 4.67623 52.3007 6.54673C51.57 11.6614 47.9167 15.0078 42.6779 15.2562C39.2292 15.417 35.7731 15.3147 32.3244 15.3293H27.7797V15.3439Z" fill="#961BA9"/>
<path d="M16.088 18.5587H30.2117C32.4987 18.5587 32.2064 18.3322 32.1699 20.4803C32.2475 22.3488 32.125 24.2202 31.8046 26.0626C30.7013 30.6877 26.7922 33.7199 21.9333 33.8295C18.0608 33.9099 14.1883 33.9172 10.3231 33.8295C7.59901 33.8334 4.9844 32.7575 3.05202 30.8375C1.11963 28.9174 0.0270045 26.3097 0.0134738 23.5857C-0.0303659 22.2485 0.0500068 20.9041 0.0134738 19.567C0.0134738 18.7998 0.210752 18.5368 1.01448 18.5441C6.04143 18.5441 11.0757 18.5441 16.1026 18.5441L16.088 18.5587Z" fill="#961BA9"/>
<path d="M81.9433 8.76867C83.0695 8.72559 84.189 8.96153 85.202 9.45549C86.0373 9.88721 86.7433 10.5326 87.2479 11.326C87.768 12.1781 88.1248 13.1197 88.3001 14.1025C88.5043 15.2332 88.6046 16.3803 88.5996 17.5293V28.8034H86.1738V17.5366C86.172 16.7777 86.1084 16.0202 85.9839 15.2716C85.8743 14.5595 85.6471 13.8706 85.3116 13.233C84.9927 12.6458 84.5365 12.1444 83.9818 11.7717C83.3382 11.3736 82.5899 11.1776 81.8337 11.2091C81.1102 11.1977 80.3897 11.3038 79.7002 11.5233C79.112 11.7042 78.5586 11.9834 78.0635 12.3489C77.6255 12.6679 77.2575 13.0732 76.9821 13.5399C76.7185 13.9847 76.5634 14.4853 76.5291 15.0012V28.8838H74.1033V17.2224C74.1033 17.0105 74.1033 16.711 74.0595 16.331C74.0185 15.9101 73.9477 15.4925 73.8476 15.0816C73.7404 14.6145 73.5937 14.1575 73.4092 13.7152C73.2261 13.2662 72.9801 12.8456 72.6785 12.4658C72.3671 12.0884 71.9849 11.7757 71.5533 11.5452C71.062 11.2979 70.5176 11.175 69.9678 11.1872C69.0793 11.1629 68.1943 11.3067 67.3593 11.6109C66.7398 11.8477 66.168 12.1942 65.6715 12.6339C65.2716 12.9765 64.9523 13.4031 64.7362 13.8833C64.574 14.2196 64.4797 14.5846 64.4586 14.9574V28.8399H62.0547V9.11208H64.1444C64.2463 9.22504 64.3257 9.3565 64.3782 9.49933C64.432 9.66698 64.4591 9.84204 64.4586 10.0181V11.6913C64.6002 11.3712 64.7982 11.0792 65.0431 10.8291C65.3925 10.4589 65.7879 10.1347 66.2195 9.86466C66.7442 9.53378 67.3089 9.27106 67.9 9.08285C68.5924 8.86519 69.3151 8.75913 70.0408 8.76867C70.7655 8.75747 71.486 8.87881 72.167 9.12669C72.7441 9.34575 73.282 9.65664 73.7599 10.0473C74.1865 10.4121 74.5538 10.841 74.8486 11.3187C75.1166 11.763 75.3277 12.2392 75.4769 12.7362C75.81 12.0569 76.2327 11.4253 76.7337 10.8584C77.1574 10.3792 77.6499 9.96549 78.195 9.63085C78.731 9.31617 79.3128 9.08691 79.9194 8.95134C80.5538 8.8206 81.2006 8.75935 81.8483 8.76867H81.9433Z" fill="#231F20"/>
<path d="M90.7988 8.91411H91.851C92.3142 8.91593 92.7684 9.0421 93.1662 9.27944C93.5629 9.50007 93.8646 9.85898 94.0137 10.2878L99.9175 23.8196C100.01 24.0574 100.086 24.3016 100.144 24.5503C100.187 24.7476 100.217 24.9479 100.232 25.1494C100.246 25.3367 100.246 25.5248 100.232 25.712L106.983 10.3024C107.169 9.88474 107.474 9.53137 107.86 9.28675C108.243 9.04062 108.69 8.91116 109.146 8.91411H110.22L99.0115 34.4873C98.862 34.9246 98.5683 35.2982 98.1785 35.5467C97.7915 35.8046 97.3356 35.9396 96.8706 35.934H95.7819L99.2014 28.189L90.7988 8.91411Z" fill="#231F20"/>
<path d="M124.599 5.39906C124.307 5.19448 124.058 5.01181 123.868 4.83645C123.641 4.66144 123.396 4.50968 123.138 4.38344C122.866 4.24972 122.579 4.14914 122.283 4.08387C121.877 3.99607 121.463 3.95683 121.048 3.96696C120.343 3.9653 119.642 4.089 118.98 4.3323C118.358 4.56528 117.778 4.89847 117.263 5.31869C116.778 5.72329 116.379 6.21996 116.087 6.78001C115.803 7.31838 115.655 7.9178 115.656 8.52629C115.636 9.11539 115.728 9.70289 115.926 10.258C116.125 10.7277 116.442 11.1379 116.847 11.4489C117.37 11.8484 117.945 12.1753 118.557 12.4207C119.287 12.713 120.135 13.0418 121.172 13.4071L122.714 13.9697C123.196 14.1451 123.642 14.3277 124.073 14.5104C124.48 14.6832 124.878 14.8783 125.264 15.0949C125.637 15.309 125.991 15.5534 126.323 15.8256C127.168 16.4583 127.812 17.3208 128.179 18.3099C128.546 19.3415 128.727 20.43 128.713 21.5248C128.73 22.6212 128.492 23.7067 128.019 24.6958C127.564 25.5985 126.924 26.3952 126.141 27.034C125.319 27.7111 124.377 28.2268 123.364 28.5537C122.275 28.9092 121.135 29.0868 119.989 29.0798C117.831 29.1496 115.724 28.4211 114.07 27.034C113.665 26.6688 113.291 26.2704 112.952 25.843C112.686 25.4981 112.442 25.1369 112.222 24.7616L112.507 24.5935C112.862 24.3695 113.271 24.2457 113.69 24.2355C113.982 24.2333 114.272 24.2727 114.552 24.3524C114.828 24.4415 115.078 24.5942 115.283 24.7981C115.712 25.2077 116.179 25.5747 116.679 25.8941C117.05 26.1265 117.448 26.3153 117.862 26.4567C118.209 26.5758 118.57 26.6494 118.936 26.6759C119.28 26.6759 119.667 26.7198 119.996 26.7344C120.759 26.7578 121.522 26.6717 122.261 26.4787C122.998 26.296 123.695 25.9763 124.314 25.5361C124.915 25.1006 125.413 24.5396 125.775 23.8921C126.174 23.1625 126.373 22.341 126.353 21.5102C126.387 20.6612 126.232 19.8152 125.9 19.0332C125.617 18.4322 125.187 17.9121 124.65 17.5207C124.074 17.0966 123.439 16.7593 122.765 16.5197C122.034 16.2567 121.253 15.9717 120.42 15.6429C119.353 15.2192 118.379 14.8246 117.497 14.4593C116.696 14.1267 115.944 13.6867 115.261 13.1514C114.639 12.6615 114.138 12.0337 113.8 11.3174C113.423 10.4264 113.246 9.46376 113.281 8.49707C113.277 7.49798 113.528 6.51438 114.012 5.64018C114.461 4.80046 115.069 4.056 115.802 3.44819C116.544 2.84015 117.384 2.36323 118.286 2.03802C119.174 1.71378 120.111 1.54568 121.055 1.54117C121.798 1.52791 122.537 1.63147 123.247 1.84805C123.844 2.05807 124.417 2.32989 124.957 2.65908C125.481 2.9674 125.971 3.32984 126.418 3.74046C126.85 4.14232 127.251 4.53688 127.609 4.92413L127.032 5.34061C126.875 5.45779 126.7 5.54906 126.513 5.61095C126.278 5.68905 126.03 5.72371 125.783 5.71325C125.366 5.7231 124.956 5.61412 124.599 5.39906Z" fill="#231F20"/>
<path d="M136.347 24.2143C136.35 24.5328 136.404 24.8487 136.508 25.1496C136.61 25.464 136.766 25.7582 136.968 26.0191C137.166 26.2808 137.414 26.4996 137.699 26.6621C138.017 26.828 138.371 26.9109 138.729 26.9032L139.307 26.8301C139.74 26.6956 140.19 26.6194 140.644 26.6036C141.019 26.5983 141.386 26.7164 141.688 26.9397C141.995 27.1746 142.266 27.4527 142.492 27.7654L142.543 27.8457C142.257 28.0325 141.957 28.1962 141.645 28.3353C141.301 28.4814 140.958 28.6129 140.6 28.7298C140.254 28.8387 139.903 28.9289 139.548 29.0002C138.581 29.1983 137.578 29.1094 136.662 28.7444C136.105 28.5277 135.602 28.1938 135.186 27.7654C134.768 27.3168 134.447 26.787 134.243 26.209C134.018 25.576 133.907 24.9081 133.914 24.2363V11.2816H130.349V9.89337C130.349 9.31614 131.116 9.02388 132.658 9.02388H133.914V4.57415C133.9 4.09459 133.974 3.61648 134.133 3.16397C134.238 2.87085 134.368 2.58727 134.521 2.31641H136.325V9.0458H142.244V11.2816H136.325L136.347 24.2143Z" fill="#231F20"/>
<path d="M145.767 11.9387C145.942 11.7268 146.125 11.5149 146.33 11.303C146.534 11.0911 146.695 10.945 146.914 10.755C147.118 10.5722 147.338 10.4083 147.572 10.2654C148.331 9.81579 149.137 9.45071 149.976 9.17676C150.921 8.88311 151.908 8.74251 152.898 8.76029C153.815 8.74411 154.728 8.89005 155.594 9.19138C156.324 9.45821 157 9.85421 157.589 10.3604C158.147 10.8529 158.614 11.4389 158.97 12.0921C159.339 12.7676 159.628 13.4835 159.832 14.2256C160.047 14.9938 160.198 15.7782 160.285 16.5711C160.372 17.3621 160.416 18.1572 160.417 18.953V28.8023H158.385C158.287 28.6568 158.201 28.5027 158.13 28.342C158.026 28.0821 157.979 27.8032 157.991 27.5237V26.5811C157.451 27.0379 156.863 27.4348 156.237 27.7648C155.656 28.0699 155.053 28.3312 154.433 28.5466C153.857 28.7373 153.265 28.8767 152.664 28.9631C152.13 29.045 151.59 29.0865 151.05 29.0873H150.787C149.96 29.0707 149.141 28.9228 148.361 28.6489C147.621 28.3944 146.932 28.0083 146.33 27.5091C145.743 27.0275 145.265 26.4274 144.927 25.7482C144.574 25.0329 144.396 24.244 144.408 23.4466C144.395 22.5777 144.582 21.7175 144.956 20.9331C145.332 20.1573 145.9 19.4907 146.607 18.9969C147.457 18.4221 148.406 18.0085 149.406 17.7767C150.707 17.4659 152.043 17.321 153.38 17.3456C153.826 17.3456 154.308 17.3456 154.842 17.3967L156.267 17.5282C156.705 17.5794 157.085 17.6305 157.414 17.6817L158.035 17.7767C157.963 16.6433 157.746 15.5237 157.392 14.4448C157.135 13.6987 156.732 13.0108 156.208 12.4209C155.783 11.9522 155.244 11.6 154.644 11.398C153.42 11.0277 152.113 11.0277 150.889 11.398C150.297 11.6044 149.733 11.8816 149.208 12.2236L148.587 12.6109C148.321 12.7544 148.02 12.8226 147.718 12.8082C147.167 12.7931 146.638 12.5951 146.213 12.2455L145.767 11.9387ZM150.765 26.6761C151.324 26.6738 151.882 26.6175 152.431 26.5081C153.051 26.3891 153.663 26.233 154.265 26.0404C154.886 25.8358 155.521 25.5947 156.15 25.3098C156.778 25.0248 157.399 24.7179 158.006 24.3745V20.0782L157.421 20.0052C157.107 19.9686 156.69 19.9321 156.288 19.9102L154.871 19.8371C154.367 19.8371 153.877 19.8371 153.41 19.8371C152.525 19.8324 151.641 19.891 150.765 20.0125C150.045 20.1076 149.343 20.3095 148.682 20.6116C148.134 20.8633 147.66 21.2536 147.309 21.7441C146.964 22.2623 146.79 22.8756 146.812 23.4977C146.808 23.9363 146.908 24.3695 147.104 24.7618C147.302 25.1567 147.58 25.5053 147.922 25.7847C148.292 26.09 148.716 26.323 149.172 26.4715C149.688 26.6255 150.226 26.6946 150.765 26.6761Z" fill="#231F20"/>
<path d="M162.775 26.0194L163.725 25.5445C163.966 25.419 164.235 25.3562 164.507 25.3618C164.728 25.3652 164.948 25.3897 165.165 25.4349C165.469 25.5241 165.756 25.665 166.012 25.8513C166.388 26.114 166.802 26.3161 167.24 26.4505C167.687 26.5907 168.152 26.6622 168.621 26.6624C169.142 26.6618 169.661 26.588 170.162 26.4432C170.666 26.3038 171.142 26.0815 171.573 25.7856C171.998 25.4959 172.354 25.1169 172.617 24.675C172.898 24.1933 173.049 23.647 173.056 23.0894C173.037 22.7231 172.965 22.3614 172.844 22.0154C172.708 21.6682 172.496 21.356 172.223 21.102C171.864 20.7774 171.464 20.5022 171.032 20.2837C170.41 19.9726 169.768 19.704 169.11 19.48L168.716 19.3485C168.065 19.1219 167.422 18.8808 166.779 18.6178C166.157 18.3686 165.574 18.0315 165.048 17.6168C164.526 17.1984 164.1 16.6726 163.798 16.0751C163.459 15.3463 163.296 14.5477 163.323 13.7443C163.307 13.0329 163.479 12.3299 163.82 11.7057C164.151 11.1249 164.602 10.6216 165.143 10.2298C165.685 9.81862 166.292 9.50239 166.94 9.29455C167.579 9.08859 168.242 8.9682 168.913 8.93652H169.088C169.703 8.95734 170.31 9.07827 170.886 9.29455C171.397 9.48736 171.886 9.7322 172.347 10.0252C172.747 10.3034 173.121 10.6164 173.465 10.9605C173.786 11.2746 174.042 11.5304 174.247 11.7423L173.889 12.0418C173.688 12.2164 173.47 12.3706 173.238 12.5022C173.016 12.6309 172.764 12.699 172.508 12.6994C172.347 12.6917 172.188 12.6546 172.04 12.5898C171.883 12.5232 171.729 12.4476 171.58 12.3633L171.098 12.0857C170.935 11.9821 170.766 11.887 170.593 11.8007C170.299 11.6388 169.981 11.5253 169.651 11.4646C169.41 11.4183 169.166 11.3914 168.92 11.3842C168.419 11.3837 167.922 11.483 167.459 11.6765C167.095 11.835 166.762 12.055 166.473 12.3268C166.225 12.5357 166.022 12.7915 165.873 13.0794C165.775 13.2958 165.718 13.5288 165.705 13.7662C165.691 14.2243 165.805 14.6772 166.034 15.0741C166.26 15.4341 166.559 15.7427 166.911 15.9801C167.292 16.2447 167.704 16.4607 168.138 16.6231C168.596 16.7984 169.064 16.9665 169.541 17.1272L169.731 17.1857C170.448 17.4277 171.151 17.7107 171.836 18.0333C172.498 18.3394 173.115 18.7353 173.67 19.2096C174.2 19.6642 174.637 20.2176 174.956 20.839C175.295 21.5398 175.462 22.3111 175.445 23.0894C175.448 23.8868 175.268 24.6742 174.919 25.391C174.564 26.118 174.067 26.7665 173.458 27.2981C172.814 27.8662 172.071 28.3097 171.266 28.6059C170.41 28.9319 169.5 29.0954 168.584 29.0882C167.437 29.0909 166.306 28.8151 165.289 28.2844C164.273 27.7537 163.409 26.9745 162.775 26.0194Z" fill="#231F20"/>
<path d="M181.254 1.82617C181.344 1.89171 181.421 1.97349 181.481 2.06729C181.553 2.17212 181.607 2.28815 181.641 2.4107C181.689 2.57447 181.711 2.74445 181.707 2.91486V12.092C181.869 11.7135 182.094 11.3652 182.372 11.0617C182.76 10.6358 183.208 10.2691 183.702 9.97305C184.321 9.59796 184.987 9.30564 185.682 9.10356C186.54 8.8516 187.432 8.7309 188.327 8.74554C189.432 8.71664 190.529 8.93117 191.542 9.37391C192.421 9.77467 193.188 10.3842 193.778 11.1494C194.391 11.9663 194.84 12.8943 195.1 13.8821C195.398 15.047 195.543 16.2455 195.531 17.4477V28.8022H193.127V17.4696C193.139 16.5664 193.051 15.6647 192.864 14.7808C192.719 14.076 192.433 13.4076 192.024 12.8153C191.653 12.2866 191.149 11.8656 190.563 11.5951C189.871 11.293 189.125 11.1363 188.371 11.1348H188.159C187.241 11.1187 186.328 11.2773 185.47 11.6024C184.725 11.8768 184.03 12.2691 183.41 12.7642C182.907 13.1772 182.478 13.6711 182.138 14.2255C181.875 14.6429 181.724 15.121 181.7 15.6138V28.7657H179.296V1.82617H181.254Z" fill="#231F20"/>
</svg>
