<svg width="128" height="127" viewBox="0 0 128 127" fill="none" xmlns="http://www.w3.org/2000/svg">
<path d="M101.423 79.0328L74.0396 59.2345C73.0719 58.5357 71.9862 58.0169 70.8345 57.703L32.0819 47.2432C31.4051 47.0559 30.6845 47.1064 30.0404 47.3863C29.3963 47.6662 28.8678 48.1586 28.543 48.7813L15.1361 74.7957C14.924 75.2176 14.8112 75.6825 14.8063 76.1548C14.8014 76.6271 14.9046 77.0942 15.1079 77.5205C15.3112 77.9468 15.6093 78.321 15.9795 78.6144C16.3496 78.9078 16.7819 79.1126 17.2433 79.2133L56.6801 88.0824L83.2649 108.325C83.5902 108.576 83.9654 108.755 84.3654 108.85C84.7654 108.945 85.181 108.954 85.5846 108.876C85.9881 108.798 86.3704 108.634 86.706 108.397C87.0415 108.159 87.3227 107.853 87.5306 107.498L101.398 83.4292C102.113 82.1848 102.575 79.9177 101.423 79.0328Z" fill="#961BA9"/>
<path opacity="0.1" d="M101.423 79.0328L74.0396 59.2345C73.0719 58.5357 71.9862 58.0169 70.8345 57.703L32.0819 47.2432C31.4051 47.0559 30.6845 47.1064 30.0404 47.3863C29.3963 47.6662 28.8678 48.1586 28.543 48.7813L15.1361 74.7957C14.924 75.2176 14.8112 75.6825 14.8063 76.1548C14.8014 76.6271 14.9046 77.0942 15.1079 77.5205C15.3112 77.9468 15.6093 78.321 15.9795 78.6144C16.3496 78.9078 16.7819 79.1126 17.2433 79.2133L56.6801 88.0824L83.2649 108.325C83.5902 108.576 83.9654 108.755 84.3654 108.85C84.7654 108.945 85.181 108.954 85.5846 108.876C85.9881 108.798 86.3704 108.634 86.706 108.397C87.0415 108.159 87.3227 107.853 87.5306 107.498L101.398 83.4292C102.113 82.1848 102.575 79.9177 101.423 79.0328Z" fill="black"/>
<path d="M60.7395 21.7879L36.707 23.2434L39.5405 70.0289L63.5729 68.5735L60.7395 21.7879Z" fill="#961BA9"/>
<path opacity="0.5" d="M63.5673 68.5728L39.5343 70.0267L36.7033 23.2459L52.4744 22.2904L60.7384 21.7894L60.8271 23.2831L63.5673 68.5728Z" fill="#FAFAFA"/>
<path d="M59.4945 23.4919L38.2891 24.7761L40.9394 68.5384L62.1449 67.2541L59.4945 23.4919Z" stroke="#961BA9" stroke-miterlimit="10"/>
<path d="M50.53 51.1954C52.9623 51.0481 54.7843 48.4559 54.5996 45.4056C54.4149 42.3553 52.2933 40.002 49.8611 40.1493C47.4288 40.2966 45.6068 42.8888 45.7915 45.939C45.9763 48.9893 48.0978 51.3427 50.53 51.1954Z" fill="#961BA9"/>
<path opacity="0.1" d="M48.2304 59.0709L41.9823 56.7789L52.4743 22.2912L60.7384 21.7902L60.8271 23.2839L48.2304 59.0709Z" fill="black"/>
<path d="M80.9731 20.8698L58.2461 12.9224L42.7744 57.1664L65.5013 65.1138L80.9731 20.8698Z" fill="#961BA9"/>
<path opacity="0.5" d="M80.9731 20.8698L58.2461 12.9224L42.7744 57.1664L65.5013 65.1138L80.9731 20.8698Z" fill="#FAFAFA"/>
<path d="M79.1649 21.9583L59.1113 14.9458L44.6394 56.3308L64.6929 63.3434L79.1649 21.9583Z" stroke="#961BA9" stroke-miterlimit="10"/>
<path d="M60.1936 44.0433C62.4937 44.8477 65.1761 43.1613 66.1848 40.2767C67.1935 37.3921 66.1466 34.4016 63.8464 33.5973C61.5463 32.7929 58.8639 34.4793 57.8552 37.3639C56.8465 40.2485 57.8934 43.239 60.1936 44.0433Z" fill="#961BA9"/>
<path d="M100.857 80.0726L73.8904 60.4953C72.9356 59.7999 71.8598 59.2881 70.7179 58.9861L32.4399 48.795C31.7654 48.6157 31.05 48.672 30.4119 48.9545C29.7738 49.2371 29.2512 49.7289 28.9306 50.3487L15.5154 76.3732C15.3013 76.7899 15.1856 77.2502 15.1772 77.7186C15.1688 78.187 15.2678 78.6512 15.4668 79.0753C15.6658 79.4995 15.9593 79.8724 16.3249 80.1653C16.6905 80.4583 17.1184 80.6636 17.5757 80.7654L56.5342 89.3754L82.7157 109.387C83.0398 109.634 83.4131 109.81 83.8105 109.902C84.208 109.994 84.6205 110 85.0205 109.92C85.4205 109.84 85.7988 109.676 86.1302 109.438C86.4616 109.2 86.7385 108.894 86.9422 108.54L100.798 84.4656C101.521 83.211 101.995 80.9496 100.857 80.0726Z" fill="#961BA9"/>
<path opacity="0.2" d="M71.7703 65.2392L95.0023 81.9222" stroke="black" stroke-width="2" stroke-linecap="round" stroke-linejoin="round"/>
<path opacity="0.2" d="M68.6543 63.6482L57.5538 85.5075" stroke="black" stroke-width="2" stroke-linecap="round" stroke-linejoin="round"/>
<path opacity="0.2" d="M28.0371 58.4285L19.2407 75.0309C19.2407 75.0309 26.0456 71.1484 28.0371 58.4285Z" fill="#FAFAFA"/>
<path opacity="0.2" d="M28.2753 58.9009C28.1671 59.2357 62.2088 68.9832 62.2088 68.9832C60.276 71.4922 57.6853 73.416 54.7246 74.5407C51.764 75.6655 48.5494 75.9471 45.4382 75.3543C34.378 73.4179 28.2753 58.9009 28.2753 58.9009Z" fill="#FAFAFA"/>
<path d="M44.6795 72.9843C45.2827 73.4764 46.1706 73.3863 46.6627 72.783C47.1547 72.1798 47.0646 71.2919 46.4614 70.7999C45.8581 70.3078 44.9703 70.3979 44.4782 71.0012C43.9862 71.6044 44.0763 72.4923 44.6795 72.9843Z" fill="#961BA9"/>
<path opacity="0.2" d="M62.2207 68.9939C62.2207 68.9939 61.5082 76.2512 54.2122 83.6502L62.2207 68.9939Z" fill="black"/>
<g opacity="0.2">
<path opacity="0.2" d="M31.404 51.8354L32.195 52.0533" stroke="#FAFAFA" stroke-linecap="round" stroke-linejoin="round"/>
<path opacity="0.2" d="M33.8373 52.5044L65.8745 61.3021" stroke="#FAFAFA" stroke-linecap="round" stroke-linejoin="round" stroke-dasharray="5.2 5.2"/>
<path opacity="0.2" d="M66.695 61.5268L67.4834 61.7427" stroke="#FAFAFA" stroke-linecap="round" stroke-linejoin="round"/>
</g>
<path opacity="0.2" d="M69.1081 70.0168L92.3421 86.6974" stroke="black" stroke-width="2" stroke-linecap="round" stroke-linejoin="round"/>
<path opacity="0.2" d="M65.8581 76.0339L89.0921 92.7145" stroke="black" stroke-width="2" stroke-linecap="round" stroke-linejoin="round"/>
</svg>
