<svg width="97" height="102" viewBox="0 0 97 102" fill="none" xmlns="http://www.w3.org/2000/svg">
<path d="M13.3026 2.10176C11.9066 1.99442 10.5251 2.44643 9.46207 3.35835C8.39902 4.27027 7.74144 5.56741 7.63402 6.9644L1.31267 89.1707C1.20525 90.5677 1.65677 91.9501 2.56791 93.0138C3.47905 94.0776 4.77516 94.7355 6.17113 94.8428L40.5944 97.4898C41.9904 97.5972 43.3719 97.1452 44.4349 96.2333C45.498 95.3213 46.1555 94.0242 46.263 92.6272L52.5843 10.4209C52.6917 9.02391 52.2402 7.64149 51.3291 6.57776C50.4179 5.51403 49.1218 4.85613 47.7258 4.74878L13.3026 2.10176Z" fill="#EBEBEB"/>
<path d="M51.1962 33.6288C51.1699 33.9712 50.9722 34.2474 50.7623 34.2225C50.5524 34.1975 50.3979 33.9119 50.4242 33.5695L51.1337 24.3428C51.16 24.0004 51.3571 23.733 51.5676 23.7492C51.7782 23.7654 51.932 24.0598 51.9057 24.4022L51.1962 33.6288Z" fill="#EBEBEB"/>
<path d="M5.83735 33.0543C5.81102 33.3966 5.63084 33.6742 5.42908 33.6587C5.22731 33.6432 5.04783 33.338 5.07416 32.9956L5.4846 27.658C5.5116 27.3068 5.69111 27.038 5.89287 27.0535C6.09463 27.0691 6.2397 27.3628 6.2127 27.714L5.83735 33.0543Z" fill="#EBEBEB"/>
<path d="M6.41944 25.6192C6.39311 25.9616 6.20416 26.2385 6.0024 26.223C5.80064 26.2074 5.66502 25.9056 5.69134 25.5632L6.10179 20.2256C6.12879 19.8744 6.31706 19.6063 6.51883 19.6218C6.72059 19.6374 6.85689 19.9304 6.82988 20.2816L6.41944 25.6192Z" fill="#EBEBEB"/>
<path d="M7.03109 17.6569C7.00409 18.008 6.81581 18.2762 6.62282 18.2613C6.42983 18.2465 6.27666 17.9433 6.30299 17.6009L6.5764 14.0454C6.6034 13.6943 6.79167 13.4261 6.99344 13.4417C7.1952 13.4572 7.33149 13.7502 7.30449 14.1014L7.03109 17.6569Z" fill="#EBEBEB"/>
<path d="M45.9871 92.6328C45.8801 93.9643 45.2506 95.1994 44.2363 96.0679C43.222 96.9365 41.9054 97.3679 40.5744 97.2678L6.15108 94.6208C4.8182 94.5137 3.58198 93.8828 2.71266 92.8661C1.84334 91.8494 1.41165 90.5296 1.51193 89.1952L7.83261 6.99765C7.93729 5.66673 8.56481 4.43154 9.57772 3.56263C10.5906 2.69373 11.9063 2.26197 13.2366 2.36193L47.6687 5.00962C48.9992 5.1166 50.2333 5.74639 51.1011 6.76132C51.9689 7.77624 52.3998 9.09375 52.2997 10.4258L45.9871 92.6328Z" fill="#961BA9"/>
<path style="mix-blend-mode:screen" opacity="0.2" d="M17.2162 90.5267C17.1829 90.9606 17.3225 91.39 17.6046 91.7211C17.8867 92.0523 18.2883 92.2582 18.7217 92.2938L28.0907 93.0143C28.5258 93.0477 28.9563 92.9068 29.2877 92.6226C29.619 92.3384 29.8239 91.9341 29.8574 91.4987C29.8885 91.0647 29.7465 90.636 29.4627 90.3064C29.1788 89.9768 28.7761 89.773 28.3425 89.7397L18.9735 89.0193C18.5407 88.986 18.1125 89.1261 17.7829 89.4088C17.4534 89.6915 17.2495 90.0936 17.2162 90.5267Z" fill="url(#paint0_linear_304_186)"/>
<path d="M50.5575 14.9635L8.625 11.739L2.99492 84.9557L44.9274 88.1801L50.5575 14.9635Z" fill="url(#paint1_linear_304_186)"/>
<path style="mix-blend-mode:screen" opacity="0.1" d="M43.8666 88.0897L7.60497 25.004L6.6646 37.2331L35.5328 87.4488L43.8666 88.0897ZM8.625 11.739L8.08494 18.7622L45.3149 83.4854L47.1599 59.4924L20.1959 12.6288L8.625 11.739Z" fill="url(#paint2_linear_304_186)"/>
<path d="M12.0623 20.9407L45.8276 23.5371C46.1278 23.5602 46.4064 23.7017 46.6023 23.9304C46.7982 24.1591 46.8953 24.4563 46.8722 24.7567L45.4633 43.0784C45.4402 43.3787 45.2989 43.6576 45.0703 43.8537C44.8417 44.0497 44.5447 44.1469 44.2446 44.1238L10.4793 41.5274C10.1768 41.5042 9.89598 41.3616 9.69856 41.1311C9.50115 40.9007 9.40332 40.6011 9.4266 40.2985L10.8341 21.9943C10.8456 21.8444 10.8865 21.6983 10.9545 21.5642C11.0225 21.4302 11.1161 21.3108 11.2302 21.213C11.3442 21.1151 11.4764 21.0408 11.6192 20.994C11.762 20.9473 11.9125 20.9292 12.0623 20.9407Z" fill="#FCD652"/>
<path d="M35.3353 34.8281C35.321 35.0145 35.27 35.1962 35.1852 35.3627C35.1005 35.5293 34.9837 35.6774 34.8415 35.7986C34.6993 35.9198 34.5346 36.0117 34.3568 36.069C34.179 36.1262 33.9916 36.1477 33.8055 36.1323L14.0849 34.6158C13.7104 34.587 13.3626 34.4105 13.1181 34.1251C12.8736 33.8396 12.7524 33.4687 12.7813 33.0938C12.8101 32.7181 12.9864 32.3692 13.2715 32.123C13.5566 31.8769 13.9274 31.7537 14.303 31.7802L34.0236 33.2967C34.4005 33.3257 34.7504 33.5033 34.9964 33.7905C35.2424 34.0777 35.3643 34.451 35.3353 34.8281Z" fill="#FEAD30"/>
<path d="M43.4486 28.7763C43.4196 29.1535 43.2421 29.5037 42.955 29.7499C42.668 29.9961 42.295 30.1182 41.9181 30.0892L22.18 28.5714C21.8048 28.5402 21.4571 28.3617 21.213 28.0749C20.9689 27.7881 20.8481 27.4163 20.877 27.0406C20.9058 26.6649 21.0821 26.3159 21.3672 26.0698C21.6523 25.8237 22.0231 25.7005 22.3987 25.727L42.1368 27.2448C42.5137 27.2738 42.8637 27.4514 43.1097 27.7386C43.3557 28.0258 43.4776 28.3991 43.4486 28.7763Z" fill="#FEAD30"/>
<path d="M24.5559 38.5568C24.5235 38.9208 24.3519 39.2583 24.0769 39.4987C23.802 39.7392 23.4448 39.8641 23.08 39.8474L13.7373 39.129C13.5511 39.1147 13.3696 39.0637 13.2031 38.9789C13.0367 38.8941 12.8887 38.7772 12.7676 38.6349C12.6465 38.4926 12.5547 38.3278 12.4975 38.1499C12.4403 37.972 12.4188 37.7845 12.4343 37.5982C12.4631 37.2234 12.6396 36.8753 12.9248 36.6306C13.2101 36.3859 13.5808 36.2646 13.9554 36.2934L23.2981 37.0118C23.6727 37.0406 24.0205 37.2172 24.2649 37.5026C24.5094 37.788 24.6306 38.159 24.6018 38.5339L24.5559 38.5568Z" fill="#FEAD30"/>
<path d="M43.286 40.9858C43.2572 41.3607 43.0808 41.7088 42.7955 41.9535C42.5103 42.1982 42.1396 42.3195 41.765 42.2907L38.3262 42.0262C38.1399 42.0131 37.958 41.9632 37.7911 41.8794C37.6241 41.7956 37.4754 41.6796 37.3534 41.5381C37.2314 41.3966 37.1386 41.2323 37.0803 41.0548C37.022 40.8772 36.9994 40.6899 37.0137 40.5035C37.0269 40.3163 37.0772 40.1336 37.1615 39.966C37.2458 39.7984 37.3625 39.6492 37.5049 39.5271C37.6473 39.405 37.8124 39.3123 37.9909 39.2546C38.1693 39.1968 38.3574 39.1751 38.5442 39.1906L41.983 39.455C42.1692 39.4694 42.3508 39.5204 42.5172 39.6052C42.6836 39.69 42.8317 39.8069 42.9528 39.9492C43.0739 40.0914 43.1657 40.2563 43.2229 40.4342C43.2801 40.6121 43.3015 40.7996 43.286 40.9858Z" fill="#FEAD30"/>
<path d="M38.8347 75.9568C38.8044 76.3653 38.6938 76.7639 38.5091 77.1295C38.3244 77.4951 38.0693 77.8205 37.7585 78.0872C37.4477 78.3538 37.0873 78.5563 36.698 78.683C36.3087 78.8098 35.8983 78.8583 35.4902 78.8258L13.2519 77.1157C12.8437 77.0855 12.4455 76.9748 12.0802 76.79C11.7148 76.6052 11.3896 76.35 11.1232 76.039C10.8569 75.728 10.6545 75.3674 10.5279 74.9778C10.4013 74.5883 10.3529 74.1775 10.3854 73.7692C10.4532 72.9483 10.8429 72.1877 11.4693 71.6534C12.0957 71.1191 12.9079 70.8546 13.7285 70.9178L35.9931 72.6298C36.8086 72.6995 37.5639 73.0876 38.0957 73.7101C38.6274 74.3327 38.8929 75.1398 38.8347 75.9568Z" fill="url(#paint3_linear_304_186)"/>
<path d="M19.5439 76.2424C19.258 76.2204 18.9839 76.1619 18.7214 76.0668C18.4624 75.972 18.26 75.8572 18.1142 75.7223L18.3901 75.2504C18.5334 75.3721 18.7117 75.4769 18.925 75.5649C19.1422 75.65 19.3619 75.7011 19.5842 75.7182C19.8595 75.7393 20.0673 75.7146 20.2076 75.644C20.3515 75.5737 20.4285 75.4722 20.4387 75.3396C20.4462 75.2425 20.4135 75.1602 20.3405 75.0928C20.2714 75.0223 20.18 74.9649 20.0662 74.9203C19.9525 74.8758 19.7968 74.8231 19.5991 74.7623C19.3215 74.6791 19.0969 74.6 18.9251 74.525C18.7569 74.4502 18.6143 74.3432 18.4972 74.204C18.3839 74.0618 18.3358 73.8791 18.353 73.6558C18.3674 73.4681 18.4352 73.3025 18.5563 73.1588C18.6811 73.0121 18.8582 72.9021 19.0875 72.8286C19.3204 72.7553 19.5991 72.7312 19.9238 72.7562C20.1497 72.7735 20.37 72.8165 20.5848 72.8851C20.7997 72.9537 20.9828 73.0427 21.1341 73.1519L20.8794 73.6255C20.7237 73.5256 20.5594 73.4463 20.3865 73.3874C20.2135 73.3285 20.0441 73.2927 19.8782 73.28C19.6065 73.2591 19.4003 73.2855 19.2597 73.3593C19.1227 73.4334 19.0488 73.5401 19.0381 73.6792C19.0306 73.7763 19.0616 73.8584 19.131 73.9256C19.2039 73.993 19.2972 74.049 19.4109 74.0936C19.5247 74.1381 19.6804 74.1908 19.878 74.2516C20.1488 74.331 20.37 74.4098 20.5415 74.4881C20.7132 74.5632 20.8558 74.6702 20.9694 74.8091C21.0865 74.9483 21.1366 75.1279 21.1197 75.348C21.1052 75.5357 21.0357 75.7012 20.9111 75.8446C20.79 75.9883 20.613 76.0967 20.3802 76.17C20.1473 76.2432 19.8686 76.2673 19.5439 76.2424Z" fill="white"/>
<path d="M24.192 75.76L22.3392 75.6175L21.9134 76.3758L21.2041 76.3212L23.1329 73.0517L23.8105 73.1039L25.222 76.6302L24.5021 76.5748L24.192 75.76ZM24.0024 75.2474L23.4179 73.7084L22.6102 75.1403L24.0024 75.2474Z" fill="white"/>
<path d="M29.1461 73.5141L27.2703 76.7877L26.5927 76.7356L25.2341 73.2133L25.9805 73.2707L27.0124 75.9866L28.458 73.4612L29.1461 73.5141Z" fill="white"/>
<path d="M32.0958 76.6265L32.0551 77.1556L29.2759 76.9419L29.5372 73.5442L32.2423 73.7522L32.2016 74.2813L30.1847 74.1262L30.1168 75.0096L31.906 75.1472L31.8661 75.6665L30.0768 75.529L30.0048 76.4658L32.0958 76.6265Z" fill="white"/>
<g style="mix-blend-mode:multiply" opacity="0.2">
<path d="M6.44389 76.3635C6.44389 76.3635 9.21595 78.0691 9.97978 79.7262C10.3223 80.674 10.6133 81.6398 10.8516 82.6191C10.8846 81.5263 10.7014 80.4378 10.3125 79.4162C9.57902 77.4788 6.69155 76.356 6.57885 76.3297L6.44389 76.3635Z" fill="#FEB783"/>
</g>
<path d="M82.2879 14.4181C77.3571 11.2925 66.5654 17.9425 61.6347 14.8169L65.8963 8.3978C70.7656 11.1742 81.2712 4.57297 86.1318 7.34873L82.2879 14.4181Z" fill="#639334"/>
<path opacity="0.5" d="M84.6998 7.36365C79.8864 6.03978 71.5403 10.6082 66.7256 9.30191C66.6081 9.46357 66.4419 9.58324 66.2514 9.6433C66.061 9.70337 65.8563 9.70067 65.6674 9.6356C64.6721 11.1045 63.7199 12.5855 62.7508 14.0564C62.834 14.0833 62.91 14.1291 62.9728 14.1901C63.0356 14.251 63.0835 14.3256 63.113 14.4081C63.1425 14.4905 63.1526 14.5786 63.1427 14.6656C63.1328 14.7527 63.103 14.8362 63.0558 14.9099C67.9413 16.4424 76.5251 11.8834 81.358 13.4119C81.461 13.2419 81.6186 13.1117 81.8049 13.0427C81.9913 12.9736 82.1955 12.9697 82.3844 13.0316C83.2664 11.4304 84.1491 9.82044 85.0223 8.21856C84.9405 8.18943 84.8659 8.14279 84.8038 8.08189C84.7418 8.021 84.6938 7.9473 84.6631 7.86594C84.6324 7.78457 84.6197 7.69749 84.6261 7.61074C84.6324 7.524 84.6576 7.43968 84.6998 7.36365Z" fill="#BDE377"/>
<path d="M77.5776 10.48C76.8447 11.7482 74.6421 13.0801 72.6116 13.551C70.581 14.0218 69.6114 13.3203 70.3976 12.0473C71.1837 10.7743 73.3661 9.47615 75.3636 8.97626C77.361 8.47637 78.3226 9.16847 77.5776 10.48Z" fill="#639334"/>
<path d="M81.5661 10.1328C81.4675 10.2714 81.3365 10.3836 81.1845 10.4597C81.0325 10.5358 80.8641 10.5733 80.6942 10.5691C80.3609 10.5435 80.1888 10.3713 80.3406 10.118C80.4446 9.97078 80.5823 9.85063 80.7422 9.76766C80.9021 9.68469 81.0796 9.64131 81.2597 9.64118C81.56 9.63778 81.7065 9.91396 81.5661 10.1328Z" fill="#639334"/>
<path d="M67.7439 12.3722C67.6349 12.5126 67.4959 12.6267 67.3371 12.7062C67.1783 12.7857 67.0037 12.8285 66.8261 12.8315C66.484 12.8052 66.3484 12.6182 66.4995 12.3737C66.61 12.2382 66.7497 12.1296 66.9083 12.0562C67.0668 11.9827 67.2399 11.9462 67.4146 11.9495C67.7419 11.9394 67.9045 12.1197 67.7439 12.3722Z" fill="#639334"/>
<path d="M94.5389 28.6071C94.2771 28.7989 94.0166 28.7435 93.9309 28.4809C93.8974 28.3345 93.9062 28.1817 93.9561 28.0401C94.006 27.8986 94.0951 27.7741 94.213 27.6813C94.2566 27.6351 94.3111 27.6006 94.3715 27.581C94.4319 27.5614 94.4962 27.5573 94.5586 27.5692C94.621 27.581 94.6794 27.6084 94.7285 27.6487C94.7775 27.6891 94.8156 27.7411 94.8392 27.8001C94.8722 27.9492 94.8614 28.1048 94.8082 28.248C94.7549 28.3911 94.6614 28.5159 94.5389 28.6071Z" fill="#639334"/>
<path d="M89.0092 20.7556C88.9031 20.8169 88.781 20.8447 88.6589 20.8353C88.5368 20.8259 88.4204 20.7798 88.3249 20.703C88.1164 20.5457 88.0631 20.3208 88.2136 20.1999C88.3246 20.1446 88.4484 20.1205 88.572 20.13C88.6955 20.1395 88.8142 20.1823 88.9154 20.2539C89.1428 20.395 89.1779 20.6273 89.0092 20.7556Z" fill="#639334"/>
<g style="mix-blend-mode:multiply" opacity="0.2">
<path d="M47.9461 18.1452C42.5442 22.525 37.5033 24.9633 33.2553 25.5815C35.5167 27.5449 37.4427 29.8645 38.9573 32.4489C41.3879 32.3973 45.7749 31.0038 48.6982 29.5949C48.9919 25.5464 47.6349 22.1923 47.9461 18.1452Z" fill="black"/>
</g>
<path d="M58.1877 20.7685C51.2788 27.5315 44.6919 31.0254 39.3804 31.4736C37.8467 28.9261 35.8941 26.6561 33.6049 24.7595C39.2518 23.6218 46.1748 19.4297 53.411 11.9677C55.3222 14.7163 56.9241 17.6678 58.1877 20.7685Z" fill="#639334"/>
<path opacity="0.5" d="M52.1969 14.0478C46.0741 19.997 40.2154 23.5469 35.2764 24.8891C35.5814 25.1687 35.5045 25.4806 35.1185 25.5658C36.5983 26.9507 37.9179 28.4978 39.0525 30.1777C39.283 30.172 39.511 30.226 39.7145 30.3345C39.918 30.443 40.09 30.6023 40.2138 30.7969C44.9186 29.9753 50.5432 26.9461 56.3885 21.5054C56.2911 21.2038 56.2818 20.8807 56.3616 20.5739C56.4415 20.2672 56.6072 19.9896 56.8394 19.7739C55.8973 17.7078 54.7996 15.7163 53.5559 13.8167C53.0579 14.3259 52.4607 14.4036 52.1969 14.0478Z" fill="#BDE377"/>
<path d="M48.7661 22.1905C49.2002 23.0214 49.301 23.9869 49.0479 24.8898C48.7948 25.7926 48.2069 26.5648 47.4042 27.0487C46.6005 27.4372 45.6845 27.5253 44.8216 27.297C43.9588 27.0687 43.2061 26.5391 42.6994 25.8038C41.6852 24.4189 42.1064 22.844 43.8312 21.758C45.5561 20.672 47.8153 20.6691 48.7661 22.1905Z" fill="#639334"/>
<path d="M52.6482 19.0638C52.7254 19.2614 52.7363 19.4787 52.6792 19.683C52.6221 19.8873 52.5001 20.0675 52.3317 20.1963C52.2678 20.2635 52.1897 20.3155 52.1032 20.3487C52.0167 20.3819 51.9239 20.3955 51.8316 20.3884C51.7392 20.3813 51.6496 20.3537 51.5692 20.3076C51.4887 20.2616 51.4196 20.1982 51.3667 20.1221C51.2792 19.9326 51.2619 19.7182 51.3177 19.5171C51.3736 19.316 51.4991 19.1412 51.6717 19.0241C52.0537 18.762 52.4606 18.7492 52.6482 19.0638Z" fill="#639334"/>
<path d="M40.4614 26.78C40.5109 26.8305 40.5462 26.8931 40.564 26.9616C40.5818 27.03 40.5813 27.1019 40.5627 27.1702C40.5441 27.2384 40.5079 27.3006 40.4578 27.3505C40.4077 27.4004 40.3454 27.4363 40.2772 27.4546C40.1117 27.4974 39.9373 27.4909 39.7754 27.4362C39.6135 27.3814 39.4711 27.2806 39.3655 27.1461C39.3143 27.1 39.2766 27.0407 39.2565 26.9747C39.2365 26.9086 39.2349 26.8384 39.2518 26.7715C39.2688 26.7046 39.3037 26.6437 39.3527 26.5952C39.4018 26.5467 39.4631 26.5126 39.5302 26.4964C39.6961 26.4467 39.8729 26.4472 40.0386 26.4976C40.2042 26.548 40.3513 26.6463 40.4614 26.78Z" fill="#639334"/>
<g style="mix-blend-mode:multiply" opacity="0.3">
<path d="M72.3908 20.3166C71.6822 20.2582 70.9793 20.4837 70.4366 20.9435C70.9685 20.5391 71.6305 20.3448 72.2964 20.3977C72.6335 20.4142 72.9641 20.497 73.2692 20.6414C73.5743 20.7859 73.848 20.9891 74.0746 21.2394C74.3012 21.4897 74.4763 21.7823 74.5899 22.1004C74.7034 22.4185 74.7532 22.7559 74.7364 23.0933C74.7157 23.4196 74.6293 23.7385 74.4825 24.0307C74.3357 24.3228 74.1315 24.5824 73.882 24.7937C74.1541 24.5855 74.3796 24.3226 74.5441 24.0219C74.7085 23.7213 74.8083 23.3895 74.837 23.048C74.8586 22.7072 74.8123 22.3656 74.7006 22.0429C74.5888 21.7203 74.414 21.4232 74.1863 21.1689C73.9586 20.9146 73.6826 20.7083 73.3743 20.562C73.066 20.4156 72.7317 20.3322 72.3908 20.3166Z" fill="#FFBF00"/>
</g>
<path d="M59.3951 10.3006C58.0307 10.8315 56.7114 10.7742 56.5178 10.1942C56.3241 9.61409 57.2223 8.72059 58.5868 8.18969C59.9513 7.65879 61.2705 7.71608 61.4642 8.29615C61.6578 8.87622 60.7589 9.77849 59.3951 10.3006Z" fill="#DEA61C"/>
<path d="M59.3287 10.1283C57.9649 10.6504 56.645 10.6019 56.4513 10.0218C56.2577 9.44173 57.1559 8.54823 58.5204 8.01733C59.8848 7.48643 61.2041 7.54372 61.3977 8.12378C61.5914 8.70385 60.7013 9.60681 59.3287 10.1283Z" fill="#FFDE00"/>
<path d="M59.2762 10.0012C58.0852 10.4571 56.9589 10.4147 56.7598 9.90482C56.5608 9.39498 57.3713 8.60954 58.5711 8.15429C59.7709 7.69904 60.8891 7.73203 61.0881 8.24187C61.2872 8.7517 60.4767 9.53715 59.2762 10.0012Z" fill="#FFBF00"/>
<g style="mix-blend-mode:multiply" opacity="0.3">
<path d="M61.0889 8.24059C60.9857 7.97655 60.6341 7.84355 60.1584 7.83346C60.597 7.86719 60.9047 7.99682 61.0093 8.24329C61.2083 8.75313 60.3979 9.53857 59.198 9.99383C58.6935 10.1976 58.1556 10.3059 57.6116 10.3134C58.1851 10.324 58.7547 10.2175 59.2858 10.0006C60.4775 9.53587 61.2792 8.74975 61.0889 8.24059Z" fill="#FFBF00"/>
</g>
<path d="M15.7872 58.3412L15.8453 58.9916L16.0473 58.4251L17.4148 55.1119L18.037 55.1598L18.8549 58.641L18.9633 59.2415L19.1328 58.5951L20.2569 55.3305L20.9982 55.3875L19.2679 60.1531L18.5958 60.1014L17.7164 56.4641L17.6567 56.086L17.5398 56.4505L16.0724 59.9074L15.4003 59.8557L14.4228 54.8818L15.1602 54.9385L15.7872 58.3412Z" fill="white"/>
<path d="M22.9307 60.5021C22.3674 60.4588 21.9214 60.263 21.5928 59.9147C21.2643 59.5642 21.1208 59.1191 21.1623 58.5795L21.171 58.4658C21.1986 58.1068 21.3013 57.7928 21.4791 57.5239C21.6597 57.2529 21.8968 57.0491 22.1907 56.9124C22.4872 56.7737 22.8007 56.7171 23.131 56.7425C23.6712 56.784 24.0793 56.9713 24.355 57.3043C24.6308 57.6373 24.7464 58.0925 24.702 58.67L24.6822 58.9276L21.8669 58.7111C21.8497 59.0687 21.9466 59.3666 22.1575 59.6048C22.3711 59.8411 22.6546 59.9728 23.008 60C23.2589 60.0193 23.4749 59.991 23.6558 59.9152C23.8368 59.8394 23.9983 59.7329 24.1402 59.5958L24.5515 59.9235C24.1675 60.3628 23.6272 60.5556 22.9307 60.5021ZM23.0919 57.2509C22.8051 57.2288 22.5574 57.3018 22.3487 57.4696C22.1402 57.6353 22.0003 57.8802 21.9291 58.2045L24.0108 58.3645L24.0144 58.3177C24.0181 58.0017 23.9394 57.7512 23.7785 57.5661C23.6178 57.3788 23.3889 57.2737 23.0919 57.2509Z" fill="white"/>
<path d="M27.1018 60.8228C26.5385 60.7795 26.0925 60.5837 25.7639 60.2354C25.4354 59.8849 25.2919 59.4399 25.3334 58.9003L25.3421 58.7866C25.3697 58.4276 25.4724 58.1136 25.6502 57.8446C25.8308 57.5737 26.0679 57.3698 26.3618 57.2332C26.6583 57.0945 26.9718 57.0378 27.3021 57.0632C27.8423 57.1048 28.2504 57.292 28.5261 57.625C28.8018 57.958 28.9175 58.4133 28.8731 58.9908L28.8533 59.2483L26.038 59.0318C26.0208 59.3894 26.1177 59.6873 26.3286 59.9256C26.5422 60.1618 26.8257 60.2935 27.1791 60.3207C27.43 60.34 27.646 60.3118 27.8269 60.2359C28.0079 60.1601 28.1694 60.0537 28.3113 59.9166L28.7226 60.2443C28.3386 60.6835 27.7983 60.8764 27.1018 60.8228ZM27.263 57.5716C26.9762 57.5496 26.7285 57.6225 26.5198 57.7904C26.3113 57.956 26.1714 58.201 26.1001 58.5252L28.1819 58.6853L28.1855 58.6385C28.1891 58.3225 28.1105 58.072 27.9496 57.8869C27.7889 57.6996 27.56 57.5945 27.263 57.5716Z" fill="white"/>
<path d="M30.8423 59.3575L30.3657 59.728L30.2679 60.999L29.5574 60.9443L29.9525 55.8068L30.663 55.8615L30.4241 58.9687L30.8349 58.6L32.2208 57.5088L33.085 57.5752L31.3518 58.9627L32.9949 61.2087L32.1615 61.1446L30.8423 59.3575Z" fill="white"/>
<path d="M34.3123 61.31L33.6017 61.2553L33.9968 56.1178L34.7073 56.1725L34.3123 61.31Z" fill="white"/>
<path d="M36.8823 60.5958L38.0588 57.9577L38.8193 58.0162L36.8273 62.0652C36.5224 62.6474 36.0883 62.9168 35.525 62.8735L35.3913 62.8531L35.1296 62.7893L35.1682 62.2876L35.3592 62.3157C35.5999 62.3342 35.7901 62.3062 35.9298 62.2317C36.072 62.1574 36.1953 62.011 36.2997 61.7925L36.4854 61.4367L35.2781 57.7439L36.0539 57.8035L36.8823 60.5958Z" fill="white"/>
<defs>
<linearGradient id="paint0_linear_304_186" x1="26.3375" y1="95.7318" x2="15.7535" y2="77.9533" gradientUnits="userSpaceOnUse">
<stop stop-color="#814DB0"/>
<stop offset="1" stop-color="#BE6FD3"/>
</linearGradient>
<linearGradient id="paint1_linear_304_186" x1="21031.5" y1="11529.8" x2="25615.6" y2="5278.95" gradientUnits="userSpaceOnUse">
<stop stop-color="#814DB0"/>
<stop offset="1" stop-color="#BE6FD3"/>
</linearGradient>
<linearGradient id="paint2_linear_304_186" x1="21032.3" y1="11478.6" x2="25594.4" y2="5251.53" gradientUnits="userSpaceOnUse">
<stop stop-color="#814DB0"/>
<stop offset="1" stop-color="#BE6FD3"/>
</linearGradient>
<linearGradient id="paint3_linear_304_186" x1="24.3809" y1="78.0156" x2="24.9891" y2="70.1058" gradientUnits="userSpaceOnUse">
<stop stop-color="#F5AB2E"/>
<stop offset="1" stop-color="#FFCB5A"/>
</linearGradient>
</defs>
</svg>
