<svg width="157" height="154" viewBox="0 0 157 154" fill="none" xmlns="http://www.w3.org/2000/svg">
<path d="M75.7594 71.5978L95.4042 120.827C96.065 122.474 96.2171 124.28 95.8411 126.014C95.4651 127.748 94.5781 129.329 93.2947 130.554C92.4728 131.327 91.5136 131.94 90.4665 132.361L63.411 143.155C61.2225 144.026 58.7781 143.994 56.6135 143.065C54.449 142.136 52.741 140.387 51.8641 138.201L32.2163 88.9565C31.3484 86.7696 31.3828 84.3279 32.312 82.1663C33.2412 80.0048 34.9894 78.2998 37.1735 77.4248L64.2412 66.6127C66.43 65.7505 68.8713 65.7911 71.0302 66.7255C73.1892 67.6599 74.8898 69.412 75.7594 71.5978Z" fill="#961BA9"/>
<path opacity="0.2" d="M75.7594 71.5978L95.4042 120.827C96.065 122.474 96.2171 124.28 95.8411 126.014C95.4651 127.748 94.5781 129.329 93.2947 130.554C92.4728 131.327 91.5136 131.94 90.4665 132.361L63.411 143.155C61.2225 144.026 58.7781 143.994 56.6135 143.065C54.449 142.136 52.741 140.387 51.8641 138.201L32.2163 88.9565C31.3484 86.7696 31.3828 84.3279 32.312 82.1663C33.2412 80.0048 34.9894 78.2998 37.1735 77.4248L64.2412 66.6127C66.43 65.7505 68.8713 65.7911 71.0302 66.7255C73.1892 67.6599 74.8898 69.412 75.7594 71.5978Z" fill="black"/>
<path d="M74.2055 73.5659L93.8545 122.801C94.3567 124.052 94.5663 125.402 94.4673 126.748C94.3684 128.093 93.9634 129.397 93.2835 130.562C92.4616 131.336 91.5024 131.949 90.4553 132.37L63.4107 143.155C61.2222 144.026 58.7778 143.993 56.6132 143.065C54.4487 142.136 52.7407 140.387 51.8638 138.201L32.216 88.9562C31.7153 87.7056 31.5072 86.3571 31.6076 85.0137C31.7081 83.6704 32.1144 82.3678 32.7955 81.2056C33.6132 80.4268 34.5735 79.8131 35.6237 79.3984L62.6688 68.6476C64.8514 67.776 67.2903 67.8041 69.4522 68.7258C71.6141 69.6474 73.3231 71.3877 74.2055 73.5659Z" fill="#961BA9"/>
<path opacity="0.5" d="M74.2055 73.5659L93.8545 122.801C94.3567 124.052 94.5663 125.402 94.4673 126.748C94.3684 128.093 93.9634 129.397 93.2835 130.562C92.4616 131.336 91.5024 131.949 90.4553 132.37L63.4107 143.155C61.2222 144.026 58.7778 143.993 56.6132 143.065C54.4487 142.136 52.7407 140.387 51.8638 138.201L32.216 88.9562C31.7153 87.7056 31.5072 86.3571 31.6076 85.0137C31.7081 83.6704 32.1144 82.3678 32.7955 81.2056C33.6132 80.4268 34.5735 79.8131 35.6237 79.3984L62.6688 68.6476C64.8514 67.776 67.2903 67.8041 69.4522 68.7258C71.6141 69.6474 73.3231 71.3877 74.2055 73.5659Z" fill="#FAFAFA"/>
<path d="M45.7461 101.122L42.8604 102.291L57.7906 139.144L60.6763 137.975L45.7461 101.122Z" fill="#FAFAFA"/>
<path d="M64.8204 136.297L61.9219 137.448L46.9975 100.608L49.8863 99.4557L64.8204 136.297Z" fill="#FAFAFA"/>
<path d="M69.031 134.612L66.1368 135.769L51.2124 98.9289L54.1066 97.7725L69.031 134.612Z" fill="#FAFAFA"/>
<path opacity="0.5" d="M70.9551 91.0484L68.0693 92.2175L82.9996 129.07L85.8853 127.901L70.9551 91.0484Z" fill="black"/>
<path d="M64.0239 82.7347L66.0561 87.7314L64.3474 88.4248C63.5183 88.759 62.5906 88.7509 61.7675 88.4023C60.9444 88.0536 60.2931 87.3929 59.9564 86.5649L58.5987 83.23L62.0607 81.844C62.4391 81.7021 62.8585 81.7162 63.2265 81.8832C63.5946 82.0502 63.8814 82.3564 64.0239 82.7347Z" fill="#FAFAFA"/>
<path d="M61.7946 81.2444L58.3326 82.6305L56.8531 78.9689C56.6867 78.5585 56.6028 78.1193 56.6062 77.6764C56.6096 77.2336 56.7003 76.7957 56.873 76.3879C57.0458 75.9801 57.2972 75.6104 57.6129 75.2998C57.9286 74.9892 58.3025 74.7439 58.7131 74.5779L60.4894 73.8585L62.6476 79.2666C62.724 79.4522 62.7625 79.6512 62.7608 79.8519C62.7591 80.0526 62.7173 80.2509 62.6378 80.4352C62.5583 80.6195 62.4428 80.7861 62.298 80.9251C62.1531 81.064 61.982 81.1726 61.7946 81.2444Z" fill="#FAFAFA"/>
<path d="M65.5066 80.4898L68.9892 79.0964L70.3111 82.3625C70.4794 82.7727 70.5648 83.2122 70.5623 83.6555C70.5598 84.0989 70.4695 84.5374 70.2966 84.9457C70.1236 85.354 69.8715 85.724 69.5547 86.0342C69.238 86.3445 68.8629 86.589 68.4512 86.7534L66.6487 87.4844L64.6481 82.4719C64.5731 82.2855 64.5358 82.0861 64.5385 81.8852C64.5411 81.6843 64.5836 81.4859 64.6634 81.3016C64.7433 81.1172 64.8589 80.9505 65.0037 80.8112C65.1484 80.6718 65.3193 80.5626 65.5066 80.4898Z" fill="#FAFAFA"/>
<path d="M67.2383 74.7588L68.7407 78.4727L65.2581 79.8661C64.8838 80.0135 64.4665 80.0072 64.0969 79.8485C63.7272 79.6897 63.4353 79.3914 63.2845 79.0185L61.1263 73.6104L62.8558 72.9098C63.2649 72.7434 63.7029 72.6593 64.1446 72.6621C64.5862 72.665 65.023 72.7549 65.43 72.9266C65.8369 73.0983 66.2061 73.3485 66.5164 73.6628C66.8266 73.9772 67.0719 74.3496 67.2383 74.7588Z" fill="#FAFAFA"/>
<path d="M95.9647 85.5207C97.0358 89.4025 89.7494 94.7285 79.8923 97.4412C70.0351 100.154 61.1689 99.2109 60.0979 95.3291C59.8559 94.4286 58.6908 91.2516 59.2298 90.272C61.0998 86.935 68.4513 85.4723 76.0244 83.3901C83.067 81.4386 90.2861 78.1304 93.4821 80.294C95.4204 81.6165 95.6598 84.4145 95.9647 85.5207Z" fill="#FFCC4D"/>
<path opacity="0.2" d="M93.4812 80.2955C95.7251 82.2498 95.5807 84.1344 95.9638 85.5222C96.3468 86.91 95.6165 88.5822 94.0335 90.1959C93.8414 90.4051 93.6381 90.6038 93.4245 90.7911C92.1291 91.9234 90.7116 92.9079 89.1982 93.7264C89.0065 93.8751 88.7679 93.9636 88.5452 94.0837C86.7514 95.0222 84.8903 95.826 82.9774 96.4886L82.2849 96.7272C81.5109 96.9852 80.7035 97.2341 79.8791 97.461C79.0547 97.6879 78.2376 97.8564 77.4516 98.0536L76.7605 98.2034C74.8493 98.5916 72.9131 98.844 70.9663 98.9586L70.2705 98.9892C68.5526 99.0654 66.8317 98.9457 65.1409 98.6323C64.8849 98.5851 64.6441 98.5349 64.4046 98.475C62.0706 97.8982 60.4999 96.8346 60.086 95.3391C59.8276 94.3723 58.5516 91.3691 59.2136 90.2765C60.1196 89.0509 61.3465 88.0994 62.759 87.527L63.409 87.2335C66.6928 85.8101 71.3562 84.6945 76.0058 83.4141C81.4896 81.908 87.786 79.877 91.7907 80.0621C92.0278 80.0715 92.2643 80.0932 92.4992 80.1269C92.8305 80.1569 93.1589 80.2133 93.4812 80.2955Z" fill="black"/>
<g opacity="0.2">
<path opacity="0.2" d="M63.3194 86.5474L63.4243 87.2032L65.1496 98.6159C64.8936 98.5687 64.6528 98.5185 64.4133 98.4586L62.7634 87.5051L62.6387 86.6541L63.3194 86.5474Z" fill="black"/>
</g>
<g opacity="0.2">
<path opacity="0.2" d="M69.2021 87.1896L70.99 98.9662L70.2942 98.9969L68.5298 87.3073L69.2021 87.1896Z" fill="black"/>
</g>
<g opacity="0.2">
<path opacity="0.2" d="M81.2883 85.3634L82.9756 96.4896L82.2832 96.7283L80.5644 85.4596L81.2883 85.3634Z" fill="black"/>
</g>
<g opacity="0.2">
<path opacity="0.2" d="M75.6659 86.2144L77.4617 98.0463L76.7706 98.1962L74.964 86.2937L75.6659 86.2144Z" fill="black"/>
</g>
<g opacity="0.2">
<path opacity="0.2" d="M87.567 82.9001L89.1982 93.7276C89.0064 93.8764 88.7679 93.9648 88.5451 94.0849L86.8723 83L87.567 82.9001Z" fill="black"/>
</g>
<path d="M94.9238 82.2205C95.9949 86.1023 88.8642 91.448 78.9973 94.1595C69.1304 96.8709 60.2739 95.9292 59.2084 92.0431C58.1428 88.1571 65.2723 82.8211 75.1349 80.1042C84.9976 77.3872 93.84 78.3223 94.9238 82.2205Z" fill="#FFCC4D"/>
<path opacity="0.2" d="M91.5502 83.1269C92.306 85.8666 86.5901 89.8343 78.7863 91.9812C70.9826 94.1282 64.0407 93.641 63.285 90.9012C62.5292 88.1614 68.2451 84.1937 76.0543 82.0425C83.8635 79.8914 90.7999 80.3828 91.5502 83.1269Z" fill="white"/>
<path d="M113.104 29.6345C117.005 30.6368 118.011 39.606 115.454 49.5136C112.896 59.4211 107.67 66.6336 103.757 65.6052C102.857 65.3728 99.529 64.8384 98.9332 63.8437C96.9758 60.5616 99.3607 53.4643 101.321 45.8537C103.146 38.7695 103.854 30.867 107.32 29.1702C109.444 28.1636 111.998 29.3513 113.104 29.6345Z" fill="#FFCC4D"/>
<path opacity="0.2" d="M107.337 29.1911C110.154 28.2177 111.728 29.2964 113.103 29.6335C114.479 29.9705 115.587 31.4549 116.206 33.6337C116.286 33.8959 116.35 34.1709 116.413 34.4556C116.758 36.1395 116.912 37.8566 116.873 39.5748C116.877 39.8175 116.866 40.0632 116.859 40.3144C116.781 42.3427 116.552 44.3623 116.174 46.3565L116.037 47.0508C115.876 47.851 115.688 48.6724 115.475 49.4956C115.263 50.3188 115.033 51.12 114.781 51.9037C114.718 52.128 114.639 52.3554 114.572 52.5742C113.958 54.426 113.211 56.2311 112.337 57.9755C112.236 58.1949 112.126 58.3936 112.027 58.5936C111.235 60.1231 110.272 61.5583 109.158 62.8718C108.995 63.0687 108.829 63.2503 108.658 63.4264C106.995 65.1635 105.31 66.023 103.79 65.6133C102.823 65.3626 99.5811 64.9725 98.9708 63.8574C98.3481 62.4626 98.1287 60.9213 98.3372 59.4082C98.3516 59.1777 98.3768 58.9387 98.4033 58.69C98.7921 55.1064 100.151 50.5335 101.359 45.8673C102.79 40.3694 104.149 33.8837 106.3 30.5131C106.429 30.3078 106.568 30.1093 106.716 29.9183C106.905 29.661 107.113 29.418 107.337 29.1911Z" fill="black"/>
<g opacity="0.2">
<path opacity="0.2" d="M97.7626 58.4689L98.3851 58.7057L109.14 62.8876C108.977 63.0844 108.81 63.266 108.64 63.4422L98.3105 59.4129L97.5349 59.1369L97.7626 58.4689Z" fill="black"/>
</g>
<g opacity="0.2">
<path opacity="0.2" d="M101.241 53.6816L112.321 57.9886C112.219 58.2081 112.11 58.4068 112.01 58.6067L100.986 54.3266L101.241 53.6816Z" fill="black"/>
</g>
<g opacity="0.2">
<path opacity="0.2" d="M105.672 42.2932L116.164 46.3725L116.026 47.0669L105.418 42.9382L105.672 42.2932Z" fill="black"/>
</g>
<g opacity="0.2">
<path opacity="0.2" d="M103.614 47.5854L114.766 51.9162C114.703 52.1405 114.625 52.3679 114.557 52.5867L103.354 48.2345L103.614 47.5854Z" fill="black"/>
</g>
<g opacity="0.2">
<path opacity="0.2" d="M106.65 35.614L116.858 39.5883C116.862 39.831 116.85 40.0767 116.843 40.3279L106.4 36.2644L106.65 35.614Z" fill="black"/>
</g>
<path d="M112.126 48.65C114.677 38.744 113.586 29.8996 109.688 28.8955C105.79 27.8914 100.562 35.1078 98.0101 45.0138C95.4583 54.9198 96.5495 63.7642 100.447 64.7683C104.345 65.7724 109.574 58.556 112.126 48.65Z" fill="#FFCC4D"/>
<path opacity="0.2" d="M110.15 47.7391C112.17 39.8988 111.574 32.9676 108.818 32.2577C106.062 31.5479 102.191 37.3282 100.172 45.1685C98.1519 53.0087 98.7485 59.9399 101.504 60.6498C104.26 61.3597 108.131 55.5793 110.15 47.7391Z" fill="white"/>
<path d="M77.5165 38.3655C79.6881 42.4556 72.7814 50.2514 62.3445 55.713C51.9075 61.1745 41.7125 62.2975 39.5574 58.1946C39.0551 57.2414 36.9456 53.9895 37.3342 52.7141C38.6228 48.5029 46.5318 45.0546 54.5367 40.8474C62.0175 36.915 69.2846 31.4284 73.4156 33.0775C75.94 34.1035 76.8984 37.195 77.5165 38.3655Z" fill="#FFCC4D"/>
<path opacity="0.2" d="M73.4192 33.0833C76.4445 34.7212 76.7248 36.8819 77.5031 38.3494C78.2813 39.8168 77.8637 41.8695 76.4873 44.0777C76.3239 44.3536 76.1368 44.6216 75.9442 44.8938C74.7643 46.4879 73.4113 47.9463 71.91 49.2422C71.6854 49.4164 71.4662 49.5864 71.2658 49.8032C69.4747 51.3008 67.576 52.6648 65.585 53.8841L64.8801 54.2991C64.0681 54.7797 63.2214 55.2608 62.3535 55.7145C61.4856 56.1682 60.6268 56.5885 59.7663 56.9838C59.524 57.1015 59.2733 57.2082 59.0268 57.3203C56.9755 58.2304 54.8609 58.9904 52.6996 59.5946C52.4374 59.6751 52.1776 59.7362 51.9263 59.8082C50.0093 60.3125 48.0415 60.5992 46.0603 60.663C45.7623 60.6747 45.4807 60.6737 45.1893 60.6715C42.4155 60.6025 40.3883 59.7877 39.5597 58.2101C39.0272 57.184 36.8809 54.1448 37.3311 52.7338C37.7813 51.3229 39.0007 50.0437 40.6404 48.7633L41.2979 48.2534C44.6708 45.8132 49.6163 43.4433 54.5347 40.8575C60.3363 37.8149 66.92 33.9816 71.4655 33.212C71.7312 33.1657 71.9993 33.1336 72.2684 33.1158C72.6506 33.075 73.0353 33.0642 73.4192 33.0833Z" fill="black"/>
<g opacity="0.2">
<path opacity="0.2" d="M41.046 47.5537L41.3169 48.2651L46.064 60.6777C45.766 60.6894 45.4844 60.6884 45.1931 60.6862L40.6441 48.778L40.2921 47.8488L41.046 47.5537Z" fill="black"/>
</g>
<g opacity="0.2">
<path opacity="0.2" d="M47.7988 46.8091L52.6865 59.5954C52.4242 59.6759 52.1645 59.7369 51.9132 59.809L47.0473 47.0848L47.7988 46.8091Z" fill="black"/>
</g>
<g opacity="0.2">
<path opacity="0.2" d="M60.9662 41.7934L65.5933 53.9042L64.8885 54.3192L60.2135 42.0788L60.9662 41.7934Z" fill="black"/>
</g>
<g opacity="0.2">
<path opacity="0.2" d="M54.8516 44.1301L59.7641 56.9937C59.5219 57.1113 59.2712 57.218 59.0247 57.3302L54.0904 44.4046L54.8516 44.1301Z" fill="black"/>
</g>
<g opacity="0.2">
<path opacity="0.2" d="M67.4152 37.4745L71.9151 49.2628C71.6904 49.437 71.4712 49.607 71.2708 49.8238L66.6667 37.7654L67.4152 37.4745Z" fill="black"/>
</g>
<path d="M75.502 34.8866C73.3476 30.7838 63.146 31.8977 52.716 37.3746C42.2861 42.8515 35.5775 50.6173 37.7319 54.7201C39.8863 58.8229 50.0879 57.709 60.5179 52.2322C70.9478 46.7553 77.6565 38.9894 75.502 34.8866Z" fill="#FFCC4D"/>
<path opacity="0.2" d="M71.9529 36.7552C70.4305 33.8561 62.506 35.0192 54.2529 39.3529C45.9998 43.6867 40.5435 49.5501 42.0658 52.4492C43.5882 55.3483 51.5127 54.1853 59.7658 49.8515C68.0189 45.5177 73.4752 39.6543 71.9529 36.7552Z" fill="white"/>
</svg>
