<svg width="115" height="107" viewBox="0 0 115 107" fill="none" xmlns="http://www.w3.org/2000/svg">
<path d="M61.8127 59.0725H62.1727C62.8447 59.0725 63.2287 59.4685 63.3247 60.2605C63.3247 60.9565 62.3767 61.3045 60.4807 61.3045C57.4327 62.4565 55.3807 64.1365 54.3247 66.3445L54.0727 67.3885V67.6045C54.0727 68.6605 54.7807 69.1885 56.1967 69.1885L60.1567 68.9725C62.8207 68.9725 64.6207 70.2685 65.5567 72.8605L65.7727 74.1205C65.7727 76.6165 63.7567 78.8965 59.7247 80.9605C58.5247 81.2965 57.4687 81.5245 56.5567 81.6445C54.1087 81.6445 52.3807 80.2645 51.3727 77.5045C51.0847 76.5685 50.9407 75.6205 50.9407 74.6605C50.9407 74.3725 51.1687 74.0725 51.6247 73.7605H52.0567C52.8007 73.7605 53.1727 74.7085 53.1727 76.6045C53.7967 78.4765 54.7807 79.4125 56.1247 79.4125H57.0967C59.0407 79.4125 60.9607 78.2845 62.8567 76.0285C63.3607 75.3085 63.6127 74.5285 63.6127 73.6885C63.6127 72.5125 62.6887 71.6845 60.8407 71.2045H60.6967L55.9807 71.3125C53.3647 71.0005 52.0567 69.9205 52.0567 68.0725L51.9127 67.6045C51.9127 65.1325 53.7607 62.7325 57.4567 60.4045C59.0647 59.5165 60.5167 59.0725 61.8127 59.0725ZM70.9955 58.5325C71.6675 58.6765 72.0035 59.0125 72.0035 59.5405L71.7875 61.1245V61.5925C71.7875 62.6485 71.9075 63.7645 72.1475 64.9405H72.2195C75.0035 64.1005 76.7315 63.6805 77.4035 63.6805C78.0995 63.8725 78.4475 64.2205 78.4475 64.7245C78.4475 65.5405 77.6195 65.9485 75.9635 65.9485L72.2195 67.2805C72.2195 70.5205 72.5675 74.9245 73.2635 80.4925C73.1195 81.1405 72.7715 81.4645 72.2195 81.4645H72.1475C71.3075 81.4645 70.8875 80.3845 70.8875 78.2245C70.5755 76.6165 70.3115 73.1245 70.0955 67.7485H69.4475C67.1915 67.6045 66.0635 67.0765 66.0635 66.1645C66.0635 65.9005 66.3155 65.5765 66.8195 65.1925H67.1795L68.8355 65.6245H69.9875L69.6635 61.1245C69.6635 59.3965 70.1075 58.5325 70.9955 58.5325ZM85.7364 66.4885C86.7924 66.4885 87.3204 66.9085 87.3204 67.7485L86.9964 68.4325L86.7804 75.0205C86.7804 77.9965 87.3804 79.8445 88.5804 80.5645L88.6524 81.1045C88.5804 81.8005 88.2564 82.1485 87.6804 82.1485H87.4644C85.6644 80.9245 84.7644 79.0525 84.7644 76.5325H84.5124C83.5524 79.2205 82.3884 80.5645 81.0204 80.5645C79.7484 80.2045 79.1124 79.2565 79.1124 77.7205C79.1124 74.3365 80.4684 70.9645 83.1804 67.6045C84.0924 66.8605 84.9444 66.4885 85.7364 66.4885ZM81.3804 76.2805L81.2364 77.2885V77.9725H81.5964C83.3964 73.4845 84.2964 70.7485 84.2964 69.7645H84.1524C82.7604 71.3245 81.8364 73.4965 81.3804 76.2805ZM93.7281 66.2005C95.2401 66.2005 96.1401 67.2565 96.4281 69.3685V69.6925C96.4281 72.0205 95.2281 74.1565 92.8281 76.1005C94.2201 77.4685 96.6561 78.1525 100.136 78.1525C100.664 78.3205 100.928 78.6925 100.928 79.2685C100.928 79.9165 100.508 80.2405 99.6681 80.2405C97.3161 80.2405 94.8441 79.6405 92.2521 78.4405V79.4845C92.2521 81.9565 91.7241 83.1925 90.6681 83.1925C89.9241 83.1925 89.5521 81.7645 89.5521 78.9085V76.1005L89.4441 75.0925L89.6961 73.9405L89.4441 70.4845V70.3405C89.4441 69.6925 89.7801 69.2485 90.4521 69.0085C91.3881 67.1365 92.4801 66.2005 93.7281 66.2005ZM91.9281 74.0845C92.6241 74.0845 93.4041 72.8365 94.2681 70.3405V68.7925L93.8361 68.3245H93.5121C92.4561 69.0445 91.9281 70.9645 91.9281 74.0845ZM105.833 58.5325C106.505 58.6765 106.841 59.0125 106.841 59.5405L106.625 61.1245V61.5925C106.625 62.6485 106.745 63.7645 106.985 64.9405H107.057C109.841 64.1005 111.569 63.6805 112.241 63.6805C112.937 63.8725 113.285 64.2205 113.285 64.7245C113.285 65.5405 112.457 65.9485 110.801 65.9485L107.057 67.2805C107.057 70.5205 107.405 74.9245 108.101 80.4925C107.957 81.1405 107.609 81.4645 107.057 81.4645H106.985C106.145 81.4645 105.725 80.3845 105.725 78.2245C105.413 76.6165 105.149 73.1245 104.933 67.7485H104.285C102.029 67.6045 100.901 67.0765 100.901 66.1645C100.901 65.9005 101.153 65.5765 101.657 65.1925H102.017L103.673 65.6245H104.825L104.501 61.1245C104.501 59.3965 104.945 58.5325 105.833 58.5325Z" fill="#FFE071"/>
<path d="M68.1506 29.6656C53.1458 20.601 37.1424 13.5089 21.1025 6.51771V2.74689C21.1753 2.54532 21.1753 2.32454 21.1025 2.12296V1.77431C21.0953 1.63094 21.0547 1.49131 20.9838 1.36653C20.9129 1.24176 20.8138 1.13539 20.6944 1.05597C20.575 0.976544 20.4387 0.926297 20.2964 0.909252C20.1541 0.892207 20.0097 0.90887 19.875 0.957858L19.4719 0.636652C19.3017 0.501555 19.0932 0.423546 18.8762 0.413667C18.6592 0.403787 18.4446 0.462595 18.2628 0.581662C17.0464 1.23576 16.0801 2.27444 15.5146 3.53591C15.2457 3.55009 14.9927 3.66779 14.8083 3.86439C14.624 4.061 14.5226 4.32133 14.5253 4.59103V92.9257C14.5114 93.127 14.5732 93.3263 14.6987 93.4842C14.8242 93.6421 15.0041 93.7472 15.2032 93.7789C15.236 94.8612 15.0458 95.9388 14.6444 96.9442C14.5851 97.0991 14.5601 97.2649 14.5711 97.4304C9.71569 97.9599 5.06067 99.6599 1.00448 102.385C0.785823 102.536 0.63596 102.767 0.587859 103.029C0.539757 103.29 0.597356 103.56 0.747986 103.779C0.898615 103.998 1.12993 104.148 1.39106 104.197C1.65218 104.245 1.92172 104.187 2.14037 104.036C7.31654 100.565 13.4888 98.8944 19.7062 99.2824C25.9236 99.6703 31.8411 102.095 36.547 106.183C37.518 107.027 38.8005 105.495 37.8295 104.651C33.1343 100.574 27.2947 98.0518 21.1117 97.4304C21.1117 97.4304 21.1117 97.3846 21.1117 97.357V54.3917C21.2272 54.4422 21.352 54.4683 21.4781 54.4683C21.6042 54.4683 21.7289 54.4422 21.8445 54.3917C37.8471 48.3691 53.2569 40.8717 67.8758 31.996C67.9784 31.933 68.0677 31.8503 68.1384 31.7527C68.2091 31.6551 68.26 31.5445 68.288 31.4272C68.4171 31.3143 68.5182 31.1728 68.583 31.0138C68.6478 30.8549 68.6746 30.683 68.6612 30.5119C68.6479 30.3407 68.5947 30.1751 68.5061 30.0281C68.4174 29.8812 68.2957 29.757 68.1506 29.6656ZM19.1147 6.72871C19.0343 6.86818 18.992 7.0264 18.992 7.18745C18.992 7.3485 19.0343 7.50671 19.1147 7.64618V97.0818L16.8337 96.6048C17.1796 95.3483 17.2791 94.0365 17.1269 92.7421C17.1121 92.5614 17.0441 92.3892 16.9316 92.2471C16.8191 92.105 16.6671 91.9995 16.4948 91.9439V5.94888C16.6213 5.88404 16.7311 5.79059 16.8154 5.67594C16.8996 5.56129 16.9561 5.42861 16.9803 5.28832C17.2314 4.20054 17.8864 3.24923 18.8124 2.62762L19.1513 2.89372L19.1147 6.72871ZM22.5224 50.3272C22.2352 50.612 22.0322 50.9708 21.9361 51.3639C21.7021 51.3931 21.4869 51.5074 21.3315 51.685L21.1208 51.9144V9.97661C24.2155 16.4535 25.9016 23.5148 26.0675 30.6932C26.1478 34.4511 25.8036 38.206 25.0415 41.8865C24.6161 43.9486 24.0561 45.9806 23.3651 47.9693C23.127 48.7492 22.843 49.5382 22.5224 50.2814V50.3272ZM24.4919 51.2447C25.0507 49.9143 25.4079 48.3822 25.7285 47.272C27.0702 43.0001 27.8494 38.5711 28.0461 34.0971C28.3995 25.6619 26.7085 17.2663 23.1178 9.62796C37.7745 16.0503 52.303 22.6011 66.0528 30.7299C52.803 38.722 38.8994 45.5726 24.4919 51.2079V51.2447Z" fill="#FFE071"/>
</svg>
