<svg width="65" height="54" viewBox="0 0 65 54" fill="none" xmlns="http://www.w3.org/2000/svg">
<path d="M64.5019 6.664C62.0886 7.74041 59.5286 8.44661 56.9074 8.75907C59.6684 7.09582 61.7345 4.47858 62.7207 1.39513C60.1255 2.94625 57.2856 4.0385 54.3243 4.62454C53.087 3.29588 51.5919 2.2372 49.9316 1.51412C48.2713 0.79103 46.4813 0.41894 44.6723 0.420906C37.3699 0.420906 31.4486 6.38083 31.4486 13.7347C31.4486 14.7771 31.5658 15.7943 31.7918 16.7694C20.8014 16.214 11.0582 10.9131 4.53595 2.8573C3.35996 4.88922 2.74202 7.19954 2.74551 9.55126C2.74378 11.7433 3.27986 13.9018 4.30614 15.8349C5.33242 17.7681 6.8171 19.4162 8.62827 20.6326C6.52871 20.5654 4.47542 19.9945 2.63921 18.9673C2.63753 19.0229 2.63753 19.0777 2.63753 19.135C2.63753 25.5837 7.19525 30.9647 13.2437 32.1892C11.2961 32.72 9.25413 32.7978 7.27225 32.4167C8.95472 37.705 13.838 41.5555 19.6245 41.6634C14.9404 45.3644 9.15604 47.3719 3.2017 47.3629C2.13447 47.3629 1.0823 47.3005 0.046875 47.1767C6.09314 51.088 13.13 53.1641 20.3168 53.1568C44.6397 53.1568 57.9403 32.871 57.9403 15.2794C57.9403 14.703 57.9269 14.1274 57.9018 13.5552C60.4921 11.6724 62.7272 9.33862 64.5019 6.664Z" fill="#961BA9"/>
</svg>
