<svg width="349" height="353" viewBox="0 0 349 353" fill="none" xmlns="http://www.w3.org/2000/svg">
<path d="M20.3758 176.386C18.3138 165.62 21.534 148.774 32.8614 127.505C25.6315 135.683 17.3399 139.658 12.7334 136.569C7.13551 132.831 9.07461 120.135 17.0416 108.22C25.0085 96.3043 36.0114 89.6798 41.6093 93.4176C45.4699 96.0499 45.7419 102.859 42.9079 110.791C48.9744 101.743 55.5633 93.056 62.641 84.775C78.3556 66.2703 105.424 46.9934 123.648 38.9299C141.047 31.2262 158.122 31.4806 169.274 37.9033C171.026 36.1919 173.357 35.2012 175.805 35.1277C178.253 35.0541 180.639 35.903 182.49 37.5061C184.342 39.1091 185.523 41.3494 185.801 43.7827C186.078 46.216 185.431 48.6647 183.988 50.6434C195.631 63.989 203.669 80.9846 216.83 93.4001C233.404 109.018 257.682 112.194 280.004 116.818C302.326 121.442 326.691 130.339 336.097 151.038C342.529 165.217 340.291 181.853 335.431 196.663C323.085 234.27 294.016 266.032 257.647 281.65C238.037 290.074 213.776 293.364 196.509 280.773C195.781 280.246 195.079 279.694 194.403 279.123C194.814 282.154 194.232 285.237 192.745 287.91C191.258 290.583 188.946 292.702 186.154 293.951C183.362 295.201 180.241 295.513 177.257 294.84C174.273 294.168 171.587 292.548 169.601 290.222C167.615 287.896 166.435 284.99 166.238 281.937C166.041 278.885 166.837 275.851 168.508 273.289C170.179 270.727 172.634 268.775 175.507 267.725C178.38 266.674 181.515 266.582 184.444 267.462C173.915 250.423 171.283 227.154 160.482 209.369C157.025 203.692 152.164 198.217 145.636 196.971C141.67 196.207 137.581 197.111 133.703 198.234C120.068 202.147 107.328 208.658 93.8684 213.15C80.4088 217.643 65.5453 219.959 52.1383 215.353C35.52 209.667 23.6836 193.628 20.3758 176.386Z" fill="#FFFAEE"/>
<path d="M47.4098 86.2755C46.7244 86.5131 45.9841 86.5421 45.2823 86.3589C44.5805 86.1757 43.9487 85.7885 43.467 85.2463C42.9852 84.7041 42.675 84.0312 42.5756 83.3127C42.4762 82.5942 42.5921 81.8624 42.9086 81.2098C43.2251 80.5572 43.728 80.013 44.3537 79.6462C44.9795 79.2794 45.6999 79.1063 46.424 79.1489C47.148 79.1915 47.8432 79.4478 48.4216 79.8855C49 80.3231 49.4357 80.9224 49.6735 81.6077C49.8315 82.0628 49.8982 82.5446 49.8699 83.0255C49.8416 83.5064 49.7189 83.9771 49.5087 84.4106C49.2984 84.844 49.0049 85.2319 48.6447 85.5519C48.2846 85.8719 47.865 86.1178 47.4098 86.2755Z" fill="#FDECD6"/>
<path d="M5.12815 109.439C4.44132 109.678 3.69893 109.709 2.99493 109.526C2.29093 109.343 1.65695 108.956 1.17321 108.413C0.689465 107.869 0.377694 107.195 0.277347 106.475C0.177001 105.754 0.292586 105.02 0.609479 104.366C0.926372 103.711 1.43033 103.165 2.05759 102.797C2.68485 102.429 3.40723 102.255 4.13331 102.297C4.8594 102.34 5.55657 102.597 6.13662 103.035C6.71666 103.474 7.15351 104.075 7.39189 104.762C7.71118 105.683 7.65212 106.692 7.22767 107.569C6.80323 108.446 6.0481 109.119 5.12815 109.439Z" fill="#FDECD6"/>
<path d="M263.097 107.448C261.009 107.448 258.969 106.827 257.234 105.664C255.5 104.502 254.151 102.85 253.358 100.919C252.565 98.988 252.364 96.8647 252.78 94.819C253.196 92.7733 254.211 90.8975 255.696 89.43C257.181 87.9625 259.068 86.9695 261.119 86.5772C263.169 86.1849 265.29 86.411 267.212 87.2268C269.133 88.0426 270.769 89.4112 271.911 91.1588C273.053 92.9064 273.65 94.954 273.626 97.0415C273.607 99.817 272.488 102.472 270.514 104.423C268.54 106.374 265.872 107.462 263.097 107.448Z" fill="#FDECD6"/>
<path d="M287.709 110.606C286.918 110.601 286.146 110.361 285.491 109.918C284.836 109.474 284.327 108.845 284.029 108.112C283.731 107.379 283.657 106.574 283.816 105.799C283.976 105.024 284.362 104.314 284.925 103.758C285.488 103.202 286.204 102.826 286.981 102.676C287.758 102.527 288.562 102.612 289.291 102.919C290.02 103.227 290.641 103.744 291.077 104.405C291.512 105.065 291.742 105.84 291.736 106.632C291.733 107.157 291.626 107.677 291.422 108.161C291.217 108.645 290.92 109.084 290.546 109.453C290.172 109.822 289.729 110.114 289.242 110.312C288.755 110.51 288.234 110.61 287.709 110.606Z" fill="#FDECD6"/>
<path d="M114.762 111.484C116.139 113.861 114.92 115.467 112.682 112.694C110.445 109.922 102.294 97.2606 98.8454 85.8542C95.3971 74.4477 92.6069 57.0485 88.8691 49.6431C91.2382 51.8366 95.3533 64.0415 96.7133 71.2802C99.1613 84.2836 104.97 100.016 114.762 111.484Z" fill="#4B5923"/>
<path d="M127.861 106.035C123.886 103.403 118.631 103.289 115.437 102.841C113.287 102.41 111.268 101.482 109.542 100.131C107.816 98.7791 106.43 97.0421 105.496 95.0587C104.246 92.3926 102.825 89.8104 101.24 87.3286C105.359 85.7392 109.889 85.5602 114.121 86.8197C119.385 88.3289 121.807 93.6285 123.886 98.0595C125.966 102.49 126.194 103.921 127.861 106.035Z" fill="#4B5923"/>
<path d="M99.775 86.4946C99.0555 88.0477 92.6942 90.2675 90.5094 95.5671C88.3247 100.867 93.0013 109.299 92.6679 114.204C96.6777 110.378 101.503 104.833 100.898 98.8311C100.293 92.8296 99.0818 88.2056 99.775 86.4946Z" fill="#4B5923"/>
<path d="M266.906 160.242C265.458 162.199 263.493 161.313 264.896 158.399C266.3 155.486 273.671 144.229 282.067 138.078C290.464 131.928 304.442 125.084 309.224 119.556C308.39 122.487 299.572 129.497 293.86 132.551C283.594 138.043 272.477 147.598 266.906 160.242Z" fill="#4B5923"/>
<path d="M277.672 172.368C278.128 167.709 275.855 162.304 274.785 158.935C273.714 155.565 273.907 150.389 277.049 146.993C278.824 145.083 280.439 143.028 281.874 140.851C285.079 144.577 287.265 149.069 288.218 153.89C289.315 159.628 285.77 163.304 282.848 166.454C279.927 169.604 278.768 170.174 277.672 172.368Z" fill="#4B5923"/>
<path d="M281.935 139.175C280.241 138.798 275.389 132.814 269.747 131.796C264.106 130.778 258.859 137.508 254.41 138.298C259.596 141.509 266.694 145.168 271.651 143.167C276.609 141.167 280.119 138.859 281.935 139.175Z" fill="#4B5923"/>
<path d="M67.7396 145.08C62.633 144.325 56.7543 142.395 51.7969 130.734C54.9995 131.962 58.6758 131.69 61.2028 133.726C63.7298 135.762 66.5024 141.14 67.7396 145.08Z" fill="#4B5923"/>
<path d="M99.2574 173.772C100.495 175.202 101.39 174.597 99.9681 172.482C98.5467 170.367 91.9661 162.181 85.9294 157.654C79.8928 153.126 70.636 148.002 66.7578 143.983C67.8721 146.098 74.3124 151.248 78.1643 153.521C86.625 158.604 93.834 165.525 99.2574 173.772Z" fill="#4B5923"/>
<path d="M58.6055 157.373C60.6411 155.109 60.9745 150.503 63.87 148.704C66.7655 146.905 71.2842 149.169 75.68 152.029C74.592 154.618 73.4777 160.321 68.4238 159.47C63.3699 158.619 60.2989 157.057 58.6055 157.373Z" fill="#4B5923"/>
<path d="M74.2243 180.572C74.7332 178.896 79.4186 175.044 81.8052 172.157C84.1918 169.27 85.192 166.015 83.8935 161.532C82.5949 157.048 82.4194 156.267 82.4194 156.267C82.4194 156.267 80.6645 156.53 77.5673 157.092C74.47 157.653 72.2501 158.952 71.7938 163.357C71.3376 167.761 74.6016 173.965 74.2243 180.572Z" fill="#4B5923"/>
<path d="M96.0022 182.327C94.7212 178.975 94.7826 175.123 94.6334 172.719C94.3255 169.493 92.9517 166.461 90.7289 164.103C89.3032 162.689 87.9559 161.198 86.6928 159.637C85.6797 162.624 85.462 165.823 86.0611 168.92C86.7279 173.026 89.5093 175.72 91.8257 178.027C94.1421 180.335 94.9142 180.756 96.0022 182.327Z" fill="#4B5923"/>
<path d="M86.2891 158.443C87.1665 158.189 88.5089 153.96 91.4132 153.302C94.3174 152.644 98.7221 157.549 101.363 158.18C99.1959 160.418 96.0986 162.945 92.8785 161.444C89.6583 159.944 87.2191 158.242 86.2891 158.443Z" fill="#4B5923"/>
<path d="M82.8044 155.653C83.7783 154.898 90.201 150.09 87.1037 139.21C85.5387 134.949 84.4155 130.539 83.752 126.049C82.7324 128.052 81.335 129.84 79.6369 131.313C77.224 133.138 76.2852 136.894 76.9345 141.184C77.5837 145.475 82.1375 152.968 82.8044 155.653Z" fill="#4B5923"/>
<path d="M270.125 172.903C271.713 179.607 279.961 188.881 285.392 194.277C284.515 193.97 283.584 193.636 282.716 193.294C281.61 192.154 280.628 191.101 279.97 190.364C275.582 185.529 270.142 178.598 268.896 173.035V172.894V172.763C270.529 165.289 273.057 158.039 276.425 151.169C277.135 150.669 277.872 150.187 278.627 149.713C274.741 157.016 271.881 164.819 270.125 172.903Z" fill="#C0D254"/>
<path d="M94.3699 120.083C95.8703 117.029 95.6334 110.887 95.2473 107.123C95.5018 107.527 95.7387 107.939 95.958 108.343C96.0282 109.124 96.0721 109.834 96.0896 110.326C96.2388 113.537 96.151 117.907 94.8788 120.425V120.486H94.8174C91.8468 122.825 88.6064 124.798 85.1658 126.365C84.7358 126.365 84.2883 126.295 83.8672 126.233C87.6328 124.673 91.1666 122.603 94.3699 120.083Z" fill="#C0D254"/>
<path d="M137.442 112.133C138.276 111.335 143.584 111.589 147.971 108.711C152.358 105.833 158.904 100.648 161.001 91.6894C163.098 82.731 161.212 75.7116 158.184 68.0517C155.157 60.3919 153.955 58.1018 154.14 55.9434C152.437 57.9702 146.717 60.5674 142.61 63.3049C135.544 68.341 130.585 75.8084 128.686 84.2752C125.93 95.7782 131.449 106.062 133.652 108.211C135.854 110.361 136.152 111.317 136.416 111.993C136.679 112.668 137.442 112.133 137.442 112.133Z" fill="#92A44B"/>
<path d="M139.541 105.991C143.752 106.693 151.026 104.236 155.404 102.403C155.009 102.85 154.606 103.28 154.202 103.692C153.325 104.052 152.447 104.359 151.868 104.57C148.069 105.903 142.796 107.36 139.321 106.737H139.242L139.172 106.684C135.295 103.96 131.759 100.778 128.643 97.2082C128.529 96.6905 128.432 96.1465 128.336 95.6025C131.577 99.563 135.347 103.059 139.541 105.991Z" fill="#C0D254"/>
<path d="M142.4 96.0761C147.541 96.3042 157.316 92.8384 161.062 91.4257C161.062 91.5135 161.062 91.61 161.001 91.6977L160.843 92.3295C156.71 93.8737 147.322 97.129 142.224 96.8306H142.084L141.987 96.7341C138.873 93.8864 135.943 90.8444 133.213 87.6265C131.772 85.9334 130.439 84.1517 129.221 82.2918C129.317 81.9672 129.423 81.6425 129.528 81.3179C131.125 83.8975 134.836 89.0567 142.4 96.0761Z" fill="#C0D254"/>
<path d="M145.471 85.9771C149.762 86.1701 157.272 83.7835 161.818 82.1691C161.818 82.4323 161.818 82.7043 161.818 82.9763C157.158 84.6259 149.621 86.9861 145.252 86.7317H145.111L145.015 86.6439C141.901 83.7962 138.97 80.7542 136.241 77.5363C134.907 75.9482 133.881 74.5882 133.1 73.4651C133.24 73.2194 133.389 72.9825 133.547 72.7456C137.028 77.5775 141.026 82.0143 145.471 85.9771Z" fill="#C0D254"/>
<path d="M147.76 77.3782L147.663 77.2905C144.549 74.4427 141.619 71.4008 138.889 68.1829L138.012 67.1563C138.193 66.9633 138.377 66.779 138.564 66.6035C141.475 70.1727 144.642 73.5246 148.041 76.6324C151.199 76.7728 156.113 75.5093 160.324 74.1932C160.403 74.4389 160.474 74.6933 160.535 74.939C156.244 76.2902 151.173 77.5712 147.891 77.387L147.76 77.3782Z" fill="#C0D254"/>
<path d="M150.516 67.9108L150.411 67.823C148.156 65.726 146.235 63.8045 144.611 62.0584L145.287 61.6548C146.849 63.3307 148.683 65.1645 150.832 67.165C153.077 67.1548 155.312 66.86 157.483 66.2876L157.773 67.007C155.448 67.6181 153.051 67.9132 150.648 67.8845L150.516 67.9108Z" fill="#C0D254"/>
<path d="M135.617 118.599C135.617 118.599 140.881 102.499 143.329 94.2072C145.777 85.9155 152.586 60.8652 152.586 60.8652C152.586 60.8652 143.566 90.7589 142.592 94.2598C141.619 97.7607 134.933 116.195 134.415 118.09C134.222 118.801 135.231 119.415 135.617 118.599Z" fill="#C0D254"/>
<path d="M309.584 340.257C311.578 333.247 256.719 311.498 187.052 291.679C117.385 271.86 59.2926 261.477 57.2983 268.487C55.3041 275.497 110.164 297.246 179.83 317.065C249.497 336.884 307.59 347.267 309.584 340.257Z" fill="#FDECD6"/>
<path d="M111.279 85.2138C111.279 85.2138 256.852 126.198 277.304 135.227C286.886 139.456 287.517 144.615 287.359 151.02L281.419 313.15C281.253 319.581 277.673 328.829 267.644 327.46L106.479 274.113C101.066 272.534 96.8278 266.05 96.9682 259.618L97.3367 90.0747C97.5035 83.6432 105.865 83.6344 111.279 85.2138Z" fill="#743B27"/>
<path d="M105.347 85.2138L277.321 135.227C282.735 136.797 286.973 143.29 286.823 149.713L282.638 315.326C282.471 321.757 277.953 325.688 272.539 324.1L100.565 274.087C95.1512 272.508 90.9133 266.023 91.0624 259.592L95.2652 93.9704C95.4144 87.5652 99.9331 83.6344 105.347 85.2138Z" fill="#5A2D1A"/>
<path d="M112.418 98.4363L269.651 144.159C274.6 145.598 278.496 151.362 278.355 157.039L274.635 303.226C274.495 308.903 270.362 312.334 265.413 310.895L108.18 265.172C103.231 263.733 99.3355 257.969 99.4846 252.292L103.196 106.105C103.345 100.428 107.478 96.9973 112.418 98.4363Z" stroke="#F8B450" stroke-width="0.93" stroke-miterlimit="10" stroke-dasharray="7.59 7.59"/>
<g style="mix-blend-mode:multiply" opacity="0.43">
<path d="M139.33 168.086C142.927 169.13 145.761 173.447 145.647 177.738L144.822 210.307C144.717 214.58 141.708 217.195 138.11 216.151L92.4844 202.884L93.704 154.837L139.33 168.086Z" fill="#985C3A"/>
</g>
<path d="M85.7791 150.467L136.389 165.182C139.986 166.235 142.82 170.543 142.706 174.833L141.881 207.394C141.776 211.676 138.766 214.291 135.169 213.238L84.5595 198.524C80.9533 197.48 78.128 193.163 78.2333 188.872L79.0581 156.302C79.1722 152.038 82.1817 149.423 85.7791 150.467Z" fill="#A87442"/>
<path d="M88.6314 156.004L133.301 168.999C134.938 169.571 136.357 170.639 137.36 172.054C138.363 173.469 138.901 175.161 138.899 176.896L138.232 203.078C138.144 206.508 135.494 208.553 132.318 207.623L87.6487 194.637C86.0119 194.064 84.5939 192.996 83.5909 191.581C82.588 190.166 82.0498 188.474 82.0508 186.74L82.7176 160.558C82.7966 157.154 85.4464 155.127 88.6314 156.004Z" stroke="#F8B450" stroke-width="0.93" stroke-miterlimit="10" stroke-dasharray="7.59 7.59"/>
<path d="M118.35 184.143C118.218 188.986 121.438 193.882 125.518 195.075C129.598 196.269 133.02 193.321 133.143 188.442C133.266 183.564 130.054 178.694 125.966 177.51C121.877 176.325 118.472 179.291 118.35 184.143Z" fill="#FDCC53"/>
<g style="mix-blend-mode:multiply" opacity="0.24">
<path d="M282.164 138.219C283.66 139.73 284.84 141.524 285.637 143.496C286.434 145.467 286.831 147.578 286.806 149.704L282.638 315.326C282.471 321.757 277.953 325.688 272.539 324.1L100.565 274.087C95.1512 272.508 90.9133 266.024 91.0624 259.592L92.0276 221.574C200.213 314.641 277.602 250.098 282.164 138.219Z" fill="#985C3A"/>
</g>
<path d="M198.221 86.3017C189.912 103.157 195.369 127.347 210.408 140.324C216.015 145.168 217.375 147.765 223.315 148.221C224.289 148.3 230.045 148.318 231.001 148.283C239.872 147.958 247.962 142.816 252.656 133.279C260.957 116.424 255.499 92.2331 240.469 79.2561C234.827 74.3864 228.65 71.7892 222.684 71.3593C221.438 71.2628 215.278 71.3593 215.278 71.3593C215.278 71.3593 202.792 77.0801 198.221 86.3017Z" fill="#CCA33E"/>
<path d="M231.225 147.237C247.115 142.232 254.718 121.412 248.206 100.733C241.694 80.0535 223.533 67.3465 207.642 72.3507C191.751 77.3549 184.148 98.1754 190.66 118.855C197.173 139.534 215.334 152.241 231.225 147.237Z" fill="#FFCC4D"/>
<path d="M228.839 139.663C241.517 135.67 247.584 119.061 242.389 102.564C237.194 86.0681 222.705 75.9319 210.027 79.9246C197.348 83.9172 191.282 100.527 196.477 117.023C201.671 133.519 216.161 143.655 228.839 139.663Z" fill="#CCA33E"/>
<path d="M228.143 137.277C239.883 133.58 245.5 118.199 240.69 102.923C235.879 87.647 222.462 78.2605 210.722 81.9576C198.982 85.6547 193.365 101.035 198.175 116.311C202.986 131.587 216.403 140.974 228.143 137.277Z" fill="#FFD671"/>
<path d="M137.865 86.0915C131.355 99.3054 135.636 118.266 147.42 128.436C151.807 132.235 152.886 134.271 157.537 134.648C158.3 134.7 162.801 134.718 163.565 134.692C170.514 134.437 176.858 130.401 180.534 122.926C187.044 109.712 182.771 90.7505 170.988 80.5813C167.124 77.0842 162.24 74.9191 157.054 74.4042C156.08 74.3253 151.246 74.4042 151.246 74.4042C151.246 74.4042 141.436 78.8615 137.865 86.0915Z" fill="#CCA33E"/>
<path d="M163.741 133.849C176.198 129.927 182.158 113.606 177.053 97.3966C171.948 81.1869 157.712 71.2265 145.256 75.1492C132.799 79.0719 126.839 95.3924 131.944 111.602C137.049 127.812 151.285 137.772 163.741 133.849Z" fill="#FFCC4D"/>
<path d="M161.875 127.924C171.812 124.795 176.566 111.774 172.494 98.8415C168.421 85.909 157.064 77.962 147.126 81.0914C137.189 84.2209 132.434 97.2417 136.507 110.174C140.58 123.107 151.937 131.054 161.875 127.924Z" fill="#CCA33E"/>
<path d="M161.334 126.058C170.536 123.16 174.939 111.102 171.168 99.1265C167.396 87.1507 156.879 79.7916 147.676 82.6897C138.474 85.5877 134.071 97.6453 137.842 109.621C141.614 121.597 152.131 128.956 161.334 126.058Z" fill="#FFD671"/>
<path d="M158.843 15.9326C153.237 27.3391 156.922 43.6591 167.074 52.4157C170.864 55.6885 171.785 57.4433 175.795 57.7679C176.453 57.8206 180.34 57.8381 180.989 57.8118C186.973 57.5925 192.396 54.1179 195.607 47.6776C201.214 36.2887 197.529 20.0038 187.377 11.2296C184.052 8.20222 179.84 6.3256 175.365 5.87739C174.488 5.8072 170.364 5.87739 170.364 5.87739C170.364 5.87739 161.914 9.71171 158.843 15.9326Z" fill="#CCA33E"/>
<path d="M181.132 57.0826C191.865 53.7028 197 39.6434 192.603 25.6801C188.206 11.7168 175.941 3.13721 165.208 6.51702C154.476 9.89684 149.34 23.9562 153.737 37.9195C158.135 51.8828 170.4 60.4624 181.132 57.0826Z" fill="#FFCC4D"/>
<path d="M158.51 19.1265C154.035 28.2078 156.975 41.2462 165.073 48.2305C173.172 55.2147 183.359 53.495 187.834 44.4488C192.308 35.4026 189.369 22.3379 181.27 15.3448C173.172 8.35179 162.976 10.0628 158.51 19.1265Z" fill="#CCA33E"/>
<path d="M179.053 50.3618C186.98 47.8655 190.773 37.4787 187.524 27.1622C184.275 16.8458 175.215 10.5062 167.288 13.0025C159.362 15.4988 155.569 25.8856 158.818 36.2021C162.067 46.5186 171.127 52.8581 179.053 50.3618Z" fill="#FFD671"/>
<path d="M96.5641 88.7673L268.538 138.78C273.952 140.351 278.19 146.844 278.041 153.266L273.864 318.879C273.697 325.311 269.381 329.119 259.352 327.759L91.7646 277.667C86.3509 276.087 82.113 269.603 82.2534 263.172L82.6307 93.6194C82.7886 87.1967 91.1504 87.1879 96.5641 88.7673Z" fill="#743B27"/>
<path d="M90.6319 88.7674L262.606 138.78C268.02 140.351 272.258 146.844 272.117 153.267L267.906 318.888C267.748 325.32 263.22 329.25 257.807 327.662L85.8324 277.649C80.4188 276.07 76.1808 269.586 76.33 263.154L80.5328 97.5329C80.6995 91.1277 85.2182 87.1881 90.6319 88.7674Z" fill="#A87442"/>
<path d="M79.3828 142.957L80.5322 97.5503C80.6989 91.1276 85.2176 87.188 90.6313 88.7761L222.376 127.049C201.177 166.445 151.901 170.402 79.3828 142.957Z" fill="#B67C48"/>
<path d="M97.7127 101.99L244.549 144.861C249.497 146.3 253.393 152.064 253.244 157.741L249.532 303.928C249.392 309.605 245.259 313.036 240.311 311.597L93.4748 268.726C88.5261 267.287 84.6304 261.514 84.7795 255.845L88.491 109.65C88.6314 103.982 92.7641 100.542 97.7127 101.99Z" stroke="#F8B450" stroke-width="0.93" stroke-miterlimit="10" stroke-dasharray="7.59 7.59"/>
<g style="mix-blend-mode:multiply" opacity="0.43">
<path d="M124.615 167.709C128.212 168.753 131.046 173.07 130.932 177.361L130.108 213.852C130.002 218.134 126.993 220.749 123.395 219.705L77.7695 206.429L78.9891 154.451L124.615 167.709Z" fill="#985C3A"/>
</g>
<path d="M71.0662 154.021L121.676 168.735C125.273 169.78 128.107 174.096 128.002 178.387L127.168 210.957C127.063 215.23 124.054 217.853 120.456 216.8L69.8466 202.069C66.2492 201.024 63.4151 196.708 63.5204 192.417L64.3978 159.847C64.4593 155.592 67.4688 152.968 71.0662 154.021Z" fill="#A87442"/>
<path d="M73.9185 159.593L118.562 172.587C120.199 173.159 121.618 174.227 122.621 175.642C123.624 177.057 124.162 178.749 124.16 180.484L123.493 206.657C123.405 210.097 120.764 212.132 117.579 211.211L72.9358 198.216C71.2983 197.644 69.8796 196.577 68.8764 195.162C67.8733 193.747 67.3356 192.054 67.3379 190.32L68.0047 164.146C68.0925 160.707 70.7335 158.636 73.9185 159.593Z" stroke="#F8B450" stroke-width="0.93" stroke-miterlimit="10" stroke-dasharray="7.59 7.59"/>
<path d="M103.644 187.688C103.521 192.54 106.733 197.436 110.813 198.629C114.893 199.823 118.314 196.874 118.437 191.996C118.56 187.117 115.349 182.248 111.26 181.063C107.171 179.879 103.758 182.844 103.644 187.688Z" fill="#C6A188"/>
<g style="mix-blend-mode:multiply" opacity="0.24">
<path d="M267.449 141.764C268.944 143.278 270.125 145.074 270.923 147.046C271.721 149.019 272.121 151.13 272.1 153.258L267.888 318.879C267.73 325.311 263.203 329.242 257.789 327.654L85.8149 277.641C80.4012 276.061 76.1633 269.577 76.3124 263.146L77.3214 225.145C185.498 318.195 262.887 253.652 267.449 141.764Z" fill="#985C3A"/>
</g>
<path d="M175.266 208.785C180.042 207.834 182.828 201.607 181.488 194.878C180.148 188.148 175.19 183.463 170.414 184.414C165.638 185.365 162.852 191.592 164.192 198.321C165.531 205.051 170.49 209.736 175.266 208.785Z" fill="#633220"/>
<path d="M172.741 194.33L180.585 238.359L158.123 230.839L172.741 194.33Z" fill="#633220"/>
<path d="M278.346 135.613C287.235 140.088 275.521 142.571 263.5 139.122C263.5 156.083 258.578 322.582 258.578 327.768C268.8 330.128 282.725 332.26 282.725 316.423C282.725 289.854 287.182 163.392 287.489 152.038C287.796 140.684 284.488 138.113 278.346 135.613Z" fill="#A87442"/>
<g style="mix-blend-mode:multiply" opacity="0.47">
<path d="M278.346 135.613C287.235 140.088 275.521 142.571 263.5 139.122C263.5 156.083 258.578 322.582 258.578 327.768C268.8 330.128 282.725 332.26 282.725 316.423C282.725 289.854 287.182 163.392 287.489 152.038C287.796 140.684 284.488 138.113 278.346 135.613Z" fill="#723B27"/>
</g>
<path d="M131.538 205.403L181.736 199.963C182.036 197.101 181.607 194.209 180.49 191.557L130.6 196.98L131.538 205.403Z" fill="#FFCD00"/>
<path d="M159.991 199.673C169.774 198.62 175.969 196.093 177.162 191.917L180.497 191.557C181.611 194.21 182.037 197.101 181.734 199.963L131.528 205.403L131.203 202.472C139.284 201.726 152.112 200.516 159.991 199.673Z" fill="#FABC00"/>
<path d="M127.861 201.92C128.344 206.359 131.248 209.685 134.337 209.343C137.425 209 139.601 205.14 139.075 200.709C138.548 196.278 135.697 192.952 132.599 193.286C129.502 193.619 127.387 197.489 127.861 201.92Z" fill="#F59F00"/>
<path d="M84.0244 205.745C83.226 194.681 93.9129 184.863 107.855 183.81C121.797 182.757 133.8 190.969 134.599 202.034C135.397 213.098 124.702 222.951 110.777 223.96C109.987 224.022 109.215 224.048 108.443 224.048C95.5186 224.048 84.7878 216.178 84.0244 205.745ZM108.469 192.303C99.3529 192.97 92.0265 198.84 92.4915 205.131C92.9565 211.422 101.046 216.169 110.154 215.502C119.262 214.835 126.597 208.965 126.141 202.683C125.711 196.787 118.577 192.242 110.171 192.242C109.61 192.242 109.04 192.268 108.469 192.303Z" fill="#FFCD00"/>
<path d="M110.155 215.502C119.28 214.835 126.597 208.965 126.141 202.683C126.052 201.534 125.717 200.418 125.158 199.41C127.287 197.068 128.742 194.193 129.37 191.092C132.401 193.989 134.273 197.891 134.635 202.068C135.442 213.124 124.755 222.951 110.813 223.96C110.023 224.021 109.251 224.048 108.479 224.048C95.5543 224.048 84.7883 216.151 84.0601 205.745C84.0295 205.16 84.0295 204.574 84.0601 203.99C86.844 205.54 89.865 206.619 93.001 207.184C94.7909 212.413 102.073 216.089 110.155 215.502Z" fill="#FABC00"/>
<path d="M108.663 185.573C106.203 186.085 103.793 186.81 101.459 187.74C99.1645 188.641 96.9707 189.779 94.9134 191.136C92.8745 192.471 91.0493 194.107 89.4997 195.988C87.9426 197.936 86.7154 200.127 85.8672 202.472C86.02 199.852 86.8614 197.319 88.3064 195.128C89.7601 192.915 91.6536 191.024 93.8692 189.574C96.0585 188.134 98.4594 187.044 100.985 186.345C103.475 185.618 106.078 185.357 108.663 185.573Z" fill="#FFFDF4"/>
<path d="M347.347 190.32C347.618 190.32 347.838 190.1 347.838 189.828C347.838 189.557 347.618 189.337 347.347 189.337C347.075 189.337 346.855 189.557 346.855 189.828C346.855 190.1 347.075 190.32 347.347 190.32Z" stroke="#92A44B" stroke-width="1.03" stroke-miterlimit="10"/>
</svg>
