<?xml version="1.0" standalone="no"?><svg xmlns="http://www.w3.org/2000/svg" viewBox="0 0 1440 320"><path fill="#0099ff" fill-opacity="1" d="M0,0L12,37.3C24,75,48,149,72,192C96,235,120,245,144,256C168,267,192,277,216,250.7C240,224,264,160,288,128C312,96,336,96,360,85.3C384,75,408,53,432,58.7C456,64,480,96,504,133.3C528,171,552,213,576,229.3C600,245,624,235,648,202.7C672,171,696,117,720,80C744,43,768,21,792,48C816,75,840,149,864,192C888,235,912,245,936,224C960,203,984,149,1008,149.3C1032,149,1056,203,1080,224C1104,245,1128,235,1152,234.7C1176,235,1200,245,1224,213.3C1248,181,1272,107,1296,74.7C1320,43,1344,53,1368,85.3C1392,117,1416,171,1428,197.3L1440,224L1440,320L1428,320C1416,320,1392,320,1368,320C1344,320,1320,320,1296,320C1272,320,1248,320,1224,320C1200,320,1176,320,1152,320C1128,320,1104,320,1080,320C1056,320,1032,320,1008,320C984,320,960,320,936,320C912,320,888,320,864,320C840,320,816,320,792,320C768,320,744,320,720,320C696,320,672,320,648,320C624,320,600,320,576,320C552,320,528,320,504,320C480,320,456,320,432,320C408,320,384,320,360,320C336,320,312,320,288,320C264,320,240,320,216,320C192,320,168,320,144,320C120,320,96,320,72,320C48,320,24,320,12,320L0,320Z"></path></svg>